<?xml version="1.0" encoding="UTF-8"?>
<svg xmlns="http://www.w3.org/2000/svg" xmlns:xlink="http://www.w3.org/1999/xlink" width="504pt" height="360pt" viewBox="0 0 504 360">
<defs>
<g>
<g id="glyph-0-0">
<path d="M 1.9375 -2.921875 L 2.359375 -2.921875 C 3.203125 -2.921875 3.65625 -2.53125 3.65625 -1.765625 C 3.65625 -0.96875 3.171875 -0.484375 2.375 -0.484375 C 1.515625 -0.484375 1.109375 -0.921875 1.0625 -1.84375 L 0.28125 -1.84375 C 0.3125 -1.34375 0.40625 -1 0.546875 -0.71875 C 0.875 -0.109375 1.484375 0.203125 2.34375 0.203125 C 3.625 0.203125 4.453125 -0.578125 4.453125 -1.78125 C 4.453125 -2.59375 4.140625 -3.03125 3.390625 -3.296875 C 3.96875 -3.53125 4.265625 -3.96875 4.265625 -4.609375 C 4.265625 -5.703125 3.546875 -6.359375 2.359375 -6.359375 C 1.109375 -6.359375 0.4375 -5.65625 0.40625 -4.3125 L 1.1875 -4.3125 C 1.203125 -4.703125 1.234375 -4.921875 1.328125 -5.109375 C 1.5 -5.46875 1.890625 -5.6875 2.375 -5.6875 C 3.0625 -5.6875 3.46875 -5.265625 3.46875 -4.578125 C 3.46875 -4.140625 3.3125 -3.859375 2.96875 -3.71875 C 2.765625 -3.625 2.484375 -3.59375 1.9375 -3.578125 Z M 1.9375 -2.921875 "/>
</g>
<g id="glyph-0-1">
<path d="M 2.421875 -6.359375 C 1.84375 -6.359375 1.3125 -6.09375 0.984375 -5.671875 C 0.578125 -5.109375 0.375 -4.25 0.375 -3.078125 C 0.375 -0.9375 1.078125 0.203125 2.421875 0.203125 C 3.734375 0.203125 4.453125 -0.9375 4.453125 -3.03125 C 4.453125 -4.25 4.265625 -5.078125 3.859375 -5.671875 C 3.53125 -6.109375 3.015625 -6.359375 2.421875 -6.359375 Z M 2.421875 -5.671875 C 3.25 -5.671875 3.671875 -4.828125 3.671875 -3.09375 C 3.671875 -1.28125 3.265625 -0.4375 2.40625 -0.4375 C 1.578125 -0.4375 1.171875 -1.3125 1.171875 -3.0625 C 1.171875 -4.828125 1.578125 -5.671875 2.421875 -5.671875 Z M 2.421875 -5.671875 "/>
</g>
<g id="glyph-0-2">
<path d="M 2.875 -1.546875 L 2.875 0 L 3.65625 0 L 3.65625 -1.546875 L 4.578125 -1.546875 L 4.578125 -2.234375 L 3.65625 -2.234375 L 3.65625 -6.359375 L 3.078125 -6.359375 L 0.25 -2.359375 L 0.25 -1.546875 Z M 2.875 -2.234375 L 0.921875 -2.234375 L 2.875 -5.046875 Z M 2.875 -2.234375 "/>
</g>
<g id="glyph-0-3">
<path d="M 4.1875 -6.234375 L 0.96875 -6.234375 L 0.5 -2.84375 L 1.21875 -2.84375 C 1.578125 -3.265625 1.875 -3.421875 2.359375 -3.421875 C 3.203125 -3.421875 3.71875 -2.84375 3.71875 -1.921875 C 3.71875 -1.03125 3.203125 -0.484375 2.359375 -0.484375 C 1.6875 -0.484375 1.265625 -0.828125 1.078125 -1.53125 L 0.3125 -1.53125 C 0.40625 -1.015625 0.5 -0.78125 0.6875 -0.546875 C 1.03125 -0.078125 1.671875 0.203125 2.375 0.203125 C 3.640625 0.203125 4.515625 -0.71875 4.515625 -2.03125 C 4.515625 -3.265625 3.6875 -4.109375 2.5 -4.109375 C 2.0625 -4.109375 1.703125 -4 1.34375 -3.734375 L 1.59375 -5.46875 L 4.1875 -5.46875 Z M 4.1875 -6.234375 "/>
</g>
<g id="glyph-0-4">
<path d="M 4.375 -4.703125 C 4.234375 -5.75 3.5625 -6.359375 2.609375 -6.359375 C 1.921875 -6.359375 1.3125 -6.03125 0.9375 -5.453125 C 0.546875 -4.828125 0.375 -4.0625 0.375 -2.90625 C 0.375 -1.828125 0.53125 -1.15625 0.90625 -0.59375 C 1.234375 -0.078125 1.78125 0.203125 2.46875 0.203125 C 3.65625 0.203125 4.515625 -0.6875 4.515625 -1.921875 C 4.515625 -3.09375 3.71875 -3.921875 2.609375 -3.921875 C 1.984375 -3.921875 1.5 -3.6875 1.171875 -3.234375 C 1.171875 -4.796875 1.671875 -5.671875 2.5625 -5.671875 C 3.109375 -5.671875 3.484375 -5.328125 3.609375 -4.703125 Z M 2.5 -3.234375 C 3.25 -3.234375 3.71875 -2.703125 3.71875 -1.859375 C 3.71875 -1.0625 3.1875 -0.484375 2.484375 -0.484375 C 1.765625 -0.484375 1.21875 -1.09375 1.21875 -1.90625 C 1.21875 -2.6875 1.734375 -3.234375 2.5 -3.234375 Z M 2.5 -3.234375 "/>
</g>
<g id="glyph-0-5">
<path d="M 0.6875 0 L 3.59375 0 C 4.203125 0 4.640625 -0.171875 4.984375 -0.53125 C 5.296875 -0.875 5.484375 -1.328125 5.484375 -1.828125 C 5.484375 -2.609375 5.125 -3.0625 4.3125 -3.390625 C 4.90625 -3.65625 5.203125 -4.125 5.203125 -4.78125 C 5.203125 -5.265625 5.015625 -5.671875 4.6875 -5.96875 C 4.34375 -6.265625 3.921875 -6.40625 3.296875 -6.40625 L 0.6875 -6.40625 Z M 1.515625 -3.65625 L 1.515625 -5.6875 L 3.09375 -5.6875 C 3.546875 -5.6875 3.8125 -5.625 4.03125 -5.46875 C 4.25 -5.28125 4.375 -5.015625 4.375 -4.671875 C 4.375 -4.3125 4.25 -4.0625 4.03125 -3.875 C 3.8125 -3.71875 3.546875 -3.65625 3.09375 -3.65625 Z M 1.515625 -0.71875 L 1.515625 -2.921875 L 3.515625 -2.921875 C 4.234375 -2.921875 4.65625 -2.515625 4.65625 -1.828125 C 4.65625 -1.140625 4.234375 -0.71875 3.515625 -0.71875 Z M 1.515625 -0.71875 "/>
</g>
<g id="glyph-0-6">
<path d="M 1.34375 -6.40625 L 0.59375 -6.40625 L 0.59375 0 L 1.34375 0 Z M 1.34375 -6.40625 "/>
</g>
<g id="glyph-0-7">
<path d="M 4.703125 -0.4375 C 4.625 -0.40625 4.59375 -0.40625 4.546875 -0.40625 C 4.296875 -0.40625 4.15625 -0.546875 4.15625 -0.78125 L 4.15625 -3.484375 C 4.15625 -4.296875 3.546875 -4.734375 2.421875 -4.734375 C 1.734375 -4.734375 1.203125 -4.546875 0.890625 -4.203125 C 0.671875 -3.96875 0.59375 -3.703125 0.578125 -3.25 L 1.3125 -3.25 C 1.375 -3.8125 1.703125 -4.0625 2.390625 -4.0625 C 3.0625 -4.0625 3.421875 -3.8125 3.421875 -3.375 L 3.421875 -3.1875 C 3.40625 -2.875 3.25 -2.75 2.65625 -2.671875 C 1.625 -2.546875 1.453125 -2.5 1.171875 -2.390625 C 0.640625 -2.15625 0.375 -1.765625 0.375 -1.15625 C 0.375 -0.328125 0.953125 0.203125 1.875 0.203125 C 2.46875 0.203125 2.921875 0 3.453125 -0.46875 C 3.5 0 3.734375 0.203125 4.203125 0.203125 C 4.359375 0.203125 4.453125 0.1875 4.703125 0.125 Z M 3.421875 -1.453125 C 3.421875 -1.203125 3.359375 -1.0625 3.125 -0.859375 C 2.828125 -0.578125 2.46875 -0.4375 2.046875 -0.4375 C 1.46875 -0.4375 1.140625 -0.71875 1.140625 -1.171875 C 1.140625 -1.65625 1.453125 -1.90625 2.25 -2.015625 C 3.03125 -2.125 3.171875 -2.15625 3.421875 -2.28125 Z M 3.421875 -1.453125 "/>
</g>
<g id="glyph-0-8">
<path d="M 4.359375 -6.40625 L 3.625 -6.40625 L 3.625 -4.03125 C 3.3125 -4.5 2.828125 -4.734375 2.203125 -4.734375 C 1.015625 -4.734375 0.234375 -3.78125 0.234375 -2.3125 C 0.234375 -0.75 0.984375 0.203125 2.234375 0.203125 C 2.875 0.203125 3.3125 -0.03125 3.703125 -0.609375 L 3.703125 0 L 4.359375 0 Z M 2.328125 -4.0625 C 3.125 -4.0625 3.625 -3.359375 3.625 -2.25 C 3.625 -1.1875 3.109375 -0.484375 2.34375 -0.484375 C 1.53125 -0.484375 1 -1.203125 1 -2.265625 C 1 -3.34375 1.53125 -4.0625 2.328125 -4.0625 Z M 2.328125 -4.0625 "/>
</g>
<g id="glyph-0-9">
<path d="M 4.515625 -2.0625 C 4.515625 -2.765625 4.453125 -3.1875 4.328125 -3.53125 C 4.03125 -4.28125 3.328125 -4.734375 2.46875 -4.734375 C 1.171875 -4.734375 0.359375 -3.765625 0.359375 -2.25 C 0.359375 -0.71875 1.140625 0.203125 2.453125 0.203125 C 3.5 0.203125 4.234375 -0.390625 4.421875 -1.40625 L 3.671875 -1.40625 C 3.46875 -0.796875 3.0625 -0.46875 2.46875 -0.46875 C 2 -0.46875 1.609375 -0.6875 1.359375 -1.078125 C 1.1875 -1.34375 1.125 -1.59375 1.125 -2.0625 Z M 1.140625 -2.65625 C 1.203125 -3.515625 1.71875 -4.0625 2.453125 -4.0625 C 3.203125 -4.0625 3.71875 -3.484375 3.71875 -2.65625 Z M 1.140625 -2.65625 "/>
</g>
<g id="glyph-0-10">
<path d="M 0.609375 -4.609375 L 0.609375 0 L 1.34375 0 L 1.34375 -2.390625 C 1.359375 -3.5 1.8125 -4 2.828125 -3.96875 L 2.828125 -4.71875 C 2.703125 -4.734375 2.625 -4.734375 2.546875 -4.734375 C 2.0625 -4.734375 1.703125 -4.453125 1.28125 -3.78125 L 1.28125 -4.609375 Z M 0.609375 -4.609375 "/>
</g>
<g id="glyph-0-11">
<path d="M 0.609375 -4.609375 L 0.609375 0 L 1.359375 0 L 1.359375 -2.546875 C 1.359375 -3.484375 1.84375 -4.09375 2.609375 -4.09375 C 3.1875 -4.09375 3.546875 -3.75 3.546875 -3.1875 L 3.546875 0 L 4.28125 0 L 4.28125 -3.484375 C 4.28125 -4.25 3.71875 -4.734375 2.828125 -4.734375 C 2.140625 -4.734375 1.703125 -4.484375 1.296875 -3.828125 L 1.296875 -4.609375 Z M 0.609375 -4.609375 "/>
</g>
<g id="glyph-0-12">
<path d="M 2.390625 -4.734375 C 1.09375 -4.734375 0.3125 -3.8125 0.3125 -2.265625 C 0.3125 -0.71875 1.09375 0.203125 2.40625 0.203125 C 3.703125 0.203125 4.484375 -0.71875 4.484375 -2.234375 C 4.484375 -3.828125 3.734375 -4.734375 2.390625 -4.734375 Z M 2.40625 -4.0625 C 3.234375 -4.0625 3.71875 -3.390625 3.71875 -2.25 C 3.71875 -1.15625 3.203125 -0.46875 2.40625 -0.46875 C 1.578125 -0.46875 1.078125 -1.15625 1.078125 -2.265625 C 1.078125 -3.390625 1.578125 -4.0625 2.40625 -4.0625 Z M 2.40625 -4.0625 "/>
</g>
<g id="glyph-0-13">
<path d="M 3.859375 -3.328125 C 3.84375 -4.234375 3.25 -4.734375 2.1875 -4.734375 C 1.109375 -4.734375 0.40625 -4.1875 0.40625 -3.328125 C 0.40625 -2.609375 0.78125 -2.265625 1.875 -2 L 2.5625 -1.84375 C 3.0625 -1.71875 3.265625 -1.53125 3.265625 -1.203125 C 3.265625 -0.765625 2.84375 -0.46875 2.203125 -0.46875 C 1.796875 -0.46875 1.46875 -0.59375 1.28125 -0.78125 C 1.171875 -0.921875 1.125 -1.046875 1.078125 -1.375 L 0.296875 -1.375 C 0.328125 -0.3125 0.9375 0.203125 2.140625 0.203125 C 3.296875 0.203125 4.03125 -0.375 4.03125 -1.265625 C 4.03125 -1.9375 3.65625 -2.328125 2.734375 -2.546875 L 2.03125 -2.703125 C 1.4375 -2.84375 1.171875 -3.046875 1.171875 -3.375 C 1.171875 -3.796875 1.5625 -4.0625 2.15625 -4.0625 C 2.75 -4.0625 3.0625 -3.8125 3.078125 -3.328125 Z M 3.859375 -3.328125 "/>
</g>
<g id="glyph-0-14">
</g>
<g id="glyph-0-15">
<path d="M 5.25 -4.53125 C 5.25 -4.96875 5.21875 -5.09375 5.078125 -5.390625 C 4.71875 -6.125 3.96875 -6.515625 2.890625 -6.515625 C 1.484375 -6.515625 0.609375 -5.796875 0.609375 -4.640625 C 0.609375 -3.859375 1.03125 -3.359375 1.875 -3.140625 L 3.46875 -2.71875 C 4.28125 -2.5 4.640625 -2.1875 4.640625 -1.6875 C 4.640625 -1.34375 4.453125 -0.984375 4.1875 -0.796875 C 3.9375 -0.609375 3.53125 -0.515625 3.015625 -0.515625 C 2.3125 -0.515625 1.84375 -0.6875 1.53125 -1.0625 C 1.296875 -1.34375 1.1875 -1.640625 1.203125 -2.046875 L 0.421875 -2.046875 C 0.4375 -1.453125 0.546875 -1.0625 0.796875 -0.71875 C 1.234375 -0.109375 1.984375 0.203125 2.953125 0.203125 C 3.71875 0.203125 4.34375 0.03125 4.765625 -0.296875 C 5.1875 -0.640625 5.46875 -1.203125 5.46875 -1.765625 C 5.46875 -2.546875 4.96875 -3.125 4.09375 -3.375 L 2.484375 -3.796875 C 1.71875 -4.015625 1.4375 -4.25 1.4375 -4.75 C 1.4375 -5.40625 2 -5.828125 2.875 -5.828125 C 3.890625 -5.828125 4.453125 -5.375 4.46875 -4.53125 Z M 5.25 -4.53125 "/>
</g>
<g id="glyph-0-16">
<path d="M 4.84375 -2.921875 L 4.84375 0 L 5.671875 0 L 5.671875 -6.40625 L 4.84375 -6.40625 L 4.84375 -3.640625 L 1.546875 -3.640625 L 1.546875 -6.40625 L 0.734375 -6.40625 L 0.734375 0 L 1.546875 0 L 1.546875 -2.921875 Z M 4.84375 -2.921875 "/>
</g>
<g id="glyph-0-17">
<path d="M 0.46875 -6.40625 L 0.46875 0 L 1.140625 0 L 1.140625 -0.59375 C 1.484375 -0.046875 1.953125 0.203125 2.59375 0.203125 C 3.8125 0.203125 4.59375 -0.796875 4.59375 -2.328125 C 4.59375 -3.8125 3.859375 -4.734375 2.625 -4.734375 C 2 -4.734375 1.546875 -4.5 1.203125 -3.984375 L 1.203125 -6.40625 Z M 2.484375 -4.0625 C 3.3125 -4.0625 3.828125 -3.34375 3.828125 -2.25 C 3.828125 -1.203125 3.296875 -0.484375 2.484375 -0.484375 C 1.703125 -0.484375 1.203125 -1.1875 1.203125 -2.265625 C 1.203125 -3.359375 1.703125 -4.0625 2.484375 -4.0625 Z M 2.484375 -4.0625 "/>
</g>
<g id="glyph-0-18">
<path d="M 4.234375 0 L 4.234375 -4.609375 L 3.515625 -4.609375 L 3.515625 -2 C 3.515625 -1.0625 3.015625 -0.4375 2.25 -0.4375 C 1.671875 -0.4375 1.296875 -0.796875 1.296875 -1.34375 L 1.296875 -4.609375 L 0.578125 -4.609375 L 0.578125 -1.0625 C 0.578125 -0.296875 1.140625 0.203125 2.046875 0.203125 C 2.71875 0.203125 3.15625 -0.03125 3.578125 -0.640625 L 3.578125 0 Z M 4.234375 0 "/>
</g>
<g id="glyph-0-19">
<path d="M 6.546875 0 L 8.171875 -6.40625 L 7.25 -6.40625 L 6.078125 -1.203125 L 4.625 -6.40625 L 3.734375 -6.40625 L 2.3125 -1.203125 L 1.109375 -6.40625 L 0.1875 -6.40625 L 1.84375 0 L 2.734375 0 L 4.171875 -5.265625 L 5.640625 0 Z M 6.546875 0 "/>
</g>
<g id="glyph-1-0">
<path d="M 4.8125 -4.15625 C 4.8125 -5.296875 4.0625 -5.921875 2.734375 -5.921875 C 1.390625 -5.921875 0.515625 -5.234375 0.515625 -4.171875 C 0.515625 -3.265625 0.984375 -2.84375 2.34375 -2.515625 L 3.203125 -2.296875 C 3.84375 -2.140625 4.09375 -1.90625 4.09375 -1.5 C 4.09375 -0.953125 3.546875 -0.59375 2.75 -0.59375 C 2.25 -0.59375 1.84375 -0.734375 1.609375 -0.984375 C 1.46875 -1.140625 1.390625 -1.3125 1.34375 -1.71875 L 0.375 -1.71875 C 0.421875 -0.390625 1.171875 0.25 2.671875 0.25 C 4.125 0.25 5.046875 -0.46875 5.046875 -1.578125 C 5.046875 -2.4375 4.5625 -2.90625 3.421875 -3.171875 L 2.546875 -3.390625 C 1.796875 -3.5625 1.46875 -3.8125 1.46875 -4.21875 C 1.46875 -4.75 1.953125 -5.078125 2.6875 -5.078125 C 3.4375 -5.078125 3.828125 -4.765625 3.84375 -4.15625 Z M 4.8125 -4.15625 "/>
</g>
<g id="glyph-1-1">
<path d="M 0.59375 2.390625 L 1.515625 2.390625 L 1.515625 -0.609375 C 2 -0.015625 2.546875 0.25 3.28125 0.25 C 4.78125 0.25 5.75 -0.953125 5.75 -2.78125 C 5.75 -4.71875 4.8125 -5.921875 3.28125 -5.921875 C 2.5 -5.921875 1.875 -5.578125 1.4375 -4.890625 L 1.4375 -5.765625 L 0.59375 -5.765625 Z M 3.125 -5.078125 C 4.140625 -5.078125 4.796875 -4.1875 4.796875 -2.8125 C 4.796875 -1.5 4.125 -0.609375 3.125 -0.609375 C 2.140625 -0.609375 1.515625 -1.484375 1.515625 -2.84375 C 1.515625 -4.1875 2.140625 -5.078125 3.125 -5.078125 Z M 3.125 -5.078125 "/>
</g>
<g id="glyph-1-2">
<path d="M 5.640625 -2.578125 C 5.640625 -3.453125 5.578125 -3.984375 5.40625 -4.40625 C 5.03125 -5.359375 4.15625 -5.921875 3.078125 -5.921875 C 1.46875 -5.921875 0.4375 -4.703125 0.4375 -2.8125 C 0.4375 -0.90625 1.4375 0.25 3.0625 0.25 C 4.375 0.25 5.296875 -0.5 5.515625 -1.75 L 4.59375 -1.75 C 4.34375 -0.984375 3.828125 -0.59375 3.09375 -0.59375 C 2.515625 -0.59375 2.015625 -0.859375 1.703125 -1.34375 C 1.484375 -1.671875 1.40625 -2 1.390625 -2.578125 Z M 1.421875 -3.328125 C 1.5 -4.390625 2.140625 -5.078125 3.0625 -5.078125 C 4 -5.078125 4.65625 -4.359375 4.65625 -3.328125 Z M 1.421875 -3.328125 "/>
</g>
<g id="glyph-1-3">
<path d="M 5.1875 -3.828125 C 5.140625 -4.390625 5.015625 -4.75 4.796875 -5.078125 C 4.40625 -5.609375 3.703125 -5.921875 2.90625 -5.921875 C 1.34375 -5.921875 0.34375 -4.703125 0.34375 -2.78125 C 0.34375 -0.921875 1.328125 0.25 2.890625 0.25 C 4.265625 0.25 5.140625 -0.578125 5.25 -1.984375 L 4.328125 -1.984375 C 4.171875 -1.0625 3.703125 -0.59375 2.921875 -0.59375 C 1.90625 -0.59375 1.296875 -1.421875 1.296875 -2.78125 C 1.296875 -4.21875 1.890625 -5.078125 2.890625 -5.078125 C 3.65625 -5.078125 4.140625 -4.625 4.25 -3.828125 Z M 5.1875 -3.828125 "/>
</g>
<g id="glyph-1-4">
<path d="M 1.65625 -5.765625 L 0.734375 -5.765625 L 0.734375 0 L 1.65625 0 Z M 1.65625 -8.015625 L 0.71875 -8.015625 L 0.71875 -6.859375 L 1.65625 -6.859375 Z M 1.65625 -8.015625 "/>
</g>
<g id="glyph-2-0">
<path d="M -5.765625 -0.765625 L 0 -0.765625 L 0 -1.6875 L -3.625 -1.6875 C -4.453125 -1.6875 -5.125 -2.296875 -5.125 -3.046875 C -5.125 -3.734375 -4.703125 -4.109375 -3.96875 -4.109375 L 0 -4.109375 L 0 -5.03125 L -3.625 -5.03125 C -4.453125 -5.03125 -5.125 -5.640625 -5.125 -6.390625 C -5.125 -7.0625 -4.703125 -7.453125 -3.96875 -7.453125 L 0 -7.453125 L 0 -8.375 L -4.328125 -8.375 C -5.359375 -8.375 -5.921875 -7.78125 -5.921875 -6.703125 C -5.921875 -5.9375 -5.703125 -5.484375 -5.046875 -4.9375 C -5.671875 -4.59375 -5.921875 -4.140625 -5.921875 -3.390625 C -5.921875 -2.625 -5.640625 -2.09375 -4.953125 -1.609375 L -5.765625 -1.609375 Z M -5.765625 -0.765625 "/>
</g>
<g id="glyph-2-1">
<path d="M -5.765625 -4.265625 L -1.28125 -2.671875 L -5.765625 -1.203125 L -5.765625 -0.21875 L 0.015625 -2.171875 L 0.9375 -1.8125 C 1.34375 -1.65625 1.5 -1.46875 1.5 -1.078125 C 1.5 -0.921875 1.46875 -0.796875 1.4375 -0.59375 L 2.25 -0.59375 C 2.359375 -0.78125 2.390625 -0.96875 2.390625 -1.203125 C 2.390625 -1.5 2.296875 -1.828125 2.125 -2.0625 C 1.90625 -2.359375 1.671875 -2.515625 1.203125 -2.6875 L -5.765625 -5.265625 Z M -5.765625 -4.265625 "/>
</g>
<g id="glyph-2-2">
<path d="M -5.921875 -2.984375 C -5.921875 -1.359375 -4.78125 -0.390625 -2.84375 -0.390625 C -0.890625 -0.390625 0.25 -1.359375 0.25 -3 C 0.25 -4.625 -0.90625 -5.609375 -2.796875 -5.609375 C -4.796875 -5.609375 -5.921875 -4.65625 -5.921875 -2.984375 Z M -5.078125 -3 C -5.078125 -4.03125 -4.234375 -4.65625 -2.8125 -4.65625 C -1.4375 -4.65625 -0.59375 -4.015625 -0.59375 -3 C -0.59375 -1.984375 -1.4375 -1.359375 -2.84375 -1.359375 C -4.234375 -1.359375 -5.078125 -1.984375 -5.078125 -3 Z M -5.078125 -3 "/>
</g>
<g id="glyph-2-3">
<path d="M -5.765625 -4.4375 L -4.921875 -4.4375 C -5.625 -3.984375 -5.921875 -3.46875 -5.921875 -2.75 C -5.921875 -1.359375 -4.625 -0.390625 -2.78125 -0.390625 C -1.8125 -0.390625 -1.109375 -0.609375 -0.53125 -1.109375 C -0.015625 -1.546875 0.25 -2.09375 0.25 -2.6875 C 0.25 -3.375 -0.0625 -3.875 -0.78125 -4.359375 L -0.484375 -4.359375 C 1.0625 -4.359375 1.625 -3.921875 1.625 -2.78125 C 1.625 -2 1.3125 -1.59375 0.65625 -1.5 L 0.65625 -0.578125 C 1.734375 -0.65625 2.390625 -1.5 2.390625 -2.765625 C 2.390625 -3.609375 2.125 -4.3125 1.65625 -4.6875 C 1.125 -5.125 0.40625 -5.296875 -0.953125 -5.296875 L -5.765625 -5.296875 Z M -5.078125 -2.84375 C -5.078125 -3.8125 -4.265625 -4.359375 -2.8125 -4.359375 C -1.40625 -4.359375 -0.59375 -3.796875 -0.59375 -2.84375 C -0.59375 -1.890625 -1.421875 -1.34375 -2.84375 -1.34375 C -4.25 -1.34375 -5.078125 -1.890625 -5.078125 -2.84375 Z M -5.078125 -2.84375 "/>
</g>
<g id="glyph-2-4">
<path d="M -8.015625 -1.671875 L -8.015625 -0.75 L 0 -0.75 L 0 -1.671875 Z M -8.015625 -1.671875 "/>
</g>
<g id="glyph-2-5">
<path d="M -8.015625 -0.59375 L 0 -0.59375 L 0 -1.421875 L -0.734375 -1.421875 C -0.0625 -1.859375 0.25 -2.4375 0.25 -3.25 C 0.25 -4.765625 -0.984375 -5.75 -2.90625 -5.75 C -4.78125 -5.75 -5.921875 -4.8125 -5.921875 -3.28125 C -5.921875 -2.5 -5.625 -1.9375 -4.984375 -1.5 L -8.015625 -1.5 Z M -5.078125 -3.109375 C -5.078125 -4.140625 -4.1875 -4.796875 -2.8125 -4.796875 C -1.5 -4.796875 -0.609375 -4.109375 -0.609375 -3.109375 C -0.609375 -2.140625 -1.484375 -1.5 -2.84375 -1.5 C -4.1875 -1.5 -5.078125 -2.140625 -5.078125 -3.109375 Z M -5.078125 -3.109375 "/>
</g>
<g id="glyph-2-6">
<path d="M -5.765625 -1.65625 L -5.765625 -0.734375 L 0 -0.734375 L 0 -1.65625 Z M -8.015625 -1.65625 L -8.015625 -0.71875 L -6.859375 -0.71875 L -6.859375 -1.65625 Z M -8.015625 -1.65625 "/>
</g>
<g id="glyph-2-7">
<path d="M -5.765625 -0.765625 L 0 -0.765625 L 0 -1.6875 L -3.171875 -1.6875 C -4.359375 -1.6875 -5.125 -2.3125 -5.125 -3.25 C -5.125 -3.984375 -4.6875 -4.4375 -4 -4.4375 L 0 -4.4375 L 0 -5.359375 L -4.359375 -5.359375 C -5.3125 -5.359375 -5.921875 -4.640625 -5.921875 -3.53125 C -5.921875 -2.671875 -5.59375 -2.125 -4.796875 -1.609375 L -5.765625 -1.609375 Z M -5.765625 -0.765625 "/>
</g>
</g>
<clipPath id="clip-0">
<path clip-rule="nonzero" d="M 35.152344 5.480469 L 498.523438 5.480469 L 498.523438 325.851562 L 35.152344 325.851562 Z M 35.152344 5.480469 "/>
</clipPath>
<clipPath id="clip-1">
<path clip-rule="nonzero" d="M 35.152344 318 L 498.523438 318 L 498.523438 319 L 35.152344 319 Z M 35.152344 318 "/>
</clipPath>
<clipPath id="clip-2">
<path clip-rule="nonzero" d="M 35.152344 247 L 498.523438 247 L 498.523438 249 L 35.152344 249 Z M 35.152344 247 "/>
</clipPath>
<clipPath id="clip-3">
<path clip-rule="nonzero" d="M 35.152344 176 L 498.523438 176 L 498.523438 178 L 35.152344 178 Z M 35.152344 176 "/>
</clipPath>
<clipPath id="clip-4">
<path clip-rule="nonzero" d="M 35.152344 106 L 498.523438 106 L 498.523438 107 L 35.152344 107 Z M 35.152344 106 "/>
</clipPath>
<clipPath id="clip-5">
<path clip-rule="nonzero" d="M 35.152344 35 L 498.523438 35 L 498.523438 37 L 35.152344 37 Z M 35.152344 35 "/>
</clipPath>
<clipPath id="clip-6">
<path clip-rule="nonzero" d="M 35.152344 282 L 498.523438 282 L 498.523438 284 L 35.152344 284 Z M 35.152344 282 "/>
</clipPath>
<clipPath id="clip-7">
<path clip-rule="nonzero" d="M 35.152344 211 L 498.523438 211 L 498.523438 214 L 35.152344 214 Z M 35.152344 211 "/>
</clipPath>
<clipPath id="clip-8">
<path clip-rule="nonzero" d="M 35.152344 141 L 498.523438 141 L 498.523438 143 L 35.152344 143 Z M 35.152344 141 "/>
</clipPath>
<clipPath id="clip-9">
<path clip-rule="nonzero" d="M 35.152344 70 L 498.523438 70 L 498.523438 72 L 35.152344 72 Z M 35.152344 70 "/>
</clipPath>
<clipPath id="clip-10">
<path clip-rule="nonzero" d="M 121 5.480469 L 123 5.480469 L 123 325.851562 L 121 325.851562 Z M 121 5.480469 "/>
</clipPath>
<clipPath id="clip-11">
<path clip-rule="nonzero" d="M 266 5.480469 L 268 5.480469 L 268 325.851562 L 266 325.851562 Z M 266 5.480469 "/>
</clipPath>
<clipPath id="clip-12">
<path clip-rule="nonzero" d="M 411 5.480469 L 413 5.480469 L 413 325.851562 L 411 325.851562 Z M 411 5.480469 "/>
</clipPath>
</defs>
<rect x="-50.4" y="-36" width="604.8" height="432" fill="rgb(100%, 100%, 100%)" fill-opacity="1"/>
<rect x="-50.4" y="-36" width="604.8" height="432" fill="rgb(100%, 100%, 100%)" fill-opacity="1"/>
<path fill="none" stroke-width="1.066978" stroke-linecap="round" stroke-linejoin="round" stroke="rgb(100%, 100%, 100%)" stroke-opacity="1" stroke-miterlimit="10" d="M 0 360 L 504 360 L 504 0 L 0 0 Z M 0 360 "/>
<g clip-path="url(#clip-0)">
<path fill-rule="nonzero" fill="rgb(92.156863%, 92.156863%, 92.156863%)" fill-opacity="1" d="M 35.152344 325.847656 L 498.523438 325.847656 L 498.523438 5.476562 L 35.152344 5.476562 Z M 35.152344 325.847656 "/>
</g>
<g clip-path="url(#clip-1)">
<path fill="none" stroke-width="0.533489" stroke-linecap="butt" stroke-linejoin="round" stroke="rgb(100%, 100%, 100%)" stroke-opacity="1" stroke-miterlimit="10" d="M 35.152344 318.417969 L 498.519531 318.417969 "/>
</g>
<g clip-path="url(#clip-2)">
<path fill="none" stroke-width="0.533489" stroke-linecap="butt" stroke-linejoin="round" stroke="rgb(100%, 100%, 100%)" stroke-opacity="1" stroke-miterlimit="10" d="M 35.152344 247.8125 L 498.519531 247.8125 "/>
</g>
<g clip-path="url(#clip-3)">
<path fill="none" stroke-width="0.533489" stroke-linecap="butt" stroke-linejoin="round" stroke="rgb(100%, 100%, 100%)" stroke-opacity="1" stroke-miterlimit="10" d="M 35.152344 177.207031 L 498.519531 177.207031 "/>
</g>
<g clip-path="url(#clip-4)">
<path fill="none" stroke-width="0.533489" stroke-linecap="butt" stroke-linejoin="round" stroke="rgb(100%, 100%, 100%)" stroke-opacity="1" stroke-miterlimit="10" d="M 35.152344 106.601562 L 498.519531 106.601562 "/>
</g>
<g clip-path="url(#clip-5)">
<path fill="none" stroke-width="0.533489" stroke-linecap="butt" stroke-linejoin="round" stroke="rgb(100%, 100%, 100%)" stroke-opacity="1" stroke-miterlimit="10" d="M 35.152344 36 L 498.519531 36 "/>
</g>
<g clip-path="url(#clip-6)">
<path fill="none" stroke-width="1.066978" stroke-linecap="butt" stroke-linejoin="round" stroke="rgb(100%, 100%, 100%)" stroke-opacity="1" stroke-miterlimit="10" d="M 35.152344 283.117188 L 498.519531 283.117188 "/>
</g>
<g clip-path="url(#clip-7)">
<path fill="none" stroke-width="1.066978" stroke-linecap="butt" stroke-linejoin="round" stroke="rgb(100%, 100%, 100%)" stroke-opacity="1" stroke-miterlimit="10" d="M 35.152344 212.511719 L 498.519531 212.511719 "/>
</g>
<g clip-path="url(#clip-8)">
<path fill="none" stroke-width="1.066978" stroke-linecap="butt" stroke-linejoin="round" stroke="rgb(100%, 100%, 100%)" stroke-opacity="1" stroke-miterlimit="10" d="M 35.152344 141.90625 L 498.519531 141.90625 "/>
</g>
<g clip-path="url(#clip-9)">
<path fill="none" stroke-width="1.066978" stroke-linecap="butt" stroke-linejoin="round" stroke="rgb(100%, 100%, 100%)" stroke-opacity="1" stroke-miterlimit="10" d="M 35.152344 71.300781 L 498.519531 71.300781 "/>
</g>
<g clip-path="url(#clip-10)">
<path fill="none" stroke-width="1.066978" stroke-linecap="butt" stroke-linejoin="round" stroke="rgb(100%, 100%, 100%)" stroke-opacity="1" stroke-miterlimit="10" d="M 122.03125 325.847656 L 122.03125 5.480469 "/>
</g>
<g clip-path="url(#clip-11)">
<path fill="none" stroke-width="1.066978" stroke-linecap="butt" stroke-linejoin="round" stroke="rgb(100%, 100%, 100%)" stroke-opacity="1" stroke-miterlimit="10" d="M 266.835938 325.847656 L 266.835938 5.480469 "/>
</g>
<g clip-path="url(#clip-12)">
<path fill="none" stroke-width="1.066978" stroke-linecap="butt" stroke-linejoin="round" stroke="rgb(100%, 100%, 100%)" stroke-opacity="1" stroke-miterlimit="10" d="M 411.640625 325.847656 L 411.640625 5.480469 "/>
</g>
<path fill-rule="nonzero" fill="rgb(0%, 0%, 0%)" fill-opacity="1" stroke-width="0.708661" stroke-linecap="round" stroke-linejoin="round" stroke="rgb(0%, 0%, 0%)" stroke-opacity="1" stroke-miterlimit="10" d="M 256.367188 144.09375 C 256.367188 146.699219 252.457031 146.699219 252.457031 144.09375 C 252.457031 141.488281 256.367188 141.488281 256.367188 144.09375 "/>
<path fill-rule="nonzero" fill="rgb(0%, 0%, 0%)" fill-opacity="1" stroke-width="0.708661" stroke-linecap="round" stroke-linejoin="round" stroke="rgb(0%, 0%, 0%)" stroke-opacity="1" stroke-miterlimit="10" d="M 258.078125 134.703125 C 258.078125 137.308594 254.171875 137.308594 254.171875 134.703125 C 254.171875 132.097656 258.078125 132.097656 258.078125 134.703125 "/>
<path fill-rule="nonzero" fill="rgb(0%, 0%, 0%)" fill-opacity="1" stroke-width="0.708661" stroke-linecap="round" stroke-linejoin="round" stroke="rgb(0%, 0%, 0%)" stroke-opacity="1" stroke-miterlimit="10" d="M 263.535156 201.425781 C 263.535156 204.03125 259.625 204.03125 259.625 201.425781 C 259.625 198.820312 263.535156 198.820312 263.535156 201.425781 "/>
<path fill-rule="nonzero" fill="rgb(0%, 0%, 0%)" fill-opacity="1" stroke-width="0.708661" stroke-linecap="round" stroke-linejoin="round" stroke="rgb(0%, 0%, 0%)" stroke-opacity="1" stroke-miterlimit="10" d="M 263.878906 173.183594 C 263.878906 175.789062 259.972656 175.789062 259.972656 173.183594 C 259.972656 170.578125 263.878906 170.578125 263.878906 173.183594 "/>
<path fill-rule="nonzero" fill="rgb(0%, 0%, 0%)" fill-opacity="1" stroke-width="0.708661" stroke-linecap="round" stroke-linejoin="round" stroke="rgb(0%, 0%, 0%)" stroke-opacity="1" stroke-miterlimit="10" d="M 270.886719 216.886719 C 270.886719 219.496094 266.980469 219.496094 266.980469 216.886719 C 266.980469 214.28125 270.886719 214.28125 270.886719 216.886719 "/>
<path fill-rule="nonzero" fill="rgb(0%, 0%, 0%)" fill-opacity="1" stroke-width="0.708661" stroke-linecap="round" stroke-linejoin="round" stroke="rgb(0%, 0%, 0%)" stroke-opacity="1" stroke-miterlimit="10" d="M 265.707031 190.90625 C 265.707031 193.511719 261.796875 193.511719 261.796875 190.90625 C 261.796875 188.300781 265.707031 188.300781 265.707031 190.90625 "/>
<path fill-rule="nonzero" fill="rgb(0%, 0%, 0%)" fill-opacity="1" stroke-width="0.708661" stroke-linecap="round" stroke-linejoin="round" stroke="rgb(0%, 0%, 0%)" stroke-opacity="1" stroke-miterlimit="10" d="M 260.609375 101.800781 C 260.609375 104.410156 256.699219 104.410156 256.699219 101.800781 C 256.699219 99.195312 260.609375 99.195312 260.609375 101.800781 "/>
<path fill-rule="nonzero" fill="rgb(0%, 0%, 0%)" fill-opacity="1" stroke-width="0.708661" stroke-linecap="round" stroke-linejoin="round" stroke="rgb(0%, 0%, 0%)" stroke-opacity="1" stroke-miterlimit="10" d="M 272.644531 28.375 C 272.644531 30.980469 268.734375 30.980469 268.734375 28.375 C 268.734375 25.765625 272.644531 25.765625 272.644531 28.375 "/>
<path fill-rule="nonzero" fill="rgb(0%, 0%, 0%)" fill-opacity="1" stroke-width="0.708661" stroke-linecap="round" stroke-linejoin="round" stroke="rgb(0%, 0%, 0%)" stroke-opacity="1" stroke-miterlimit="10" d="M 257.164062 99.472656 C 257.164062 102.078125 253.253906 102.078125 253.253906 99.472656 C 253.253906 96.867188 257.164062 96.867188 257.164062 99.472656 "/>
<path fill-rule="nonzero" fill="rgb(0%, 0%, 0%)" fill-opacity="1" stroke-width="0.708661" stroke-linecap="round" stroke-linejoin="round" stroke="rgb(0%, 0%, 0%)" stroke-opacity="1" stroke-miterlimit="10" d="M 255.566406 162.804688 C 255.566406 165.410156 251.65625 165.410156 251.65625 162.804688 C 251.65625 160.199219 255.566406 160.199219 255.566406 162.804688 "/>
<path fill-rule="nonzero" fill="rgb(0%, 0%, 0%)" fill-opacity="1" stroke-width="0.708661" stroke-linecap="round" stroke-linejoin="round" stroke="rgb(0%, 0%, 0%)" stroke-opacity="1" stroke-miterlimit="10" d="M 259.269531 131.457031 C 259.269531 134.0625 255.359375 134.0625 255.359375 131.457031 C 255.359375 128.851562 259.269531 128.851562 259.269531 131.457031 "/>
<path fill-rule="nonzero" fill="rgb(0%, 0%, 0%)" fill-opacity="1" stroke-width="0.708661" stroke-linecap="round" stroke-linejoin="round" stroke="rgb(0%, 0%, 0%)" stroke-opacity="1" stroke-miterlimit="10" d="M 259.644531 135.691406 C 259.644531 138.300781 255.734375 138.300781 255.734375 135.691406 C 255.734375 133.085938 259.644531 133.085938 259.644531 135.691406 "/>
<path fill-rule="nonzero" fill="rgb(0%, 0%, 0%)" fill-opacity="1" stroke-width="0.708661" stroke-linecap="round" stroke-linejoin="round" stroke="rgb(0%, 0%, 0%)" stroke-opacity="1" stroke-miterlimit="10" d="M 258.273438 118.113281 C 258.273438 120.71875 254.363281 120.71875 254.363281 118.113281 C 254.363281 115.503906 258.273438 115.503906 258.273438 118.113281 "/>
<path fill-rule="nonzero" fill="rgb(0%, 0%, 0%)" fill-opacity="1" stroke-width="0.708661" stroke-linecap="round" stroke-linejoin="round" stroke="rgb(0%, 0%, 0%)" stroke-opacity="1" stroke-miterlimit="10" d="M 256.316406 245.90625 C 256.316406 248.511719 252.410156 248.511719 252.410156 245.90625 C 252.410156 243.300781 256.316406 243.300781 256.316406 245.90625 "/>
<path fill-rule="nonzero" fill="rgb(0%, 0%, 0%)" fill-opacity="1" stroke-width="0.708661" stroke-linecap="round" stroke-linejoin="round" stroke="rgb(0%, 0%, 0%)" stroke-opacity="1" stroke-miterlimit="10" d="M 280.371094 175.441406 C 280.371094 178.050781 276.460938 178.050781 276.460938 175.441406 C 276.460938 172.835938 280.371094 172.835938 280.371094 175.441406 "/>
<path fill-rule="nonzero" fill="rgb(0%, 0%, 0%)" fill-opacity="1" stroke-width="0.708661" stroke-linecap="round" stroke-linejoin="round" stroke="rgb(0%, 0%, 0%)" stroke-opacity="1" stroke-miterlimit="10" d="M 271.925781 224.160156 C 271.925781 226.765625 268.015625 226.765625 268.015625 224.160156 C 268.015625 221.554688 271.925781 221.554688 271.925781 224.160156 "/>
<path fill-rule="nonzero" fill="rgb(0%, 0%, 0%)" fill-opacity="1" stroke-width="0.708661" stroke-linecap="round" stroke-linejoin="round" stroke="rgb(0%, 0%, 0%)" stroke-opacity="1" stroke-miterlimit="10" d="M 281.234375 138.585938 C 281.234375 141.195312 277.324219 141.195312 277.324219 138.585938 C 277.324219 135.980469 281.234375 135.980469 281.234375 138.585938 "/>
<path fill-rule="nonzero" fill="rgb(0%, 0%, 0%)" fill-opacity="1" stroke-width="0.708661" stroke-linecap="round" stroke-linejoin="round" stroke="rgb(0%, 0%, 0%)" stroke-opacity="1" stroke-miterlimit="10" d="M 282.308594 146.285156 C 282.308594 148.890625 278.398438 148.890625 278.398438 146.285156 C 278.398438 143.675781 282.308594 143.675781 282.308594 146.285156 "/>
<path fill-rule="nonzero" fill="rgb(0%, 0%, 0%)" fill-opacity="1" stroke-width="0.708661" stroke-linecap="round" stroke-linejoin="round" stroke="rgb(0%, 0%, 0%)" stroke-opacity="1" stroke-miterlimit="10" d="M 271.75 200.929688 C 271.75 203.539062 267.839844 203.539062 267.839844 200.929688 C 267.839844 198.324219 271.75 198.324219 271.75 200.929688 "/>
<path fill-rule="nonzero" fill="rgb(0%, 0%, 0%)" fill-opacity="1" stroke-width="0.708661" stroke-linecap="round" stroke-linejoin="round" stroke="rgb(0%, 0%, 0%)" stroke-opacity="1" stroke-miterlimit="10" d="M 277.554688 202.0625 C 277.554688 204.667969 273.644531 204.667969 273.644531 202.0625 C 273.644531 199.453125 277.554688 199.453125 277.554688 202.0625 "/>
<path fill-rule="nonzero" fill="rgb(0%, 0%, 0%)" fill-opacity="1" stroke-width="0.708661" stroke-linecap="round" stroke-linejoin="round" stroke="rgb(0%, 0%, 0%)" stroke-opacity="1" stroke-miterlimit="10" d="M 280.566406 171.628906 C 280.566406 174.238281 276.65625 174.238281 276.65625 171.628906 C 276.65625 169.023438 280.566406 169.023438 280.566406 171.628906 "/>
<path fill-rule="nonzero" fill="rgb(0%, 0%, 0%)" fill-opacity="1" stroke-width="0.708661" stroke-linecap="round" stroke-linejoin="round" stroke="rgb(0%, 0%, 0%)" stroke-opacity="1" stroke-miterlimit="10" d="M 279.074219 155.460938 C 279.074219 158.070312 275.164062 158.070312 275.164062 155.460938 C 275.164062 152.855469 279.074219 152.855469 279.074219 155.460938 "/>
<path fill-rule="nonzero" fill="rgb(0%, 0%, 0%)" fill-opacity="1" stroke-width="0.708661" stroke-linecap="round" stroke-linejoin="round" stroke="rgb(0%, 0%, 0%)" stroke-opacity="1" stroke-miterlimit="10" d="M 279.484375 90.433594 C 279.484375 93.042969 275.574219 93.042969 275.574219 90.433594 C 275.574219 87.828125 279.484375 87.828125 279.484375 90.433594 "/>
<path fill-rule="nonzero" fill="rgb(0%, 0%, 0%)" fill-opacity="1" stroke-width="0.708661" stroke-linecap="round" stroke-linejoin="round" stroke="rgb(0%, 0%, 0%)" stroke-opacity="1" stroke-miterlimit="10" d="M 256.421875 63.109375 C 256.421875 65.71875 252.511719 65.71875 252.511719 63.109375 C 252.511719 60.503906 256.421875 60.503906 256.421875 63.109375 "/>
<path fill-rule="nonzero" fill="rgb(0%, 0%, 0%)" fill-opacity="1" stroke-width="0.708661" stroke-linecap="round" stroke-linejoin="round" stroke="rgb(0%, 0%, 0%)" stroke-opacity="1" stroke-miterlimit="10" d="M 255.789062 150.097656 C 255.789062 152.703125 251.878906 152.703125 251.878906 150.097656 C 251.878906 147.488281 255.789062 147.488281 255.789062 150.097656 "/>
<path fill-rule="nonzero" fill="rgb(0%, 0%, 0%)" fill-opacity="1" stroke-width="0.708661" stroke-linecap="round" stroke-linejoin="round" stroke="rgb(0%, 0%, 0%)" stroke-opacity="1" stroke-miterlimit="10" d="M 267.664062 55.695312 C 267.664062 58.304688 263.753906 58.304688 263.753906 55.695312 C 263.753906 53.089844 267.664062 53.089844 267.664062 55.695312 "/>
<path fill-rule="nonzero" fill="rgb(0%, 0%, 0%)" fill-opacity="1" stroke-width="0.708661" stroke-linecap="round" stroke-linejoin="round" stroke="rgb(0%, 0%, 0%)" stroke-opacity="1" stroke-miterlimit="10" d="M 278.882812 226.703125 C 278.882812 229.308594 274.972656 229.308594 274.972656 226.703125 C 274.972656 224.097656 278.882812 224.097656 278.882812 226.703125 "/>
<path fill-rule="nonzero" fill="rgb(0%, 0%, 0%)" fill-opacity="1" stroke-width="0.708661" stroke-linecap="round" stroke-linejoin="round" stroke="rgb(0%, 0%, 0%)" stroke-opacity="1" stroke-miterlimit="10" d="M 279.839844 208.484375 C 279.839844 211.09375 275.929688 211.09375 275.929688 208.484375 C 275.929688 205.878906 279.839844 205.878906 279.839844 208.484375 "/>
<path fill-rule="nonzero" fill="rgb(0%, 0%, 0%)" fill-opacity="1" stroke-width="0.708661" stroke-linecap="round" stroke-linejoin="round" stroke="rgb(0%, 0%, 0%)" stroke-opacity="1" stroke-miterlimit="10" d="M 276.226562 20.042969 C 276.226562 22.648438 272.316406 22.648438 272.316406 20.042969 C 272.316406 17.433594 276.226562 17.433594 276.226562 20.042969 "/>
<path fill-rule="nonzero" fill="rgb(0%, 0%, 0%)" fill-opacity="1" stroke-width="0.708661" stroke-linecap="round" stroke-linejoin="round" stroke="rgb(0%, 0%, 0%)" stroke-opacity="1" stroke-miterlimit="10" d="M 282.265625 152.847656 C 282.265625 155.457031 278.355469 155.457031 278.355469 152.847656 C 278.355469 150.242188 282.265625 150.242188 282.265625 152.847656 "/>
<path fill-rule="nonzero" fill="rgb(0%, 0%, 0%)" fill-opacity="1" stroke-width="0.708661" stroke-linecap="round" stroke-linejoin="round" stroke="rgb(0%, 0%, 0%)" stroke-opacity="1" stroke-miterlimit="10" d="M 420.832031 103.707031 C 420.832031 106.316406 416.921875 106.316406 416.921875 103.707031 C 416.921875 101.101562 420.832031 101.101562 420.832031 103.707031 "/>
<path fill-rule="nonzero" fill="rgb(0%, 0%, 0%)" fill-opacity="1" stroke-width="0.708661" stroke-linecap="round" stroke-linejoin="round" stroke="rgb(0%, 0%, 0%)" stroke-opacity="1" stroke-miterlimit="10" d="M 425.839844 211.945312 C 425.839844 214.550781 421.933594 214.550781 421.933594 211.945312 C 421.933594 209.339844 425.839844 209.339844 425.839844 211.945312 "/>
<path fill-rule="nonzero" fill="rgb(0%, 0%, 0%)" fill-opacity="1" stroke-width="0.708661" stroke-linecap="round" stroke-linejoin="round" stroke="rgb(0%, 0%, 0%)" stroke-opacity="1" stroke-miterlimit="10" d="M 415.683594 168.101562 C 415.683594 170.707031 411.773438 170.707031 411.773438 168.101562 C 411.773438 165.492188 415.683594 165.492188 415.683594 168.101562 "/>
<path fill-rule="nonzero" fill="rgb(0%, 0%, 0%)" fill-opacity="1" stroke-width="0.708661" stroke-linecap="round" stroke-linejoin="round" stroke="rgb(0%, 0%, 0%)" stroke-opacity="1" stroke-miterlimit="10" d="M 417.136719 284.316406 C 417.136719 286.921875 413.226562 286.921875 413.226562 284.316406 C 413.226562 281.710938 417.136719 281.710938 417.136719 284.316406 "/>
<path fill-rule="nonzero" fill="rgb(0%, 0%, 0%)" fill-opacity="1" stroke-width="0.708661" stroke-linecap="round" stroke-linejoin="round" stroke="rgb(0%, 0%, 0%)" stroke-opacity="1" stroke-miterlimit="10" d="M 424.007812 124.253906 C 424.007812 126.859375 420.097656 126.859375 420.097656 124.253906 C 420.097656 121.648438 424.007812 121.648438 424.007812 124.253906 "/>
<path fill-rule="nonzero" fill="rgb(0%, 0%, 0%)" fill-opacity="1" stroke-width="0.708661" stroke-linecap="round" stroke-linejoin="round" stroke="rgb(0%, 0%, 0%)" stroke-opacity="1" stroke-miterlimit="10" d="M 404.425781 231.078125 C 404.425781 233.6875 400.515625 233.6875 400.515625 231.078125 C 400.515625 228.472656 404.425781 228.472656 404.425781 231.078125 "/>
<path fill-rule="nonzero" fill="rgb(0%, 0%, 0%)" fill-opacity="1" stroke-width="0.708661" stroke-linecap="round" stroke-linejoin="round" stroke="rgb(0%, 0%, 0%)" stroke-opacity="1" stroke-miterlimit="10" d="M 410.460938 192.671875 C 410.460938 195.277344 406.550781 195.277344 406.550781 192.671875 C 406.550781 190.0625 410.460938 190.0625 410.460938 192.671875 "/>
<path fill-rule="nonzero" fill="rgb(0%, 0%, 0%)" fill-opacity="1" stroke-width="0.708661" stroke-linecap="round" stroke-linejoin="round" stroke="rgb(0%, 0%, 0%)" stroke-opacity="1" stroke-miterlimit="10" d="M 425.914062 132.375 C 425.914062 134.980469 422.003906 134.980469 422.003906 132.375 C 422.003906 129.769531 425.914062 129.769531 425.914062 132.375 "/>
<path fill-rule="nonzero" fill="rgb(0%, 0%, 0%)" fill-opacity="1" stroke-width="0.708661" stroke-linecap="round" stroke-linejoin="round" stroke="rgb(0%, 0%, 0%)" stroke-opacity="1" stroke-miterlimit="10" d="M 406.132812 152.425781 C 406.132812 155.03125 402.226562 155.03125 402.226562 152.425781 C 402.226562 149.820312 406.132812 149.820312 406.132812 152.425781 "/>
<path fill-rule="nonzero" fill="rgb(0%, 0%, 0%)" fill-opacity="1" stroke-width="0.708661" stroke-linecap="round" stroke-linejoin="round" stroke="rgb(0%, 0%, 0%)" stroke-opacity="1" stroke-miterlimit="10" d="M 407.941406 184.128906 C 407.941406 186.734375 404.03125 186.734375 404.03125 184.128906 C 404.03125 181.519531 407.941406 181.519531 407.941406 184.128906 "/>
<path fill-rule="nonzero" fill="rgb(0%, 0%, 0%)" fill-opacity="1" stroke-width="0.708661" stroke-linecap="round" stroke-linejoin="round" stroke="rgb(0%, 0%, 0%)" stroke-opacity="1" stroke-miterlimit="10" d="M 417.355469 85.421875 C 417.355469 88.027344 413.445312 88.027344 413.445312 85.421875 C 413.445312 82.816406 417.355469 82.816406 417.355469 85.421875 "/>
<path fill-rule="nonzero" fill="rgb(0%, 0%, 0%)" fill-opacity="1" stroke-width="0.708661" stroke-linecap="round" stroke-linejoin="round" stroke="rgb(0%, 0%, 0%)" stroke-opacity="1" stroke-miterlimit="10" d="M 412.546875 174.242188 C 412.546875 176.847656 408.636719 176.847656 408.636719 174.242188 C 408.636719 171.636719 412.546875 171.636719 412.546875 174.242188 "/>
<path fill-rule="nonzero" fill="rgb(0%, 0%, 0%)" fill-opacity="1" stroke-width="0.708661" stroke-linecap="round" stroke-linejoin="round" stroke="rgb(0%, 0%, 0%)" stroke-opacity="1" stroke-miterlimit="10" d="M 409.035156 232.914062 C 409.035156 235.523438 405.125 235.523438 405.125 232.914062 C 405.125 230.308594 409.035156 230.308594 409.035156 232.914062 "/>
<path fill-rule="nonzero" fill="rgb(0%, 0%, 0%)" fill-opacity="1" stroke-width="0.708661" stroke-linecap="round" stroke-linejoin="round" stroke="rgb(0%, 0%, 0%)" stroke-opacity="1" stroke-miterlimit="10" d="M 426.335938 217.664062 C 426.335938 220.269531 422.429688 220.269531 422.429688 217.664062 C 422.429688 215.058594 426.335938 215.058594 426.335938 217.664062 "/>
<path fill-rule="nonzero" fill="rgb(0%, 0%, 0%)" fill-opacity="1" stroke-width="0.708661" stroke-linecap="round" stroke-linejoin="round" stroke="rgb(0%, 0%, 0%)" stroke-opacity="1" stroke-miterlimit="10" d="M 409.875 176.148438 C 409.875 178.753906 405.964844 178.753906 405.964844 176.148438 C 405.964844 173.542969 409.875 173.542969 409.875 176.148438 "/>
<path fill-rule="nonzero" fill="rgb(0%, 0%, 0%)" fill-opacity="1" stroke-width="0.708661" stroke-linecap="round" stroke-linejoin="round" stroke="rgb(0%, 0%, 0%)" stroke-opacity="1" stroke-miterlimit="10" d="M 413.066406 133.855469 C 413.066406 136.464844 409.15625 136.464844 409.15625 133.855469 C 409.15625 131.25 413.066406 131.25 413.066406 133.855469 "/>
<path fill-rule="nonzero" fill="rgb(0%, 0%, 0%)" fill-opacity="1" stroke-width="0.708661" stroke-linecap="round" stroke-linejoin="round" stroke="rgb(0%, 0%, 0%)" stroke-opacity="1" stroke-miterlimit="10" d="M 426.445312 225.714844 C 426.445312 228.320312 422.539062 228.320312 422.539062 225.714844 C 422.539062 223.109375 426.445312 223.109375 426.445312 225.714844 "/>
<path fill-rule="nonzero" fill="rgb(0%, 0%, 0%)" fill-opacity="1" stroke-width="0.708661" stroke-linecap="round" stroke-linejoin="round" stroke="rgb(0%, 0%, 0%)" stroke-opacity="1" stroke-miterlimit="10" d="M 412.78125 237.363281 C 412.78125 239.96875 408.875 239.96875 408.875 237.363281 C 408.875 234.757812 412.78125 234.757812 412.78125 237.363281 "/>
<path fill-rule="nonzero" fill="rgb(0%, 0%, 0%)" fill-opacity="1" stroke-width="0.708661" stroke-linecap="round" stroke-linejoin="round" stroke="rgb(0%, 0%, 0%)" stroke-opacity="1" stroke-miterlimit="10" d="M 412.78125 146 C 412.78125 148.605469 408.871094 148.605469 408.871094 146 C 408.871094 143.394531 412.78125 143.394531 412.78125 146 "/>
<path fill-rule="nonzero" fill="rgb(0%, 0%, 0%)" fill-opacity="1" stroke-width="0.708661" stroke-linecap="round" stroke-linejoin="round" stroke="rgb(0%, 0%, 0%)" stroke-opacity="1" stroke-miterlimit="10" d="M 408.222656 57.53125 C 408.222656 60.140625 404.3125 60.140625 404.3125 57.53125 C 404.3125 54.925781 408.222656 54.925781 408.222656 57.53125 "/>
<path fill-rule="nonzero" fill="rgb(0%, 0%, 0%)" fill-opacity="1" stroke-width="0.708661" stroke-linecap="round" stroke-linejoin="round" stroke="rgb(0%, 0%, 0%)" stroke-opacity="1" stroke-miterlimit="10" d="M 402.171875 171.984375 C 402.171875 174.589844 398.265625 174.589844 398.265625 171.984375 C 398.265625 169.378906 402.171875 169.378906 402.171875 171.984375 "/>
<path fill-rule="nonzero" fill="rgb(0%, 0%, 0%)" fill-opacity="1" stroke-width="0.708661" stroke-linecap="round" stroke-linejoin="round" stroke="rgb(0%, 0%, 0%)" stroke-opacity="1" stroke-miterlimit="10" d="M 420.511719 92.695312 C 420.511719 95.300781 416.601562 95.300781 416.601562 92.695312 C 416.601562 90.085938 420.511719 90.085938 420.511719 92.695312 "/>
<path fill-rule="nonzero" fill="rgb(0%, 0%, 0%)" fill-opacity="1" stroke-width="0.708661" stroke-linecap="round" stroke-linejoin="round" stroke="rgb(0%, 0%, 0%)" stroke-opacity="1" stroke-miterlimit="10" d="M 401.480469 193.800781 C 401.480469 196.40625 397.570312 196.40625 397.570312 193.800781 C 397.570312 191.195312 401.480469 191.195312 401.480469 193.800781 "/>
<path fill-rule="nonzero" fill="rgb(0%, 0%, 0%)" fill-opacity="1" stroke-width="0.708661" stroke-linecap="round" stroke-linejoin="round" stroke="rgb(0%, 0%, 0%)" stroke-opacity="1" stroke-miterlimit="10" d="M 404.390625 212.300781 C 404.390625 214.90625 400.484375 214.90625 400.484375 212.300781 C 400.484375 209.691406 404.390625 209.691406 404.390625 212.300781 "/>
<path fill-rule="nonzero" fill="rgb(0%, 0%, 0%)" fill-opacity="1" stroke-width="0.708661" stroke-linecap="round" stroke-linejoin="round" stroke="rgb(0%, 0%, 0%)" stroke-opacity="1" stroke-miterlimit="10" d="M 413.207031 269.558594 C 413.207031 272.164062 409.296875 272.164062 409.296875 269.558594 C 409.296875 266.953125 413.207031 266.953125 413.207031 269.558594 "/>
<path fill-rule="nonzero" fill="rgb(0%, 0%, 0%)" fill-opacity="1" stroke-width="0.708661" stroke-linecap="round" stroke-linejoin="round" stroke="rgb(0%, 0%, 0%)" stroke-opacity="1" stroke-miterlimit="10" d="M 420.894531 193.164062 C 420.894531 195.769531 416.984375 195.769531 416.984375 193.164062 C 416.984375 190.558594 420.894531 190.558594 420.894531 193.164062 "/>
<path fill-rule="nonzero" fill="rgb(0%, 0%, 0%)" fill-opacity="1" stroke-width="0.708661" stroke-linecap="round" stroke-linejoin="round" stroke="rgb(0%, 0%, 0%)" stroke-opacity="1" stroke-miterlimit="10" d="M 422.179688 170.007812 C 422.179688 172.613281 418.269531 172.613281 418.269531 170.007812 C 418.269531 167.398438 422.179688 167.398438 422.179688 170.007812 "/>
<path fill-rule="nonzero" fill="rgb(0%, 0%, 0%)" fill-opacity="1" stroke-width="0.708661" stroke-linecap="round" stroke-linejoin="round" stroke="rgb(0%, 0%, 0%)" stroke-opacity="1" stroke-miterlimit="10" d="M 407.101562 219.429688 C 407.101562 222.035156 403.191406 222.035156 403.191406 219.429688 C 403.191406 216.824219 407.101562 216.824219 407.101562 219.429688 "/>
<path fill-rule="nonzero" fill="rgb(0%, 0%, 0%)" fill-opacity="1" stroke-width="0.708661" stroke-linecap="round" stroke-linejoin="round" stroke="rgb(0%, 0%, 0%)" stroke-opacity="1" stroke-miterlimit="10" d="M 405.386719 141.480469 C 405.386719 144.089844 401.476562 144.089844 401.476562 141.480469 C 401.476562 138.875 405.386719 138.875 405.386719 141.480469 "/>
<path fill-rule="nonzero" fill="rgb(0%, 0%, 0%)" fill-opacity="1" stroke-width="0.708661" stroke-linecap="round" stroke-linejoin="round" stroke="rgb(0%, 0%, 0%)" stroke-opacity="1" stroke-miterlimit="10" d="M 415.011719 251.910156 C 415.011719 254.515625 411.101562 254.515625 411.101562 251.910156 C 411.101562 249.300781 415.011719 249.300781 415.011719 251.910156 "/>
<path fill-rule="nonzero" fill="rgb(0%, 0%, 0%)" fill-opacity="1" stroke-width="0.708661" stroke-linecap="round" stroke-linejoin="round" stroke="rgb(0%, 0%, 0%)" stroke-opacity="1" stroke-miterlimit="10" d="M 120.414062 98.203125 C 120.414062 100.808594 116.503906 100.808594 116.503906 98.203125 C 116.503906 95.59375 120.414062 95.59375 120.414062 98.203125 "/>
<path fill-rule="nonzero" fill="rgb(0%, 0%, 0%)" fill-opacity="1" stroke-width="0.708661" stroke-linecap="round" stroke-linejoin="round" stroke="rgb(0%, 0%, 0%)" stroke-opacity="1" stroke-miterlimit="10" d="M 123.03125 153.484375 C 123.03125 156.089844 119.125 156.089844 119.125 153.484375 C 119.125 150.878906 123.03125 150.878906 123.03125 153.484375 "/>
<path fill-rule="nonzero" fill="rgb(0%, 0%, 0%)" fill-opacity="1" stroke-width="0.708661" stroke-linecap="round" stroke-linejoin="round" stroke="rgb(0%, 0%, 0%)" stroke-opacity="1" stroke-miterlimit="10" d="M 122.25 228.253906 C 122.25 230.863281 118.339844 230.863281 118.339844 228.253906 C 118.339844 225.648438 122.25 225.648438 122.25 228.253906 "/>
<path fill-rule="nonzero" fill="rgb(0%, 0%, 0%)" fill-opacity="1" stroke-width="0.708661" stroke-linecap="round" stroke-linejoin="round" stroke="rgb(0%, 0%, 0%)" stroke-opacity="1" stroke-miterlimit="10" d="M 120.867188 193.09375 C 120.867188 195.699219 116.957031 195.699219 116.957031 193.09375 C 116.957031 190.488281 120.867188 190.488281 120.867188 193.09375 "/>
<path fill-rule="nonzero" fill="rgb(0%, 0%, 0%)" fill-opacity="1" stroke-width="0.708661" stroke-linecap="round" stroke-linejoin="round" stroke="rgb(0%, 0%, 0%)" stroke-opacity="1" stroke-miterlimit="10" d="M 137.566406 304.226562 C 137.566406 306.832031 133.65625 306.832031 133.65625 304.226562 C 133.65625 301.621094 137.566406 301.621094 137.566406 304.226562 "/>
<path fill-rule="nonzero" fill="rgb(0%, 0%, 0%)" fill-opacity="1" stroke-width="0.708661" stroke-linecap="round" stroke-linejoin="round" stroke="rgb(0%, 0%, 0%)" stroke-opacity="1" stroke-miterlimit="10" d="M 130.523438 190.625 C 130.523438 193.230469 126.613281 193.230469 126.613281 190.625 C 126.613281 188.015625 130.523438 188.015625 130.523438 190.625 "/>
<path fill-rule="nonzero" fill="rgb(0%, 0%, 0%)" fill-opacity="1" stroke-width="0.708661" stroke-linecap="round" stroke-linejoin="round" stroke="rgb(0%, 0%, 0%)" stroke-opacity="1" stroke-miterlimit="10" d="M 134.964844 195.707031 C 134.964844 198.3125 131.054688 198.3125 131.054688 195.707031 C 131.054688 193.101562 134.964844 193.101562 134.964844 195.707031 "/>
<path fill-rule="nonzero" fill="rgb(0%, 0%, 0%)" fill-opacity="1" stroke-width="0.708661" stroke-linecap="round" stroke-linejoin="round" stroke="rgb(0%, 0%, 0%)" stroke-opacity="1" stroke-miterlimit="10" d="M 119.5 284.105469 C 119.5 286.710938 115.589844 286.710938 115.589844 284.105469 C 115.589844 281.496094 119.5 281.496094 119.5 284.105469 "/>
<path fill-rule="nonzero" fill="rgb(0%, 0%, 0%)" fill-opacity="1" stroke-width="0.708661" stroke-linecap="round" stroke-linejoin="round" stroke="rgb(0%, 0%, 0%)" stroke-opacity="1" stroke-miterlimit="10" d="M 109.71875 196.554688 C 109.71875 199.160156 105.808594 199.160156 105.808594 196.554688 C 105.808594 193.949219 109.71875 193.949219 109.71875 196.554688 "/>
<path fill-rule="nonzero" fill="rgb(0%, 0%, 0%)" fill-opacity="1" stroke-width="0.708661" stroke-linecap="round" stroke-linejoin="round" stroke="rgb(0%, 0%, 0%)" stroke-opacity="1" stroke-miterlimit="10" d="M 121.796875 84.433594 C 121.796875 87.039062 117.886719 87.039062 117.886719 84.433594 C 117.886719 81.828125 121.796875 81.828125 121.796875 84.433594 "/>
<path fill-rule="nonzero" fill="rgb(0%, 0%, 0%)" fill-opacity="1" stroke-width="0.708661" stroke-linecap="round" stroke-linejoin="round" stroke="rgb(0%, 0%, 0%)" stroke-opacity="1" stroke-miterlimit="10" d="M 128.351562 267.371094 C 128.351562 269.976562 124.441406 269.976562 124.441406 267.371094 C 124.441406 264.765625 128.351562 264.765625 128.351562 267.371094 "/>
<path fill-rule="nonzero" fill="rgb(0%, 0%, 0%)" fill-opacity="1" stroke-width="0.708661" stroke-linecap="round" stroke-linejoin="round" stroke="rgb(0%, 0%, 0%)" stroke-opacity="1" stroke-miterlimit="10" d="M 122.390625 223.878906 C 122.390625 226.484375 118.480469 226.484375 118.480469 223.878906 C 118.480469 221.273438 122.390625 221.273438 122.390625 223.878906 "/>
<path fill-rule="nonzero" fill="rgb(0%, 0%, 0%)" fill-opacity="1" stroke-width="0.708661" stroke-linecap="round" stroke-linejoin="round" stroke="rgb(0%, 0%, 0%)" stroke-opacity="1" stroke-miterlimit="10" d="M 136.90625 123.761719 C 136.90625 126.367188 132.996094 126.367188 132.996094 123.761719 C 132.996094 121.152344 136.90625 121.152344 136.90625 123.761719 "/>
<path fill-rule="nonzero" fill="rgb(0%, 0%, 0%)" fill-opacity="1" stroke-width="0.708661" stroke-linecap="round" stroke-linejoin="round" stroke="rgb(0%, 0%, 0%)" stroke-opacity="1" stroke-miterlimit="10" d="M 118.296875 114.230469 C 118.296875 116.835938 114.386719 116.835938 114.386719 114.230469 C 114.386719 111.621094 118.296875 111.621094 118.296875 114.230469 "/>
<path fill-rule="nonzero" fill="rgb(0%, 0%, 0%)" fill-opacity="1" stroke-width="0.708661" stroke-linecap="round" stroke-linejoin="round" stroke="rgb(0%, 0%, 0%)" stroke-opacity="1" stroke-miterlimit="10" d="M 126.664062 196.273438 C 126.664062 198.878906 122.753906 198.878906 122.753906 196.273438 C 122.753906 193.664062 126.664062 193.664062 126.664062 196.273438 "/>
<path fill-rule="nonzero" fill="rgb(0%, 0%, 0%)" fill-opacity="1" stroke-width="0.708661" stroke-linecap="round" stroke-linejoin="round" stroke="rgb(0%, 0%, 0%)" stroke-opacity="1" stroke-miterlimit="10" d="M 131.464844 167.253906 C 131.464844 169.859375 127.554688 169.859375 127.554688 167.253906 C 127.554688 164.648438 131.464844 164.648438 131.464844 167.253906 "/>
<path fill-rule="nonzero" fill="rgb(0%, 0%, 0%)" fill-opacity="1" stroke-width="0.708661" stroke-linecap="round" stroke-linejoin="round" stroke="rgb(0%, 0%, 0%)" stroke-opacity="1" stroke-miterlimit="10" d="M 128.660156 180.246094 C 128.660156 182.851562 124.753906 182.851562 124.753906 180.246094 C 124.753906 177.636719 128.660156 177.636719 128.660156 180.246094 "/>
<path fill-rule="nonzero" fill="rgb(0%, 0%, 0%)" fill-opacity="1" stroke-width="0.708661" stroke-linecap="round" stroke-linejoin="round" stroke="rgb(0%, 0%, 0%)" stroke-opacity="1" stroke-miterlimit="10" d="M 128.988281 149.179688 C 128.988281 151.785156 125.082031 151.785156 125.082031 149.179688 C 125.082031 146.570312 128.988281 146.570312 128.988281 149.179688 "/>
<path fill-rule="nonzero" fill="rgb(0%, 0%, 0%)" fill-opacity="1" stroke-width="0.708661" stroke-linecap="round" stroke-linejoin="round" stroke="rgb(0%, 0%, 0%)" stroke-opacity="1" stroke-miterlimit="10" d="M 133.320312 211.308594 C 133.320312 213.917969 129.410156 213.917969 129.410156 211.308594 C 129.410156 208.703125 133.320312 208.703125 133.320312 211.308594 "/>
<path fill-rule="nonzero" fill="rgb(0%, 0%, 0%)" fill-opacity="1" stroke-width="0.708661" stroke-linecap="round" stroke-linejoin="round" stroke="rgb(0%, 0%, 0%)" stroke-opacity="1" stroke-miterlimit="10" d="M 114.800781 202.835938 C 114.800781 205.445312 110.890625 205.445312 110.890625 202.835938 C 110.890625 200.230469 114.800781 200.230469 114.800781 202.835938 "/>
<path fill-rule="nonzero" fill="rgb(0%, 0%, 0%)" fill-opacity="1" stroke-width="0.708661" stroke-linecap="round" stroke-linejoin="round" stroke="rgb(0%, 0%, 0%)" stroke-opacity="1" stroke-miterlimit="10" d="M 134.875 222.042969 C 134.875 224.648438 130.964844 224.648438 130.964844 222.042969 C 130.964844 219.4375 134.875 219.4375 134.875 222.042969 "/>
<path fill-rule="nonzero" fill="rgb(0%, 0%, 0%)" fill-opacity="1" stroke-width="0.708661" stroke-linecap="round" stroke-linejoin="round" stroke="rgb(0%, 0%, 0%)" stroke-opacity="1" stroke-miterlimit="10" d="M 112.054688 247.105469 C 112.054688 249.714844 108.144531 249.714844 108.144531 247.105469 C 108.144531 244.5 112.054688 244.5 112.054688 247.105469 "/>
<path fill-rule="nonzero" fill="rgb(0%, 0%, 0%)" fill-opacity="1" stroke-width="0.708661" stroke-linecap="round" stroke-linejoin="round" stroke="rgb(0%, 0%, 0%)" stroke-opacity="1" stroke-miterlimit="10" d="M 137.429688 154.402344 C 137.429688 157.007812 133.519531 157.007812 133.519531 154.402344 C 133.519531 151.796875 137.429688 151.796875 137.429688 154.402344 "/>
<path fill-rule="nonzero" fill="rgb(0%, 0%, 0%)" fill-opacity="1" stroke-width="0.708661" stroke-linecap="round" stroke-linejoin="round" stroke="rgb(0%, 0%, 0%)" stroke-opacity="1" stroke-miterlimit="10" d="M 128.289062 260.734375 C 128.289062 263.339844 124.378906 263.339844 124.378906 260.734375 C 124.378906 258.128906 128.289062 258.128906 128.289062 260.734375 "/>
<path fill-rule="nonzero" fill="rgb(0%, 0%, 0%)" fill-opacity="1" stroke-width="0.708661" stroke-linecap="round" stroke-linejoin="round" stroke="rgb(0%, 0%, 0%)" stroke-opacity="1" stroke-miterlimit="10" d="M 126.121094 223.667969 C 126.121094 226.273438 122.214844 226.273438 122.214844 223.667969 C 122.214844 221.058594 126.121094 221.058594 126.121094 223.667969 "/>
<path fill-rule="nonzero" fill="rgb(0%, 0%, 0%)" fill-opacity="1" stroke-width="0.708661" stroke-linecap="round" stroke-linejoin="round" stroke="rgb(0%, 0%, 0%)" stroke-opacity="1" stroke-miterlimit="10" d="M 115.085938 311.285156 C 115.085938 313.894531 111.175781 313.894531 111.175781 311.285156 C 111.175781 308.679688 115.085938 308.679688 115.085938 311.285156 "/>
<path fill-rule="nonzero" fill="rgb(0%, 0%, 0%)" fill-opacity="1" stroke-width="0.708661" stroke-linecap="round" stroke-linejoin="round" stroke="rgb(0%, 0%, 0%)" stroke-opacity="1" stroke-miterlimit="10" d="M 123.800781 141.835938 C 123.800781 144.441406 119.890625 144.441406 119.890625 141.835938 C 119.890625 139.230469 123.800781 139.230469 123.800781 141.835938 "/>
<path fill-rule="nonzero" fill="rgb(0%, 0%, 0%)" fill-opacity="1" stroke-width="0.708661" stroke-linecap="round" stroke-linejoin="round" stroke="rgb(0%, 0%, 0%)" stroke-opacity="1" stroke-miterlimit="10" d="M 137.382812 193.941406 C 137.382812 196.546875 133.472656 196.546875 133.472656 193.941406 C 133.472656 191.335938 137.382812 191.335938 137.382812 193.941406 "/>
<path fill-rule="nonzero" fill="rgb(0%, 0%, 0%)" fill-opacity="1" stroke-width="0.708661" stroke-linecap="round" stroke-linejoin="round" stroke="rgb(0%, 0%, 0%)" stroke-opacity="1" stroke-miterlimit="10" d="M 121.316406 163.300781 C 121.316406 165.90625 117.40625 165.90625 117.40625 163.300781 C 117.40625 160.691406 121.316406 160.691406 121.316406 163.300781 "/>
<path fill-rule="nonzero" fill="rgb(0%, 0%, 0%)" fill-opacity="1" stroke-width="0.708661" stroke-linecap="round" stroke-linejoin="round" stroke="rgb(0%, 0%, 0%)" stroke-opacity="1" stroke-miterlimit="10" d="M 116.972656 201.425781 C 116.972656 204.03125 113.0625 204.03125 113.0625 201.425781 C 113.0625 198.820312 116.972656 198.820312 116.972656 201.425781 "/>
<path fill="none" stroke-width="1.066978" stroke-linecap="butt" stroke-linejoin="round" stroke="rgb(0%, 0%, 0%)" stroke-opacity="1" stroke-miterlimit="10" d="M 100.3125 185.820312 L 143.753906 185.820312 "/>
<path fill="none" stroke-width="1.066978" stroke-linecap="butt" stroke-linejoin="round" stroke="rgb(0%, 0%, 0%)" stroke-opacity="1" stroke-miterlimit="10" d="M 122.03125 185.820312 L 122.03125 206.496094 "/>
<path fill="none" stroke-width="1.066978" stroke-linecap="butt" stroke-linejoin="round" stroke="rgb(0%, 0%, 0%)" stroke-opacity="1" stroke-miterlimit="10" d="M 100.3125 206.496094 L 143.753906 206.496094 "/>
<path fill="none" stroke-width="1.066978" stroke-linecap="butt" stroke-linejoin="round" stroke="rgb(0%, 0%, 0%)" stroke-opacity="1" stroke-miterlimit="10" d="M 245.113281 138.257812 L 288.554688 138.257812 "/>
<path fill="none" stroke-width="1.066978" stroke-linecap="butt" stroke-linejoin="round" stroke="rgb(0%, 0%, 0%)" stroke-opacity="1" stroke-miterlimit="10" d="M 266.835938 138.257812 L 266.835938 159.53125 "/>
<path fill="none" stroke-width="1.066978" stroke-linecap="butt" stroke-linejoin="round" stroke="rgb(0%, 0%, 0%)" stroke-opacity="1" stroke-miterlimit="10" d="M 245.113281 159.53125 L 288.554688 159.53125 "/>
<path fill="none" stroke-width="1.066978" stroke-linecap="butt" stroke-linejoin="round" stroke="rgb(0%, 0%, 0%)" stroke-opacity="1" stroke-miterlimit="10" d="M 389.917969 169.488281 L 433.359375 169.488281 "/>
<path fill="none" stroke-width="1.066978" stroke-linecap="butt" stroke-linejoin="round" stroke="rgb(0%, 0%, 0%)" stroke-opacity="1" stroke-miterlimit="10" d="M 411.640625 169.488281 L 411.640625 189.726562 "/>
<path fill="none" stroke-width="1.066978" stroke-linecap="butt" stroke-linejoin="round" stroke="rgb(0%, 0%, 0%)" stroke-opacity="1" stroke-miterlimit="10" d="M 389.917969 189.726562 L 433.359375 189.726562 "/>
<path fill="none" stroke-width="1.066978" stroke-linecap="butt" stroke-linejoin="round" stroke="rgb(0%, 0%, 0%)" stroke-opacity="1" stroke-miterlimit="10" d="M 107.550781 196.160156 L 136.511719 196.160156 "/>
<path fill="none" stroke-width="1.066978" stroke-linecap="butt" stroke-linejoin="round" stroke="rgb(0%, 0%, 0%)" stroke-opacity="1" stroke-miterlimit="10" d="M 122.03125 196.160156 L 122.03125 196.160156 "/>
<path fill="none" stroke-width="1.066978" stroke-linecap="butt" stroke-linejoin="round" stroke="rgb(0%, 0%, 0%)" stroke-opacity="1" stroke-miterlimit="10" d="M 107.550781 196.160156 L 136.511719 196.160156 "/>
<path fill="none" stroke-width="1.066978" stroke-linecap="butt" stroke-linejoin="round" stroke="rgb(0%, 0%, 0%)" stroke-opacity="1" stroke-miterlimit="10" d="M 252.355469 148.894531 L 281.316406 148.894531 "/>
<path fill="none" stroke-width="1.066978" stroke-linecap="butt" stroke-linejoin="round" stroke="rgb(0%, 0%, 0%)" stroke-opacity="1" stroke-miterlimit="10" d="M 266.835938 148.894531 L 266.835938 148.894531 "/>
<path fill="none" stroke-width="1.066978" stroke-linecap="butt" stroke-linejoin="round" stroke="rgb(0%, 0%, 0%)" stroke-opacity="1" stroke-miterlimit="10" d="M 252.355469 148.894531 L 281.316406 148.894531 "/>
<path fill="none" stroke-width="1.066978" stroke-linecap="butt" stroke-linejoin="round" stroke="rgb(0%, 0%, 0%)" stroke-opacity="1" stroke-miterlimit="10" d="M 397.160156 179.605469 L 426.117188 179.605469 "/>
<path fill="none" stroke-width="1.066978" stroke-linecap="butt" stroke-linejoin="round" stroke="rgb(0%, 0%, 0%)" stroke-opacity="1" stroke-miterlimit="10" d="M 411.640625 179.605469 L 411.640625 179.605469 "/>
<path fill="none" stroke-width="1.066978" stroke-linecap="butt" stroke-linejoin="round" stroke="rgb(0%, 0%, 0%)" stroke-opacity="1" stroke-miterlimit="10" d="M 397.160156 179.605469 L 426.117188 179.605469 "/>
<g fill="rgb(30.196078%, 30.196078%, 30.196078%)" fill-opacity="1">
<use xlink:href="#glyph-0-0" x="20.21875" y="286.032227"/>
<use xlink:href="#glyph-0-1" x="25.21875" y="286.032227"/>
</g>
<g fill="rgb(30.196078%, 30.196078%, 30.196078%)" fill-opacity="1">
<use xlink:href="#glyph-0-2" x="20.21875" y="215.426758"/>
<use xlink:href="#glyph-0-1" x="25.21875" y="215.426758"/>
</g>
<g fill="rgb(30.196078%, 30.196078%, 30.196078%)" fill-opacity="1">
<use xlink:href="#glyph-0-3" x="20.21875" y="144.821289"/>
<use xlink:href="#glyph-0-1" x="25.21875" y="144.821289"/>
</g>
<g fill="rgb(30.196078%, 30.196078%, 30.196078%)" fill-opacity="1">
<use xlink:href="#glyph-0-4" x="20.21875" y="74.21582"/>
<use xlink:href="#glyph-0-1" x="25.21875" y="74.21582"/>
</g>
<path fill="none" stroke-width="1.066978" stroke-linecap="butt" stroke-linejoin="round" stroke="rgb(20%, 20%, 20%)" stroke-opacity="1" stroke-miterlimit="10" d="M 32.410156 283.117188 L 35.152344 283.117188 "/>
<path fill="none" stroke-width="1.066978" stroke-linecap="butt" stroke-linejoin="round" stroke="rgb(20%, 20%, 20%)" stroke-opacity="1" stroke-miterlimit="10" d="M 32.410156 212.511719 L 35.152344 212.511719 "/>
<path fill="none" stroke-width="1.066978" stroke-linecap="butt" stroke-linejoin="round" stroke="rgb(20%, 20%, 20%)" stroke-opacity="1" stroke-miterlimit="10" d="M 32.410156 141.90625 L 35.152344 141.90625 "/>
<path fill="none" stroke-width="1.066978" stroke-linecap="butt" stroke-linejoin="round" stroke="rgb(20%, 20%, 20%)" stroke-opacity="1" stroke-miterlimit="10" d="M 32.410156 71.300781 L 35.152344 71.300781 "/>
<path fill="none" stroke-width="1.066978" stroke-linecap="butt" stroke-linejoin="round" stroke="rgb(20%, 20%, 20%)" stroke-opacity="1" stroke-miterlimit="10" d="M 122.03125 328.589844 L 122.03125 325.847656 "/>
<path fill="none" stroke-width="1.066978" stroke-linecap="butt" stroke-linejoin="round" stroke="rgb(20%, 20%, 20%)" stroke-opacity="1" stroke-miterlimit="10" d="M 266.835938 328.589844 L 266.835938 325.847656 "/>
<path fill="none" stroke-width="1.066978" stroke-linecap="butt" stroke-linejoin="round" stroke="rgb(20%, 20%, 20%)" stroke-opacity="1" stroke-miterlimit="10" d="M 411.640625 328.589844 L 411.640625 325.847656 "/>
<g fill="rgb(30.196078%, 30.196078%, 30.196078%)" fill-opacity="1">
<use xlink:href="#glyph-0-5" x="87.03125" y="337.196289"/>
<use xlink:href="#glyph-0-6" x="93.03125" y="337.196289"/>
<use xlink:href="#glyph-0-7" x="95.03125" y="337.196289"/>
<use xlink:href="#glyph-0-8" x="100.03125" y="337.196289"/>
<use xlink:href="#glyph-0-8" x="105.03125" y="337.196289"/>
<use xlink:href="#glyph-0-9" x="110.03125" y="337.196289"/>
<use xlink:href="#glyph-0-10" x="115.03125" y="337.196289"/>
<use xlink:href="#glyph-0-11" x="118.03125" y="337.196289"/>
<use xlink:href="#glyph-0-12" x="123.03125" y="337.196289"/>
<use xlink:href="#glyph-0-13" x="128.03125" y="337.196289"/>
<use xlink:href="#glyph-0-9" x="132.03125" y="337.196289"/>
<use xlink:href="#glyph-0-14" x="137.03125" y="337.196289"/>
<use xlink:href="#glyph-0-15" x="139.03125" y="337.196289"/>
<use xlink:href="#glyph-0-9" x="145.03125" y="337.196289"/>
<use xlink:href="#glyph-0-7" x="150.03125" y="337.196289"/>
<use xlink:href="#glyph-0-6" x="155.03125" y="337.196289"/>
</g>
<g fill="rgb(30.196078%, 30.196078%, 30.196078%)" fill-opacity="1">
<use xlink:href="#glyph-0-16" x="240.835938" y="337.196289"/>
<use xlink:href="#glyph-0-7" x="246.835938" y="337.196289"/>
<use xlink:href="#glyph-0-10" x="251.835938" y="337.196289"/>
<use xlink:href="#glyph-0-17" x="254.835938" y="337.196289"/>
<use xlink:href="#glyph-0-12" x="259.835938" y="337.196289"/>
<use xlink:href="#glyph-0-18" x="264.835938" y="337.196289"/>
<use xlink:href="#glyph-0-10" x="269.835938" y="337.196289"/>
<use xlink:href="#glyph-0-14" x="272.835938" y="337.196289"/>
<use xlink:href="#glyph-0-15" x="274.835938" y="337.196289"/>
<use xlink:href="#glyph-0-9" x="280.835938" y="337.196289"/>
<use xlink:href="#glyph-0-7" x="285.835938" y="337.196289"/>
<use xlink:href="#glyph-0-6" x="290.835938" y="337.196289"/>
</g>
<g fill="rgb(30.196078%, 30.196078%, 30.196078%)" fill-opacity="1">
<use xlink:href="#glyph-0-19" x="385.640625" y="337.196289"/>
<use xlink:href="#glyph-0-9" x="393.640625" y="337.196289"/>
<use xlink:href="#glyph-0-8" x="398.640625" y="337.196289"/>
<use xlink:href="#glyph-0-8" x="403.640625" y="337.196289"/>
<use xlink:href="#glyph-0-9" x="408.640625" y="337.196289"/>
<use xlink:href="#glyph-0-6" x="413.640625" y="337.196289"/>
<use xlink:href="#glyph-0-6" x="415.640625" y="337.196289"/>
<use xlink:href="#glyph-0-14" x="417.640625" y="337.196289"/>
<use xlink:href="#glyph-0-15" x="419.640625" y="337.196289"/>
<use xlink:href="#glyph-0-9" x="425.640625" y="337.196289"/>
<use xlink:href="#glyph-0-7" x="430.640625" y="337.196289"/>
<use xlink:href="#glyph-0-6" x="435.640625" y="337.196289"/>
</g>
<g fill="rgb(0%, 0%, 0%)" fill-opacity="1">
<use xlink:href="#glyph-1-0" x="247.835938" y="350.538086"/>
<use xlink:href="#glyph-1-1" x="253.835938" y="350.538086"/>
<use xlink:href="#glyph-1-2" x="259.835938" y="350.538086"/>
<use xlink:href="#glyph-1-3" x="265.835938" y="350.538086"/>
<use xlink:href="#glyph-1-4" x="271.835938" y="350.538086"/>
<use xlink:href="#glyph-1-2" x="273.835938" y="350.538086"/>
<use xlink:href="#glyph-1-0" x="279.835938" y="350.538086"/>
</g>
<g fill="rgb(0%, 0%, 0%)" fill-opacity="1">
<use xlink:href="#glyph-2-0" x="13.499023" y="189.664062"/>
<use xlink:href="#glyph-2-1" x="13.499023" y="180.664062"/>
<use xlink:href="#glyph-2-2" x="13.499023" y="175.664062"/>
<use xlink:href="#glyph-2-3" x="13.499023" y="169.664062"/>
<use xlink:href="#glyph-2-4" x="13.499023" y="163.664062"/>
<use xlink:href="#glyph-2-2" x="13.499023" y="161.664062"/>
<use xlink:href="#glyph-2-5" x="13.499023" y="155.664062"/>
<use xlink:href="#glyph-2-6" x="13.499023" y="149.664062"/>
<use xlink:href="#glyph-2-7" x="13.499023" y="147.664062"/>
</g>
</svg>
