<?xml version="1.0" encoding="UTF-8"?>
<svg xmlns="http://www.w3.org/2000/svg" xmlns:xlink="http://www.w3.org/1999/xlink" width="504pt" height="360pt" viewBox="0 0 504 360">
<defs>
<g>
<g id="glyph-0-0">
<path d="M 2.421875 -6.359375 C 1.84375 -6.359375 1.3125 -6.09375 0.984375 -5.671875 C 0.578125 -5.109375 0.375 -4.25 0.375 -3.078125 C 0.375 -0.9375 1.078125 0.203125 2.421875 0.203125 C 3.734375 0.203125 4.453125 -0.9375 4.453125 -3.03125 C 4.453125 -4.25 4.265625 -5.078125 3.859375 -5.671875 C 3.53125 -6.109375 3.015625 -6.359375 2.421875 -6.359375 Z M 2.421875 -5.671875 C 3.25 -5.671875 3.671875 -4.828125 3.671875 -3.09375 C 3.671875 -1.28125 3.265625 -0.4375 2.40625 -0.4375 C 1.578125 -0.4375 1.171875 -1.3125 1.171875 -3.0625 C 1.171875 -4.828125 1.578125 -5.671875 2.421875 -5.671875 Z M 2.421875 -5.671875 "/>
</g>
<g id="glyph-0-1">
<path d="M 4.453125 -0.765625 L 1.171875 -0.765625 C 1.25 -1.296875 1.53125 -1.625 2.296875 -2.09375 L 3.171875 -2.59375 C 4.046875 -3.0625 4.5 -3.71875 4.5 -4.5 C 4.5 -5.03125 4.28125 -5.53125 3.921875 -5.875 C 3.546875 -6.203125 3.09375 -6.359375 2.5 -6.359375 C 1.703125 -6.359375 1.125 -6.078125 0.78125 -5.53125 C 0.546875 -5.203125 0.453125 -4.796875 0.4375 -4.15625 L 1.21875 -4.15625 C 1.234375 -4.59375 1.296875 -4.84375 1.40625 -5.0625 C 1.59375 -5.4375 2 -5.6875 2.46875 -5.6875 C 3.171875 -5.6875 3.703125 -5.171875 3.703125 -4.484375 C 3.703125 -3.96875 3.40625 -3.53125 2.859375 -3.21875 L 2.046875 -2.75 C 0.75 -2 0.375 -1.40625 0.296875 -0.015625 L 4.453125 -0.015625 Z M 4.453125 -0.765625 "/>
</g>
<g id="glyph-0-2">
<path d="M 2.875 -1.546875 L 2.875 0 L 3.65625 0 L 3.65625 -1.546875 L 4.578125 -1.546875 L 4.578125 -2.234375 L 3.65625 -2.234375 L 3.65625 -6.359375 L 3.078125 -6.359375 L 0.25 -2.359375 L 0.25 -1.546875 Z M 2.875 -2.234375 L 0.921875 -2.234375 L 2.875 -5.046875 Z M 2.875 -2.234375 "/>
</g>
<g id="glyph-0-3">
<path d="M 4.375 -4.703125 C 4.234375 -5.75 3.5625 -6.359375 2.609375 -6.359375 C 1.921875 -6.359375 1.3125 -6.03125 0.9375 -5.453125 C 0.546875 -4.828125 0.375 -4.0625 0.375 -2.90625 C 0.375 -1.828125 0.53125 -1.15625 0.90625 -0.59375 C 1.234375 -0.078125 1.78125 0.203125 2.46875 0.203125 C 3.65625 0.203125 4.515625 -0.6875 4.515625 -1.921875 C 4.515625 -3.09375 3.71875 -3.921875 2.609375 -3.921875 C 1.984375 -3.921875 1.5 -3.6875 1.171875 -3.234375 C 1.171875 -4.796875 1.671875 -5.671875 2.5625 -5.671875 C 3.109375 -5.671875 3.484375 -5.328125 3.609375 -4.703125 Z M 2.5 -3.234375 C 3.25 -3.234375 3.71875 -2.703125 3.71875 -1.859375 C 3.71875 -1.0625 3.1875 -0.484375 2.484375 -0.484375 C 1.765625 -0.484375 1.21875 -1.09375 1.21875 -1.90625 C 1.21875 -2.6875 1.734375 -3.234375 2.5 -3.234375 Z M 2.5 -3.234375 "/>
</g>
<g id="glyph-0-4">
<path d="M 3.4375 -3.359375 C 4.09375 -3.75 4.296875 -4.0625 4.296875 -4.65625 C 4.296875 -5.671875 3.53125 -6.359375 2.421875 -6.359375 C 1.3125 -6.359375 0.546875 -5.671875 0.546875 -4.671875 C 0.546875 -4.0625 0.75 -3.75 1.390625 -3.359375 C 0.671875 -2.984375 0.328125 -2.46875 0.328125 -1.765625 C 0.328125 -0.609375 1.171875 0.203125 2.421875 0.203125 C 3.65625 0.203125 4.515625 -0.609375 4.515625 -1.765625 C 4.515625 -2.46875 4.15625 -2.984375 3.4375 -3.359375 Z M 2.421875 -5.671875 C 3.078125 -5.671875 3.5 -5.28125 3.5 -4.640625 C 3.5 -4.046875 3.0625 -3.65625 2.421875 -3.65625 C 1.765625 -3.65625 1.34375 -4.046875 1.34375 -4.65625 C 1.34375 -5.28125 1.765625 -5.671875 2.421875 -5.671875 Z M 2.421875 -3 C 3.1875 -3 3.71875 -2.484375 3.71875 -1.75 C 3.71875 -0.984375 3.203125 -0.484375 2.40625 -0.484375 C 1.640625 -0.484375 1.125 -1 1.125 -1.734375 C 1.125 -2.5 1.640625 -3 2.421875 -3 Z M 2.421875 -3 "/>
</g>
<g id="glyph-0-5">
<path d="M 0.6875 0 L 3.59375 0 C 4.203125 0 4.640625 -0.171875 4.984375 -0.53125 C 5.296875 -0.875 5.484375 -1.328125 5.484375 -1.828125 C 5.484375 -2.609375 5.125 -3.0625 4.3125 -3.390625 C 4.90625 -3.65625 5.203125 -4.125 5.203125 -4.78125 C 5.203125 -5.265625 5.015625 -5.671875 4.6875 -5.96875 C 4.34375 -6.265625 3.921875 -6.40625 3.296875 -6.40625 L 0.6875 -6.40625 Z M 1.515625 -3.65625 L 1.515625 -5.6875 L 3.09375 -5.6875 C 3.546875 -5.6875 3.8125 -5.625 4.03125 -5.46875 C 4.25 -5.28125 4.375 -5.015625 4.375 -4.671875 C 4.375 -4.3125 4.25 -4.0625 4.03125 -3.875 C 3.8125 -3.71875 3.546875 -3.65625 3.09375 -3.65625 Z M 1.515625 -0.71875 L 1.515625 -2.921875 L 3.515625 -2.921875 C 4.234375 -2.921875 4.65625 -2.515625 4.65625 -1.828125 C 4.65625 -1.140625 4.234375 -0.71875 3.515625 -0.71875 Z M 1.515625 -0.71875 "/>
</g>
<g id="glyph-0-6">
<path d="M 1.34375 -6.40625 L 0.59375 -6.40625 L 0.59375 0 L 1.34375 0 Z M 1.34375 -6.40625 "/>
</g>
<g id="glyph-0-7">
<path d="M 4.703125 -0.4375 C 4.625 -0.40625 4.59375 -0.40625 4.546875 -0.40625 C 4.296875 -0.40625 4.15625 -0.546875 4.15625 -0.78125 L 4.15625 -3.484375 C 4.15625 -4.296875 3.546875 -4.734375 2.421875 -4.734375 C 1.734375 -4.734375 1.203125 -4.546875 0.890625 -4.203125 C 0.671875 -3.96875 0.59375 -3.703125 0.578125 -3.25 L 1.3125 -3.25 C 1.375 -3.8125 1.703125 -4.0625 2.390625 -4.0625 C 3.0625 -4.0625 3.421875 -3.8125 3.421875 -3.375 L 3.421875 -3.1875 C 3.40625 -2.875 3.25 -2.75 2.65625 -2.671875 C 1.625 -2.546875 1.453125 -2.5 1.171875 -2.390625 C 0.640625 -2.15625 0.375 -1.765625 0.375 -1.15625 C 0.375 -0.328125 0.953125 0.203125 1.875 0.203125 C 2.46875 0.203125 2.921875 0 3.453125 -0.46875 C 3.5 0 3.734375 0.203125 4.203125 0.203125 C 4.359375 0.203125 4.453125 0.1875 4.703125 0.125 Z M 3.421875 -1.453125 C 3.421875 -1.203125 3.359375 -1.0625 3.125 -0.859375 C 2.828125 -0.578125 2.46875 -0.4375 2.046875 -0.4375 C 1.46875 -0.4375 1.140625 -0.71875 1.140625 -1.171875 C 1.140625 -1.65625 1.453125 -1.90625 2.25 -2.015625 C 3.03125 -2.125 3.171875 -2.15625 3.421875 -2.28125 Z M 3.421875 -1.453125 "/>
</g>
<g id="glyph-0-8">
<path d="M 4.359375 -6.40625 L 3.625 -6.40625 L 3.625 -4.03125 C 3.3125 -4.5 2.828125 -4.734375 2.203125 -4.734375 C 1.015625 -4.734375 0.234375 -3.78125 0.234375 -2.3125 C 0.234375 -0.75 0.984375 0.203125 2.234375 0.203125 C 2.875 0.203125 3.3125 -0.03125 3.703125 -0.609375 L 3.703125 0 L 4.359375 0 Z M 2.328125 -4.0625 C 3.125 -4.0625 3.625 -3.359375 3.625 -2.25 C 3.625 -1.1875 3.109375 -0.484375 2.34375 -0.484375 C 1.53125 -0.484375 1 -1.203125 1 -2.265625 C 1 -3.34375 1.53125 -4.0625 2.328125 -4.0625 Z M 2.328125 -4.0625 "/>
</g>
<g id="glyph-0-9">
<path d="M 4.515625 -2.0625 C 4.515625 -2.765625 4.453125 -3.1875 4.328125 -3.53125 C 4.03125 -4.28125 3.328125 -4.734375 2.46875 -4.734375 C 1.171875 -4.734375 0.359375 -3.765625 0.359375 -2.25 C 0.359375 -0.71875 1.140625 0.203125 2.453125 0.203125 C 3.5 0.203125 4.234375 -0.390625 4.421875 -1.40625 L 3.671875 -1.40625 C 3.46875 -0.796875 3.0625 -0.46875 2.46875 -0.46875 C 2 -0.46875 1.609375 -0.6875 1.359375 -1.078125 C 1.1875 -1.34375 1.125 -1.59375 1.125 -2.0625 Z M 1.140625 -2.65625 C 1.203125 -3.515625 1.71875 -4.0625 2.453125 -4.0625 C 3.203125 -4.0625 3.71875 -3.484375 3.71875 -2.65625 Z M 1.140625 -2.65625 "/>
</g>
<g id="glyph-0-10">
<path d="M 0.609375 -4.609375 L 0.609375 0 L 1.34375 0 L 1.34375 -2.390625 C 1.359375 -3.5 1.8125 -4 2.828125 -3.96875 L 2.828125 -4.71875 C 2.703125 -4.734375 2.625 -4.734375 2.546875 -4.734375 C 2.0625 -4.734375 1.703125 -4.453125 1.28125 -3.78125 L 1.28125 -4.609375 Z M 0.609375 -4.609375 "/>
</g>
<g id="glyph-0-11">
<path d="M 0.609375 -4.609375 L 0.609375 0 L 1.359375 0 L 1.359375 -2.546875 C 1.359375 -3.484375 1.84375 -4.09375 2.609375 -4.09375 C 3.1875 -4.09375 3.546875 -3.75 3.546875 -3.1875 L 3.546875 0 L 4.28125 0 L 4.28125 -3.484375 C 4.28125 -4.25 3.71875 -4.734375 2.828125 -4.734375 C 2.140625 -4.734375 1.703125 -4.484375 1.296875 -3.828125 L 1.296875 -4.609375 Z M 0.609375 -4.609375 "/>
</g>
<g id="glyph-0-12">
<path d="M 2.390625 -4.734375 C 1.09375 -4.734375 0.3125 -3.8125 0.3125 -2.265625 C 0.3125 -0.71875 1.09375 0.203125 2.40625 0.203125 C 3.703125 0.203125 4.484375 -0.71875 4.484375 -2.234375 C 4.484375 -3.828125 3.734375 -4.734375 2.390625 -4.734375 Z M 2.40625 -4.0625 C 3.234375 -4.0625 3.71875 -3.390625 3.71875 -2.25 C 3.71875 -1.15625 3.203125 -0.46875 2.40625 -0.46875 C 1.578125 -0.46875 1.078125 -1.15625 1.078125 -2.265625 C 1.078125 -3.390625 1.578125 -4.0625 2.40625 -4.0625 Z M 2.40625 -4.0625 "/>
</g>
<g id="glyph-0-13">
<path d="M 3.859375 -3.328125 C 3.84375 -4.234375 3.25 -4.734375 2.1875 -4.734375 C 1.109375 -4.734375 0.40625 -4.1875 0.40625 -3.328125 C 0.40625 -2.609375 0.78125 -2.265625 1.875 -2 L 2.5625 -1.84375 C 3.0625 -1.71875 3.265625 -1.53125 3.265625 -1.203125 C 3.265625 -0.765625 2.84375 -0.46875 2.203125 -0.46875 C 1.796875 -0.46875 1.46875 -0.59375 1.28125 -0.78125 C 1.171875 -0.921875 1.125 -1.046875 1.078125 -1.375 L 0.296875 -1.375 C 0.328125 -0.3125 0.9375 0.203125 2.140625 0.203125 C 3.296875 0.203125 4.03125 -0.375 4.03125 -1.265625 C 4.03125 -1.9375 3.65625 -2.328125 2.734375 -2.546875 L 2.03125 -2.703125 C 1.4375 -2.84375 1.171875 -3.046875 1.171875 -3.375 C 1.171875 -3.796875 1.5625 -4.0625 2.15625 -4.0625 C 2.75 -4.0625 3.0625 -3.8125 3.078125 -3.328125 Z M 3.859375 -3.328125 "/>
</g>
<g id="glyph-0-14">
</g>
<g id="glyph-0-15">
<path d="M 5.25 -4.53125 C 5.25 -4.96875 5.21875 -5.09375 5.078125 -5.390625 C 4.71875 -6.125 3.96875 -6.515625 2.890625 -6.515625 C 1.484375 -6.515625 0.609375 -5.796875 0.609375 -4.640625 C 0.609375 -3.859375 1.03125 -3.359375 1.875 -3.140625 L 3.46875 -2.71875 C 4.28125 -2.5 4.640625 -2.1875 4.640625 -1.6875 C 4.640625 -1.34375 4.453125 -0.984375 4.1875 -0.796875 C 3.9375 -0.609375 3.53125 -0.515625 3.015625 -0.515625 C 2.3125 -0.515625 1.84375 -0.6875 1.53125 -1.0625 C 1.296875 -1.34375 1.1875 -1.640625 1.203125 -2.046875 L 0.421875 -2.046875 C 0.4375 -1.453125 0.546875 -1.0625 0.796875 -0.71875 C 1.234375 -0.109375 1.984375 0.203125 2.953125 0.203125 C 3.71875 0.203125 4.34375 0.03125 4.765625 -0.296875 C 5.1875 -0.640625 5.46875 -1.203125 5.46875 -1.765625 C 5.46875 -2.546875 4.96875 -3.125 4.09375 -3.375 L 2.484375 -3.796875 C 1.71875 -4.015625 1.4375 -4.25 1.4375 -4.75 C 1.4375 -5.40625 2 -5.828125 2.875 -5.828125 C 3.890625 -5.828125 4.453125 -5.375 4.46875 -4.53125 Z M 5.25 -4.53125 "/>
</g>
<g id="glyph-0-16">
<path d="M 4.84375 -2.921875 L 4.84375 0 L 5.671875 0 L 5.671875 -6.40625 L 4.84375 -6.40625 L 4.84375 -3.640625 L 1.546875 -3.640625 L 1.546875 -6.40625 L 0.734375 -6.40625 L 0.734375 0 L 1.546875 0 L 1.546875 -2.921875 Z M 4.84375 -2.921875 "/>
</g>
<g id="glyph-0-17">
<path d="M 0.46875 -6.40625 L 0.46875 0 L 1.140625 0 L 1.140625 -0.59375 C 1.484375 -0.046875 1.953125 0.203125 2.59375 0.203125 C 3.8125 0.203125 4.59375 -0.796875 4.59375 -2.328125 C 4.59375 -3.8125 3.859375 -4.734375 2.625 -4.734375 C 2 -4.734375 1.546875 -4.5 1.203125 -3.984375 L 1.203125 -6.40625 Z M 2.484375 -4.0625 C 3.3125 -4.0625 3.828125 -3.34375 3.828125 -2.25 C 3.828125 -1.203125 3.296875 -0.484375 2.484375 -0.484375 C 1.703125 -0.484375 1.203125 -1.1875 1.203125 -2.265625 C 1.203125 -3.359375 1.703125 -4.0625 2.484375 -4.0625 Z M 2.484375 -4.0625 "/>
</g>
<g id="glyph-0-18">
<path d="M 4.234375 0 L 4.234375 -4.609375 L 3.515625 -4.609375 L 3.515625 -2 C 3.515625 -1.0625 3.015625 -0.4375 2.25 -0.4375 C 1.671875 -0.4375 1.296875 -0.796875 1.296875 -1.34375 L 1.296875 -4.609375 L 0.578125 -4.609375 L 0.578125 -1.0625 C 0.578125 -0.296875 1.140625 0.203125 2.046875 0.203125 C 2.71875 0.203125 3.15625 -0.03125 3.578125 -0.640625 L 3.578125 0 Z M 4.234375 0 "/>
</g>
<g id="glyph-0-19">
<path d="M 6.546875 0 L 8.171875 -6.40625 L 7.25 -6.40625 L 6.078125 -1.203125 L 4.625 -6.40625 L 3.734375 -6.40625 L 2.3125 -1.203125 L 1.109375 -6.40625 L 0.1875 -6.40625 L 1.84375 0 L 2.734375 0 L 4.171875 -5.265625 L 5.640625 0 Z M 6.546875 0 "/>
</g>
<g id="glyph-1-0">
<path d="M 6.5625 -5.671875 C 6.5625 -6.21875 6.515625 -6.375 6.34375 -6.75 C 5.90625 -7.671875 4.96875 -8.15625 3.625 -8.15625 C 1.859375 -8.15625 0.765625 -7.25 0.765625 -5.796875 C 0.765625 -4.8125 1.28125 -4.203125 2.34375 -3.921875 L 4.328125 -3.40625 C 5.359375 -3.140625 5.8125 -2.734375 5.8125 -2.09375 C 5.8125 -1.671875 5.578125 -1.234375 5.234375 -0.984375 C 4.921875 -0.765625 4.40625 -0.65625 3.765625 -0.65625 C 2.875 -0.65625 2.296875 -0.859375 1.90625 -1.3125 C 1.609375 -1.671875 1.484375 -2.0625 1.5 -2.546875 L 0.53125 -2.546875 C 0.53125 -1.8125 0.6875 -1.328125 1 -0.890625 C 1.546875 -0.125 2.46875 0.25 3.703125 0.25 C 4.65625 0.25 5.4375 0.03125 5.953125 -0.359375 C 6.484375 -0.796875 6.828125 -1.5 6.828125 -2.203125 C 6.828125 -3.1875 6.21875 -3.921875 5.125 -4.21875 L 3.109375 -4.75 C 2.140625 -5.015625 1.796875 -5.328125 1.796875 -5.9375 C 1.796875 -6.75 2.515625 -7.296875 3.59375 -7.296875 C 4.859375 -7.296875 5.578125 -6.71875 5.59375 -5.671875 Z M 6.5625 -5.671875 "/>
</g>
<g id="glyph-1-1">
<path d="M 0.59375 2.390625 L 1.515625 2.390625 L 1.515625 -0.609375 C 2 -0.015625 2.546875 0.25 3.28125 0.25 C 4.78125 0.25 5.75 -0.953125 5.75 -2.78125 C 5.75 -4.71875 4.8125 -5.921875 3.28125 -5.921875 C 2.5 -5.921875 1.875 -5.578125 1.4375 -4.890625 L 1.4375 -5.765625 L 0.59375 -5.765625 Z M 3.125 -5.078125 C 4.140625 -5.078125 4.796875 -4.1875 4.796875 -2.8125 C 4.796875 -1.5 4.125 -0.609375 3.125 -0.609375 C 2.140625 -0.609375 1.515625 -1.484375 1.515625 -2.84375 C 1.515625 -4.1875 2.140625 -5.078125 3.125 -5.078125 Z M 3.125 -5.078125 "/>
</g>
<g id="glyph-1-2">
<path d="M 5.640625 -2.578125 C 5.640625 -3.453125 5.578125 -3.984375 5.40625 -4.40625 C 5.03125 -5.359375 4.15625 -5.921875 3.078125 -5.921875 C 1.46875 -5.921875 0.4375 -4.703125 0.4375 -2.8125 C 0.4375 -0.90625 1.4375 0.25 3.0625 0.25 C 4.375 0.25 5.296875 -0.5 5.515625 -1.75 L 4.59375 -1.75 C 4.34375 -0.984375 3.828125 -0.59375 3.09375 -0.59375 C 2.515625 -0.59375 2.015625 -0.859375 1.703125 -1.34375 C 1.484375 -1.671875 1.40625 -2 1.390625 -2.578125 Z M 1.421875 -3.328125 C 1.5 -4.390625 2.140625 -5.078125 3.0625 -5.078125 C 4 -5.078125 4.65625 -4.359375 4.65625 -3.328125 Z M 1.421875 -3.328125 "/>
</g>
<g id="glyph-1-3">
<path d="M 5.1875 -3.828125 C 5.140625 -4.390625 5.015625 -4.75 4.796875 -5.078125 C 4.40625 -5.609375 3.703125 -5.921875 2.90625 -5.921875 C 1.34375 -5.921875 0.34375 -4.703125 0.34375 -2.78125 C 0.34375 -0.921875 1.328125 0.25 2.890625 0.25 C 4.265625 0.25 5.140625 -0.578125 5.25 -1.984375 L 4.328125 -1.984375 C 4.171875 -1.0625 3.703125 -0.59375 2.921875 -0.59375 C 1.90625 -0.59375 1.296875 -1.421875 1.296875 -2.78125 C 1.296875 -4.21875 1.890625 -5.078125 2.890625 -5.078125 C 3.65625 -5.078125 4.140625 -4.625 4.25 -3.828125 Z M 5.1875 -3.828125 "/>
</g>
<g id="glyph-1-4">
<path d="M 1.65625 -5.765625 L 0.734375 -5.765625 L 0.734375 0 L 1.65625 0 Z M 1.65625 -8.015625 L 0.71875 -8.015625 L 0.71875 -6.859375 L 1.65625 -6.859375 Z M 1.65625 -8.015625 "/>
</g>
<g id="glyph-1-5">
<path d="M 4.8125 -4.15625 C 4.8125 -5.296875 4.0625 -5.921875 2.734375 -5.921875 C 1.390625 -5.921875 0.515625 -5.234375 0.515625 -4.171875 C 0.515625 -3.265625 0.984375 -2.84375 2.34375 -2.515625 L 3.203125 -2.296875 C 3.84375 -2.140625 4.09375 -1.90625 4.09375 -1.5 C 4.09375 -0.953125 3.546875 -0.59375 2.75 -0.59375 C 2.25 -0.59375 1.84375 -0.734375 1.609375 -0.984375 C 1.46875 -1.140625 1.390625 -1.3125 1.34375 -1.71875 L 0.375 -1.71875 C 0.421875 -0.390625 1.171875 0.25 2.671875 0.25 C 4.125 0.25 5.046875 -0.46875 5.046875 -1.578125 C 5.046875 -2.4375 4.5625 -2.90625 3.421875 -3.171875 L 2.546875 -3.390625 C 1.796875 -3.5625 1.46875 -3.8125 1.46875 -4.21875 C 1.46875 -4.75 1.953125 -5.078125 2.6875 -5.078125 C 3.4375 -5.078125 3.828125 -4.765625 3.84375 -4.15625 Z M 4.8125 -4.15625 "/>
</g>
<g id="glyph-2-0">
<path d="M 0 -5.140625 L -6.71875 -7.40625 L 0 -7.40625 L 0 -8.375 L -8.015625 -8.375 L -8.015625 -6.953125 L -1.03125 -4.625 L -8.015625 -2.25 L -8.015625 -0.828125 L 0 -0.828125 L 0 -1.796875 L -6.71875 -1.796875 L 0 -4.0625 Z M 0 -5.140625 "/>
</g>
<g id="glyph-2-1">
<path d="M -5.765625 -4.265625 L -1.28125 -2.671875 L -5.765625 -1.203125 L -5.765625 -0.21875 L 0.015625 -2.171875 L 0.9375 -1.8125 C 1.34375 -1.65625 1.5 -1.46875 1.5 -1.078125 C 1.5 -0.921875 1.46875 -0.796875 1.4375 -0.59375 L 2.25 -0.59375 C 2.359375 -0.78125 2.390625 -0.96875 2.390625 -1.203125 C 2.390625 -1.5 2.296875 -1.828125 2.125 -2.0625 C 1.90625 -2.359375 1.671875 -2.515625 1.203125 -2.6875 L -5.765625 -5.265625 Z M -5.765625 -4.265625 "/>
</g>
<g id="glyph-2-2">
<path d="M -5.921875 -2.984375 C -5.921875 -1.359375 -4.78125 -0.390625 -2.84375 -0.390625 C -0.890625 -0.390625 0.25 -1.359375 0.25 -3 C 0.25 -4.625 -0.90625 -5.609375 -2.796875 -5.609375 C -4.796875 -5.609375 -5.921875 -4.65625 -5.921875 -2.984375 Z M -5.078125 -3 C -5.078125 -4.03125 -4.234375 -4.65625 -2.8125 -4.65625 C -1.4375 -4.65625 -0.59375 -4.015625 -0.59375 -3 C -0.59375 -1.984375 -1.4375 -1.359375 -2.84375 -1.359375 C -4.234375 -1.359375 -5.078125 -1.984375 -5.078125 -3 Z M -5.078125 -3 "/>
</g>
<g id="glyph-2-3">
<path d="M -5.765625 -4.4375 L -4.921875 -4.4375 C -5.625 -3.984375 -5.921875 -3.46875 -5.921875 -2.75 C -5.921875 -1.359375 -4.625 -0.390625 -2.78125 -0.390625 C -1.8125 -0.390625 -1.109375 -0.609375 -0.53125 -1.109375 C -0.015625 -1.546875 0.25 -2.09375 0.25 -2.6875 C 0.25 -3.375 -0.0625 -3.875 -0.78125 -4.359375 L -0.484375 -4.359375 C 1.0625 -4.359375 1.625 -3.921875 1.625 -2.78125 C 1.625 -2 1.3125 -1.59375 0.65625 -1.5 L 0.65625 -0.578125 C 1.734375 -0.65625 2.390625 -1.5 2.390625 -2.765625 C 2.390625 -3.609375 2.125 -4.3125 1.65625 -4.6875 C 1.125 -5.125 0.40625 -5.296875 -0.953125 -5.296875 L -5.765625 -5.296875 Z M -5.078125 -2.84375 C -5.078125 -3.8125 -4.265625 -4.359375 -2.8125 -4.359375 C -1.40625 -4.359375 -0.59375 -3.796875 -0.59375 -2.84375 C -0.59375 -1.890625 -1.421875 -1.34375 -2.84375 -1.34375 C -4.25 -1.34375 -5.078125 -1.890625 -5.078125 -2.84375 Z M -5.078125 -2.84375 "/>
</g>
<g id="glyph-2-4">
<path d="M -8.015625 -1.671875 L -8.015625 -0.75 L 0 -0.75 L 0 -1.671875 Z M -8.015625 -1.671875 "/>
</g>
<g id="glyph-2-5">
<path d="M -8.015625 -0.59375 L 0 -0.59375 L 0 -1.421875 L -0.734375 -1.421875 C -0.0625 -1.859375 0.25 -2.4375 0.25 -3.25 C 0.25 -4.765625 -0.984375 -5.75 -2.90625 -5.75 C -4.78125 -5.75 -5.921875 -4.8125 -5.921875 -3.28125 C -5.921875 -2.5 -5.625 -1.9375 -4.984375 -1.5 L -8.015625 -1.5 Z M -5.078125 -3.109375 C -5.078125 -4.140625 -4.1875 -4.796875 -2.8125 -4.796875 C -1.5 -4.796875 -0.609375 -4.109375 -0.609375 -3.109375 C -0.609375 -2.140625 -1.484375 -1.5 -2.84375 -1.5 C -4.1875 -1.5 -5.078125 -2.140625 -5.078125 -3.109375 Z M -5.078125 -3.109375 "/>
</g>
<g id="glyph-2-6">
<path d="M -5.765625 -1.65625 L -5.765625 -0.734375 L 0 -0.734375 L 0 -1.65625 Z M -8.015625 -1.65625 L -8.015625 -0.71875 L -6.859375 -0.71875 L -6.859375 -1.65625 Z M -8.015625 -1.65625 "/>
</g>
<g id="glyph-2-7">
<path d="M -5.765625 -0.765625 L 0 -0.765625 L 0 -1.6875 L -3.171875 -1.6875 C -4.359375 -1.6875 -5.125 -2.3125 -5.125 -3.25 C -5.125 -3.984375 -4.6875 -4.4375 -4 -4.4375 L 0 -4.4375 L 0 -5.359375 L -4.359375 -5.359375 C -5.3125 -5.359375 -5.921875 -4.640625 -5.921875 -3.53125 C -5.921875 -2.671875 -5.59375 -2.125 -4.796875 -1.609375 L -5.765625 -1.609375 Z M -5.765625 -0.765625 "/>
</g>
<g id="glyph-2-8">
</g>
<g id="glyph-2-9">
<path d="M -8.015625 -2.59375 C -6.578125 -1.5 -4.578125 -0.796875 -2.84375 -0.796875 C -1.109375 -0.796875 0.890625 -1.5 2.328125 -2.59375 L 2.328125 -3.203125 C 0.765625 -2.234375 -1.09375 -1.6875 -2.84375 -1.6875 C -4.59375 -1.6875 -6.453125 -2.234375 -8.015625 -3.203125 Z M -8.015625 -2.59375 "/>
</g>
<g id="glyph-2-10">
<path d="M -8.015625 -2.515625 L 0.21875 0.09375 L 0.21875 -0.515625 L -8.015625 -3.125 Z M -8.015625 -2.515625 "/>
</g>
<g id="glyph-2-11">
<path d="M -8.015625 -1.546875 L -8.015625 -0.640625 L 0 -0.640625 L 0 -1.546875 L -2.25 -1.546875 L -3.125 -2.4375 L 0 -4.390625 L 0 -5.515625 L -3.765625 -3.171875 L -5.765625 -5.171875 L -5.765625 -4 L -3.328125 -1.546875 Z M -8.015625 -1.546875 "/>
</g>
<g id="glyph-2-12">
<path d="M 2.328125 -1.015625 C 0.890625 -2.125 -1.109375 -2.8125 -2.84375 -2.8125 C -4.578125 -2.8125 -6.578125 -2.125 -8.015625 -1.015625 L -8.015625 -0.421875 C -6.453125 -1.390625 -4.59375 -1.921875 -2.84375 -1.921875 C -1.09375 -1.921875 0.765625 -1.390625 2.328125 -0.421875 Z M 2.328125 -1.015625 "/>
</g>
</g>
<clipPath id="clip-0">
<path clip-rule="nonzero" d="M 35.152344 5.480469 L 498.523438 5.480469 L 498.523438 325.851562 L 35.152344 325.851562 Z M 35.152344 5.480469 "/>
</clipPath>
<clipPath id="clip-1">
<path clip-rule="nonzero" d="M 35.152344 285 L 498.523438 285 L 498.523438 287 L 35.152344 287 Z M 35.152344 285 "/>
</clipPath>
<clipPath id="clip-2">
<path clip-rule="nonzero" d="M 35.152344 205 L 498.523438 205 L 498.523438 206 L 35.152344 206 Z M 35.152344 205 "/>
</clipPath>
<clipPath id="clip-3">
<path clip-rule="nonzero" d="M 35.152344 125 L 498.523438 125 L 498.523438 126 L 35.152344 126 Z M 35.152344 125 "/>
</clipPath>
<clipPath id="clip-4">
<path clip-rule="nonzero" d="M 35.152344 45 L 498.523438 45 L 498.523438 46 L 35.152344 46 Z M 35.152344 45 "/>
</clipPath>
<clipPath id="clip-5">
<path clip-rule="nonzero" d="M 35.152344 325 L 498.523438 325 L 498.523438 325.851562 L 35.152344 325.851562 Z M 35.152344 325 "/>
</clipPath>
<clipPath id="clip-6">
<path clip-rule="nonzero" d="M 35.152344 245 L 498.523438 245 L 498.523438 247 L 35.152344 247 Z M 35.152344 245 "/>
</clipPath>
<clipPath id="clip-7">
<path clip-rule="nonzero" d="M 35.152344 165 L 498.523438 165 L 498.523438 167 L 35.152344 167 Z M 35.152344 165 "/>
</clipPath>
<clipPath id="clip-8">
<path clip-rule="nonzero" d="M 35.152344 85 L 498.523438 85 L 498.523438 87 L 35.152344 87 Z M 35.152344 85 "/>
</clipPath>
<clipPath id="clip-9">
<path clip-rule="nonzero" d="M 35.152344 5.480469 L 498.523438 5.480469 L 498.523438 7 L 35.152344 7 Z M 35.152344 5.480469 "/>
</clipPath>
<clipPath id="clip-10">
<path clip-rule="nonzero" d="M 121 5.480469 L 123 5.480469 L 123 325.851562 L 121 325.851562 Z M 121 5.480469 "/>
</clipPath>
<clipPath id="clip-11">
<path clip-rule="nonzero" d="M 266 5.480469 L 268 5.480469 L 268 325.851562 L 266 325.851562 Z M 266 5.480469 "/>
</clipPath>
<clipPath id="clip-12">
<path clip-rule="nonzero" d="M 411 5.480469 L 413 5.480469 L 413 325.851562 L 411 325.851562 Z M 411 5.480469 "/>
</clipPath>
</defs>
<rect x="-50.4" y="-36" width="604.8" height="432" fill="rgb(100%, 100%, 100%)" fill-opacity="1"/>
<rect x="-50.4" y="-36" width="604.8" height="432" fill="rgb(100%, 100%, 100%)" fill-opacity="1"/>
<path fill="none" stroke-width="1.066978" stroke-linecap="round" stroke-linejoin="round" stroke="rgb(100%, 100%, 100%)" stroke-opacity="1" stroke-miterlimit="10" d="M 0 360 L 504 360 L 504 0 L 0 0 Z M 0 360 "/>
<g clip-path="url(#clip-0)">
<path fill-rule="nonzero" fill="rgb(92.156863%, 92.156863%, 92.156863%)" fill-opacity="1" d="M 35.152344 325.847656 L 498.523438 325.847656 L 498.523438 5.476562 L 35.152344 5.476562 Z M 35.152344 325.847656 "/>
</g>
<g clip-path="url(#clip-1)">
<path fill="none" stroke-width="0.533489" stroke-linecap="butt" stroke-linejoin="round" stroke="rgb(100%, 100%, 100%)" stroke-opacity="1" stroke-miterlimit="10" d="M 35.152344 285.804688 L 498.519531 285.804688 "/>
</g>
<g clip-path="url(#clip-2)">
<path fill="none" stroke-width="0.533489" stroke-linecap="butt" stroke-linejoin="round" stroke="rgb(100%, 100%, 100%)" stroke-opacity="1" stroke-miterlimit="10" d="M 35.152344 205.710938 L 498.519531 205.710938 "/>
</g>
<g clip-path="url(#clip-3)">
<path fill="none" stroke-width="0.533489" stroke-linecap="butt" stroke-linejoin="round" stroke="rgb(100%, 100%, 100%)" stroke-opacity="1" stroke-miterlimit="10" d="M 35.152344 125.617188 L 498.519531 125.617188 "/>
</g>
<g clip-path="url(#clip-4)">
<path fill="none" stroke-width="0.533489" stroke-linecap="butt" stroke-linejoin="round" stroke="rgb(100%, 100%, 100%)" stroke-opacity="1" stroke-miterlimit="10" d="M 35.152344 45.527344 L 498.519531 45.527344 "/>
</g>
<g clip-path="url(#clip-5)">
<path fill="none" stroke-width="1.066978" stroke-linecap="butt" stroke-linejoin="round" stroke="rgb(100%, 100%, 100%)" stroke-opacity="1" stroke-miterlimit="10" d="M 35.152344 325.847656 L 498.519531 325.847656 "/>
</g>
<g clip-path="url(#clip-6)">
<path fill="none" stroke-width="1.066978" stroke-linecap="butt" stroke-linejoin="round" stroke="rgb(100%, 100%, 100%)" stroke-opacity="1" stroke-miterlimit="10" d="M 35.152344 245.757812 L 498.519531 245.757812 "/>
</g>
<g clip-path="url(#clip-7)">
<path fill="none" stroke-width="1.066978" stroke-linecap="butt" stroke-linejoin="round" stroke="rgb(100%, 100%, 100%)" stroke-opacity="1" stroke-miterlimit="10" d="M 35.152344 165.664062 L 498.519531 165.664062 "/>
</g>
<g clip-path="url(#clip-8)">
<path fill="none" stroke-width="1.066978" stroke-linecap="butt" stroke-linejoin="round" stroke="rgb(100%, 100%, 100%)" stroke-opacity="1" stroke-miterlimit="10" d="M 35.152344 85.570312 L 498.519531 85.570312 "/>
</g>
<g clip-path="url(#clip-9)">
<path fill="none" stroke-width="1.066978" stroke-linecap="butt" stroke-linejoin="round" stroke="rgb(100%, 100%, 100%)" stroke-opacity="1" stroke-miterlimit="10" d="M 35.152344 5.480469 L 498.519531 5.480469 "/>
</g>
<g clip-path="url(#clip-10)">
<path fill="none" stroke-width="1.066978" stroke-linecap="butt" stroke-linejoin="round" stroke="rgb(100%, 100%, 100%)" stroke-opacity="1" stroke-miterlimit="10" d="M 122.03125 325.847656 L 122.03125 5.480469 "/>
</g>
<g clip-path="url(#clip-11)">
<path fill="none" stroke-width="1.066978" stroke-linecap="butt" stroke-linejoin="round" stroke="rgb(100%, 100%, 100%)" stroke-opacity="1" stroke-miterlimit="10" d="M 266.835938 325.847656 L 266.835938 5.480469 "/>
</g>
<g clip-path="url(#clip-12)">
<path fill="none" stroke-width="1.066978" stroke-linecap="butt" stroke-linejoin="round" stroke="rgb(100%, 100%, 100%)" stroke-opacity="1" stroke-miterlimit="10" d="M 411.640625 325.847656 L 411.640625 5.480469 "/>
</g>
<path fill-rule="nonzero" fill="rgb(0%, 0%, 0%)" fill-opacity="1" stroke-width="0.708661" stroke-linecap="round" stroke-linejoin="round" stroke="rgb(0%, 0%, 0%)" stroke-opacity="1" stroke-miterlimit="10" d="M 280.222656 126.859375 C 280.222656 129.464844 276.3125 129.464844 276.3125 126.859375 C 276.3125 124.253906 280.222656 124.253906 280.222656 126.859375 "/>
<path fill-rule="nonzero" fill="rgb(0%, 0%, 0%)" fill-opacity="1" stroke-width="0.708661" stroke-linecap="round" stroke-linejoin="round" stroke="rgb(0%, 0%, 0%)" stroke-opacity="1" stroke-miterlimit="10" d="M 277.40625 121.535156 C 277.40625 124.140625 273.5 124.140625 273.5 121.535156 C 273.5 118.925781 277.40625 118.925781 277.40625 121.535156 "/>
<path fill-rule="nonzero" fill="rgb(0%, 0%, 0%)" fill-opacity="1" stroke-width="0.708661" stroke-linecap="round" stroke-linejoin="round" stroke="rgb(0%, 0%, 0%)" stroke-opacity="1" stroke-miterlimit="10" d="M 257.109375 159.378906 C 257.109375 161.984375 253.199219 161.984375 253.199219 159.378906 C 253.199219 156.769531 257.109375 156.769531 257.109375 159.378906 "/>
<path fill-rule="nonzero" fill="rgb(0%, 0%, 0%)" fill-opacity="1" stroke-width="0.708661" stroke-linecap="round" stroke-linejoin="round" stroke="rgb(0%, 0%, 0%)" stroke-opacity="1" stroke-miterlimit="10" d="M 276.34375 143.359375 C 276.34375 145.964844 272.433594 145.964844 272.433594 143.359375 C 272.433594 140.753906 276.34375 140.753906 276.34375 143.359375 "/>
<path fill-rule="nonzero" fill="rgb(0%, 0%, 0%)" fill-opacity="1" stroke-width="0.708661" stroke-linecap="round" stroke-linejoin="round" stroke="rgb(0%, 0%, 0%)" stroke-opacity="1" stroke-miterlimit="10" d="M 281 168.148438 C 281 170.753906 277.089844 170.753906 277.089844 168.148438 C 277.089844 165.539062 281 165.539062 281 168.148438 "/>
<path fill-rule="nonzero" fill="rgb(0%, 0%, 0%)" fill-opacity="1" stroke-width="0.708661" stroke-linecap="round" stroke-linejoin="round" stroke="rgb(0%, 0%, 0%)" stroke-opacity="1" stroke-miterlimit="10" d="M 255.15625 153.410156 C 255.15625 156.015625 251.246094 156.015625 251.246094 153.410156 C 251.246094 150.804688 255.15625 150.804688 255.15625 153.410156 "/>
<path fill-rule="nonzero" fill="rgb(0%, 0%, 0%)" fill-opacity="1" stroke-width="0.708661" stroke-linecap="round" stroke-linejoin="round" stroke="rgb(0%, 0%, 0%)" stroke-opacity="1" stroke-miterlimit="10" d="M 259.167969 102.871094 C 259.167969 105.476562 255.257812 105.476562 255.257812 102.871094 C 255.257812 100.265625 259.167969 100.265625 259.167969 102.871094 "/>
<path fill-rule="nonzero" fill="rgb(0%, 0%, 0%)" fill-opacity="1" stroke-width="0.708661" stroke-linecap="round" stroke-linejoin="round" stroke="rgb(0%, 0%, 0%)" stroke-opacity="1" stroke-miterlimit="10" d="M 274.503906 61.222656 C 274.503906 63.832031 270.59375 63.832031 270.59375 61.222656 C 270.59375 58.617188 274.503906 58.617188 274.503906 61.222656 "/>
<path fill-rule="nonzero" fill="rgb(0%, 0%, 0%)" fill-opacity="1" stroke-width="0.708661" stroke-linecap="round" stroke-linejoin="round" stroke="rgb(0%, 0%, 0%)" stroke-opacity="1" stroke-miterlimit="10" d="M 277.558594 101.550781 C 277.558594 104.15625 273.648438 104.15625 273.648438 101.550781 C 273.648438 98.945312 277.558594 98.945312 277.558594 101.550781 "/>
<path fill-rule="nonzero" fill="rgb(0%, 0%, 0%)" fill-opacity="1" stroke-width="0.708661" stroke-linecap="round" stroke-linejoin="round" stroke="rgb(0%, 0%, 0%)" stroke-opacity="1" stroke-miterlimit="10" d="M 260.933594 137.472656 C 260.933594 140.078125 257.023438 140.078125 257.023438 137.472656 C 257.023438 134.867188 260.933594 134.867188 260.933594 137.472656 "/>
<path fill-rule="nonzero" fill="rgb(0%, 0%, 0%)" fill-opacity="1" stroke-width="0.708661" stroke-linecap="round" stroke-linejoin="round" stroke="rgb(0%, 0%, 0%)" stroke-opacity="1" stroke-miterlimit="10" d="M 279.339844 119.691406 C 279.339844 122.296875 275.429688 122.296875 275.429688 119.691406 C 275.429688 117.085938 279.339844 117.085938 279.339844 119.691406 "/>
<path fill-rule="nonzero" fill="rgb(0%, 0%, 0%)" fill-opacity="1" stroke-width="0.708661" stroke-linecap="round" stroke-linejoin="round" stroke="rgb(0%, 0%, 0%)" stroke-opacity="1" stroke-miterlimit="10" d="M 261.324219 122.09375 C 261.324219 124.699219 257.417969 124.699219 257.417969 122.09375 C 257.417969 119.488281 261.324219 119.488281 261.324219 122.09375 "/>
<path fill-rule="nonzero" fill="rgb(0%, 0%, 0%)" fill-opacity="1" stroke-width="0.708661" stroke-linecap="round" stroke-linejoin="round" stroke="rgb(0%, 0%, 0%)" stroke-opacity="1" stroke-miterlimit="10" d="M 261.089844 112.121094 C 261.089844 114.730469 257.179688 114.730469 257.179688 112.121094 C 257.179688 109.515625 261.089844 109.515625 261.089844 112.121094 "/>
<path fill-rule="nonzero" fill="rgb(0%, 0%, 0%)" fill-opacity="1" stroke-width="0.708661" stroke-linecap="round" stroke-linejoin="round" stroke="rgb(0%, 0%, 0%)" stroke-opacity="1" stroke-miterlimit="10" d="M 266.695312 184.605469 C 266.695312 187.210938 262.785156 187.210938 262.785156 184.605469 C 262.785156 182 266.695312 182 266.695312 184.605469 "/>
<path fill-rule="nonzero" fill="rgb(0%, 0%, 0%)" fill-opacity="1" stroke-width="0.708661" stroke-linecap="round" stroke-linejoin="round" stroke="rgb(0%, 0%, 0%)" stroke-opacity="1" stroke-miterlimit="10" d="M 269.839844 144.640625 C 269.839844 147.246094 265.929688 147.246094 265.929688 144.640625 C 265.929688 142.035156 269.839844 142.035156 269.839844 144.640625 "/>
<path fill-rule="nonzero" fill="rgb(0%, 0%, 0%)" fill-opacity="1" stroke-width="0.708661" stroke-linecap="round" stroke-linejoin="round" stroke="rgb(0%, 0%, 0%)" stroke-opacity="1" stroke-miterlimit="10" d="M 271.296875 172.273438 C 271.296875 174.878906 267.386719 174.878906 267.386719 172.273438 C 267.386719 169.664062 271.296875 169.664062 271.296875 172.273438 "/>
<path fill-rule="nonzero" fill="rgb(0%, 0%, 0%)" fill-opacity="1" stroke-width="0.708661" stroke-linecap="round" stroke-linejoin="round" stroke="rgb(0%, 0%, 0%)" stroke-opacity="1" stroke-miterlimit="10" d="M 268.410156 123.734375 C 268.410156 126.34375 264.5 126.34375 264.5 123.734375 C 264.5 121.128906 268.410156 121.128906 268.410156 123.734375 "/>
<path fill-rule="nonzero" fill="rgb(0%, 0%, 0%)" fill-opacity="1" stroke-width="0.708661" stroke-linecap="round" stroke-linejoin="round" stroke="rgb(0%, 0%, 0%)" stroke-opacity="1" stroke-miterlimit="10" d="M 277.539062 128.101562 C 277.539062 130.707031 273.632812 130.707031 273.632812 128.101562 C 273.632812 125.496094 277.539062 125.496094 277.539062 128.101562 "/>
<path fill-rule="nonzero" fill="rgb(0%, 0%, 0%)" fill-opacity="1" stroke-width="0.708661" stroke-linecap="round" stroke-linejoin="round" stroke="rgb(0%, 0%, 0%)" stroke-opacity="1" stroke-miterlimit="10" d="M 280.96875 159.097656 C 280.96875 161.703125 277.058594 161.703125 277.058594 159.097656 C 277.058594 156.492188 280.96875 156.492188 280.96875 159.097656 "/>
<path fill-rule="nonzero" fill="rgb(0%, 0%, 0%)" fill-opacity="1" stroke-width="0.708661" stroke-linecap="round" stroke-linejoin="round" stroke="rgb(0%, 0%, 0%)" stroke-opacity="1" stroke-miterlimit="10" d="M 276.09375 159.738281 C 276.09375 162.34375 272.1875 162.34375 272.1875 159.738281 C 272.1875 157.132812 276.09375 157.132812 276.09375 159.738281 "/>
<path fill-rule="nonzero" fill="rgb(0%, 0%, 0%)" fill-opacity="1" stroke-width="0.708661" stroke-linecap="round" stroke-linejoin="round" stroke="rgb(0%, 0%, 0%)" stroke-opacity="1" stroke-miterlimit="10" d="M 259.59375 142.476562 C 259.59375 145.085938 255.683594 145.085938 255.683594 142.476562 C 255.683594 139.871094 259.59375 139.871094 259.59375 142.476562 "/>
<path fill-rule="nonzero" fill="rgb(0%, 0%, 0%)" fill-opacity="1" stroke-width="0.708661" stroke-linecap="round" stroke-linejoin="round" stroke="rgb(0%, 0%, 0%)" stroke-opacity="1" stroke-miterlimit="10" d="M 279.632812 133.308594 C 279.632812 135.914062 275.722656 135.914062 275.722656 133.308594 C 275.722656 130.699219 279.632812 130.699219 279.632812 133.308594 "/>
<path fill-rule="nonzero" fill="rgb(0%, 0%, 0%)" fill-opacity="1" stroke-width="0.708661" stroke-linecap="round" stroke-linejoin="round" stroke="rgb(0%, 0%, 0%)" stroke-opacity="1" stroke-miterlimit="10" d="M 279.535156 96.425781 C 279.535156 99.03125 275.625 99.03125 275.625 96.425781 C 275.625 93.816406 279.535156 93.816406 279.535156 96.425781 "/>
<path fill-rule="nonzero" fill="rgb(0%, 0%, 0%)" fill-opacity="1" stroke-width="0.708661" stroke-linecap="round" stroke-linejoin="round" stroke="rgb(0%, 0%, 0%)" stroke-opacity="1" stroke-miterlimit="10" d="M 261.175781 80.925781 C 261.175781 83.53125 257.265625 83.53125 257.265625 80.925781 C 257.265625 78.320312 261.175781 78.320312 261.175781 80.925781 "/>
<path fill-rule="nonzero" fill="rgb(0%, 0%, 0%)" fill-opacity="1" stroke-width="0.708661" stroke-linecap="round" stroke-linejoin="round" stroke="rgb(0%, 0%, 0%)" stroke-opacity="1" stroke-miterlimit="10" d="M 269.195312 130.261719 C 269.195312 132.871094 265.285156 132.871094 265.285156 130.261719 C 265.285156 127.65625 269.195312 127.65625 269.195312 130.261719 "/>
<path fill-rule="nonzero" fill="rgb(0%, 0%, 0%)" fill-opacity="1" stroke-width="0.708661" stroke-linecap="round" stroke-linejoin="round" stroke="rgb(0%, 0%, 0%)" stroke-opacity="1" stroke-miterlimit="10" d="M 274.746094 76.722656 C 274.746094 79.328125 270.835938 79.328125 270.835938 76.722656 C 270.835938 74.117188 274.746094 74.117188 274.746094 76.722656 "/>
<path fill-rule="nonzero" fill="rgb(0%, 0%, 0%)" fill-opacity="1" stroke-width="0.708661" stroke-linecap="round" stroke-linejoin="round" stroke="rgb(0%, 0%, 0%)" stroke-opacity="1" stroke-miterlimit="10" d="M 283.070312 173.714844 C 283.070312 176.320312 279.160156 176.320312 279.160156 173.714844 C 279.160156 171.105469 283.070312 171.105469 283.070312 173.714844 "/>
<path fill-rule="nonzero" fill="rgb(0%, 0%, 0%)" fill-opacity="1" stroke-width="0.708661" stroke-linecap="round" stroke-linejoin="round" stroke="rgb(0%, 0%, 0%)" stroke-opacity="1" stroke-miterlimit="10" d="M 275.09375 163.382812 C 275.09375 165.988281 271.183594 165.988281 271.183594 163.382812 C 271.183594 160.773438 275.09375 160.773438 275.09375 163.382812 "/>
<path fill-rule="nonzero" fill="rgb(0%, 0%, 0%)" fill-opacity="1" stroke-width="0.708661" stroke-linecap="round" stroke-linejoin="round" stroke="rgb(0%, 0%, 0%)" stroke-opacity="1" stroke-miterlimit="10" d="M 273.820312 56.5 C 273.820312 59.105469 269.910156 59.105469 269.910156 56.5 C 269.910156 53.890625 273.820312 53.890625 273.820312 56.5 "/>
<path fill-rule="nonzero" fill="rgb(0%, 0%, 0%)" fill-opacity="1" stroke-width="0.708661" stroke-linecap="round" stroke-linejoin="round" stroke="rgb(0%, 0%, 0%)" stroke-opacity="1" stroke-miterlimit="10" d="M 282.433594 131.824219 C 282.433594 134.433594 278.527344 134.433594 278.527344 131.824219 C 278.527344 129.21875 282.433594 129.21875 282.433594 131.824219 "/>
<path fill-rule="nonzero" fill="rgb(0%, 0%, 0%)" fill-opacity="1" stroke-width="0.708661" stroke-linecap="round" stroke-linejoin="round" stroke="rgb(0%, 0%, 0%)" stroke-opacity="1" stroke-miterlimit="10" d="M 425.921875 103.953125 C 425.921875 106.558594 422.011719 106.558594 422.011719 103.953125 C 422.011719 101.347656 425.921875 101.347656 425.921875 103.953125 "/>
<path fill-rule="nonzero" fill="rgb(0%, 0%, 0%)" fill-opacity="1" stroke-width="0.708661" stroke-linecap="round" stroke-linejoin="round" stroke="rgb(0%, 0%, 0%)" stroke-opacity="1" stroke-miterlimit="10" d="M 422.757812 165.34375 C 422.757812 167.949219 418.847656 167.949219 418.847656 165.34375 C 418.847656 162.738281 422.757812 162.738281 422.757812 165.34375 "/>
<path fill-rule="nonzero" fill="rgb(0%, 0%, 0%)" fill-opacity="1" stroke-width="0.708661" stroke-linecap="round" stroke-linejoin="round" stroke="rgb(0%, 0%, 0%)" stroke-opacity="1" stroke-miterlimit="10" d="M 407.371094 140.476562 C 407.371094 143.082031 403.460938 143.082031 403.460938 140.476562 C 403.460938 137.867188 407.371094 137.867188 407.371094 140.476562 "/>
<path fill-rule="nonzero" fill="rgb(0%, 0%, 0%)" fill-opacity="1" stroke-width="0.708661" stroke-linecap="round" stroke-linejoin="round" stroke="rgb(0%, 0%, 0%)" stroke-opacity="1" stroke-miterlimit="10" d="M 420.859375 206.390625 C 420.859375 208.996094 416.953125 208.996094 416.953125 206.390625 C 416.953125 203.785156 420.859375 203.785156 420.859375 206.390625 "/>
<path fill-rule="nonzero" fill="rgb(0%, 0%, 0%)" fill-opacity="1" stroke-width="0.708661" stroke-linecap="round" stroke-linejoin="round" stroke="rgb(0%, 0%, 0%)" stroke-opacity="1" stroke-miterlimit="10" d="M 405.191406 115.605469 C 405.191406 118.214844 401.28125 118.214844 401.28125 115.605469 C 401.28125 113 405.191406 113 405.191406 115.605469 "/>
<path fill-rule="nonzero" fill="rgb(0%, 0%, 0%)" fill-opacity="1" stroke-width="0.708661" stroke-linecap="round" stroke-linejoin="round" stroke="rgb(0%, 0%, 0%)" stroke-opacity="1" stroke-miterlimit="10" d="M 411.976562 176.195312 C 411.976562 178.804688 408.066406 178.804688 408.066406 176.195312 C 408.066406 173.589844 411.976562 173.589844 411.976562 176.195312 "/>
<path fill-rule="nonzero" fill="rgb(0%, 0%, 0%)" fill-opacity="1" stroke-width="0.708661" stroke-linecap="round" stroke-linejoin="round" stroke="rgb(0%, 0%, 0%)" stroke-opacity="1" stroke-miterlimit="10" d="M 426.59375 154.410156 C 426.59375 157.019531 422.683594 157.019531 422.683594 154.410156 C 422.683594 151.804688 426.59375 151.804688 426.59375 154.410156 "/>
<path fill-rule="nonzero" fill="rgb(0%, 0%, 0%)" fill-opacity="1" stroke-width="0.708661" stroke-linecap="round" stroke-linejoin="round" stroke="rgb(0%, 0%, 0%)" stroke-opacity="1" stroke-miterlimit="10" d="M 403.117188 120.210938 C 403.117188 122.816406 399.207031 122.816406 399.207031 120.210938 C 399.207031 117.605469 403.117188 117.605469 403.117188 120.210938 "/>
<path fill-rule="nonzero" fill="rgb(0%, 0%, 0%)" fill-opacity="1" stroke-width="0.708661" stroke-linecap="round" stroke-linejoin="round" stroke="rgb(0%, 0%, 0%)" stroke-opacity="1" stroke-miterlimit="10" d="M 409.867188 131.585938 C 409.867188 134.191406 405.957031 134.191406 405.957031 131.585938 C 405.957031 128.980469 409.867188 128.980469 409.867188 131.585938 "/>
<path fill-rule="nonzero" fill="rgb(0%, 0%, 0%)" fill-opacity="1" stroke-width="0.708661" stroke-linecap="round" stroke-linejoin="round" stroke="rgb(0%, 0%, 0%)" stroke-opacity="1" stroke-miterlimit="10" d="M 419.570312 149.566406 C 419.570312 152.171875 415.660156 152.171875 415.660156 149.566406 C 415.660156 146.960938 419.570312 146.960938 419.570312 149.566406 "/>
<path fill-rule="nonzero" fill="rgb(0%, 0%, 0%)" fill-opacity="1" stroke-width="0.708661" stroke-linecap="round" stroke-linejoin="round" stroke="rgb(0%, 0%, 0%)" stroke-opacity="1" stroke-miterlimit="10" d="M 410.679688 93.582031 C 410.679688 96.1875 406.769531 96.1875 406.769531 93.582031 C 406.769531 90.976562 410.679688 90.976562 410.679688 93.582031 "/>
<path fill-rule="nonzero" fill="rgb(0%, 0%, 0%)" fill-opacity="1" stroke-width="0.708661" stroke-linecap="round" stroke-linejoin="round" stroke="rgb(0%, 0%, 0%)" stroke-opacity="1" stroke-miterlimit="10" d="M 413.738281 143.960938 C 413.738281 146.566406 409.828125 146.566406 409.828125 143.960938 C 409.828125 141.351562 413.738281 141.351562 413.738281 143.960938 "/>
<path fill-rule="nonzero" fill="rgb(0%, 0%, 0%)" fill-opacity="1" stroke-width="0.708661" stroke-linecap="round" stroke-linejoin="round" stroke="rgb(0%, 0%, 0%)" stroke-opacity="1" stroke-miterlimit="10" d="M 400.871094 177.238281 C 400.871094 179.84375 396.960938 179.84375 396.960938 177.238281 C 396.960938 174.632812 400.871094 174.632812 400.871094 177.238281 "/>
<path fill-rule="nonzero" fill="rgb(0%, 0%, 0%)" fill-opacity="1" stroke-width="0.708661" stroke-linecap="round" stroke-linejoin="round" stroke="rgb(0%, 0%, 0%)" stroke-opacity="1" stroke-miterlimit="10" d="M 420.546875 168.585938 C 420.546875 171.195312 416.636719 171.195312 416.636719 168.585938 C 416.636719 165.980469 420.546875 165.980469 420.546875 168.585938 "/>
<path fill-rule="nonzero" fill="rgb(0%, 0%, 0%)" fill-opacity="1" stroke-width="0.708661" stroke-linecap="round" stroke-linejoin="round" stroke="rgb(0%, 0%, 0%)" stroke-opacity="1" stroke-miterlimit="10" d="M 418.765625 145.039062 C 418.765625 147.648438 414.855469 147.648438 414.855469 145.039062 C 414.855469 142.433594 418.765625 142.433594 418.765625 145.039062 "/>
<path fill-rule="nonzero" fill="rgb(0%, 0%, 0%)" fill-opacity="1" stroke-width="0.708661" stroke-linecap="round" stroke-linejoin="round" stroke="rgb(0%, 0%, 0%)" stroke-opacity="1" stroke-miterlimit="10" d="M 400.832031 121.054688 C 400.832031 123.660156 396.921875 123.660156 396.921875 121.054688 C 396.921875 118.445312 400.832031 118.445312 400.832031 121.054688 "/>
<path fill-rule="nonzero" fill="rgb(0%, 0%, 0%)" fill-opacity="1" stroke-width="0.708661" stroke-linecap="round" stroke-linejoin="round" stroke="rgb(0%, 0%, 0%)" stroke-opacity="1" stroke-miterlimit="10" d="M 401.648438 173.152344 C 401.648438 175.757812 397.738281 175.757812 397.738281 173.152344 C 397.738281 170.546875 401.648438 170.546875 401.648438 173.152344 "/>
<path fill-rule="nonzero" fill="rgb(0%, 0%, 0%)" fill-opacity="1" stroke-width="0.708661" stroke-linecap="round" stroke-linejoin="round" stroke="rgb(0%, 0%, 0%)" stroke-opacity="1" stroke-miterlimit="10" d="M 420.769531 179.761719 C 420.769531 182.367188 416.859375 182.367188 416.859375 179.761719 C 416.859375 177.152344 420.769531 177.152344 420.769531 179.761719 "/>
<path fill-rule="nonzero" fill="rgb(0%, 0%, 0%)" fill-opacity="1" stroke-width="0.708661" stroke-linecap="round" stroke-linejoin="round" stroke="rgb(0%, 0%, 0%)" stroke-opacity="1" stroke-miterlimit="10" d="M 426.847656 127.941406 C 426.847656 130.546875 422.9375 130.546875 422.9375 127.941406 C 422.9375 125.335938 426.847656 125.335938 426.847656 127.941406 "/>
<path fill-rule="nonzero" fill="rgb(0%, 0%, 0%)" fill-opacity="1" stroke-width="0.708661" stroke-linecap="round" stroke-linejoin="round" stroke="rgb(0%, 0%, 0%)" stroke-opacity="1" stroke-miterlimit="10" d="M 419.027344 77.761719 C 419.027344 80.371094 415.117188 80.371094 415.117188 77.761719 C 415.117188 75.15625 419.027344 75.15625 419.027344 77.761719 "/>
<path fill-rule="nonzero" fill="rgb(0%, 0%, 0%)" fill-opacity="1" stroke-width="0.708661" stroke-linecap="round" stroke-linejoin="round" stroke="rgb(0%, 0%, 0%)" stroke-opacity="1" stroke-miterlimit="10" d="M 405.71875 142.679688 C 405.71875 145.285156 401.808594 145.285156 401.808594 142.679688 C 401.808594 140.070312 405.71875 140.070312 405.71875 142.679688 "/>
<path fill-rule="nonzero" fill="rgb(0%, 0%, 0%)" fill-opacity="1" stroke-width="0.708661" stroke-linecap="round" stroke-linejoin="round" stroke="rgb(0%, 0%, 0%)" stroke-opacity="1" stroke-miterlimit="10" d="M 410.246094 97.707031 C 410.246094 100.3125 406.335938 100.3125 406.335938 97.707031 C 406.335938 95.097656 410.246094 95.097656 410.246094 97.707031 "/>
<path fill-rule="nonzero" fill="rgb(0%, 0%, 0%)" fill-opacity="1" stroke-width="0.708661" stroke-linecap="round" stroke-linejoin="round" stroke="rgb(0%, 0%, 0%)" stroke-opacity="1" stroke-miterlimit="10" d="M 421.695312 155.050781 C 421.695312 157.660156 417.785156 157.660156 417.785156 155.050781 C 417.785156 152.445312 421.695312 152.445312 421.695312 155.050781 "/>
<path fill-rule="nonzero" fill="rgb(0%, 0%, 0%)" fill-opacity="1" stroke-width="0.708661" stroke-linecap="round" stroke-linejoin="round" stroke="rgb(0%, 0%, 0%)" stroke-opacity="1" stroke-miterlimit="10" d="M 410.425781 165.542969 C 410.425781 168.152344 406.515625 168.152344 406.515625 165.542969 C 406.515625 162.9375 410.425781 162.9375 410.425781 165.542969 "/>
<path fill-rule="nonzero" fill="rgb(0%, 0%, 0%)" fill-opacity="1" stroke-width="0.708661" stroke-linecap="round" stroke-linejoin="round" stroke="rgb(0%, 0%, 0%)" stroke-opacity="1" stroke-miterlimit="10" d="M 424.726562 198.023438 C 424.726562 200.628906 420.816406 200.628906 420.816406 198.023438 C 420.816406 195.414062 424.726562 195.414062 424.726562 198.023438 "/>
<path fill-rule="nonzero" fill="rgb(0%, 0%, 0%)" fill-opacity="1" stroke-width="0.708661" stroke-linecap="round" stroke-linejoin="round" stroke="rgb(0%, 0%, 0%)" stroke-opacity="1" stroke-miterlimit="10" d="M 417.660156 154.691406 C 417.660156 157.296875 413.75 157.296875 413.75 154.691406 C 413.75 152.085938 417.660156 152.085938 417.660156 154.691406 "/>
<path fill-rule="nonzero" fill="rgb(0%, 0%, 0%)" fill-opacity="1" stroke-width="0.708661" stroke-linecap="round" stroke-linejoin="round" stroke="rgb(0%, 0%, 0%)" stroke-opacity="1" stroke-miterlimit="10" d="M 401.140625 141.554688 C 401.140625 144.164062 397.230469 144.164062 397.230469 141.554688 C 397.230469 138.949219 401.140625 138.949219 401.140625 141.554688 "/>
<path fill-rule="nonzero" fill="rgb(0%, 0%, 0%)" fill-opacity="1" stroke-width="0.708661" stroke-linecap="round" stroke-linejoin="round" stroke="rgb(0%, 0%, 0%)" stroke-opacity="1" stroke-miterlimit="10" d="M 409.929688 169.589844 C 409.929688 172.195312 406.019531 172.195312 406.019531 169.589844 C 406.019531 166.984375 409.929688 166.984375 409.929688 169.589844 "/>
<path fill-rule="nonzero" fill="rgb(0%, 0%, 0%)" fill-opacity="1" stroke-width="0.708661" stroke-linecap="round" stroke-linejoin="round" stroke="rgb(0%, 0%, 0%)" stroke-opacity="1" stroke-miterlimit="10" d="M 409.449219 125.378906 C 409.449219 127.984375 405.539062 127.984375 405.539062 125.378906 C 405.539062 122.769531 409.449219 122.769531 409.449219 125.378906 "/>
<path fill-rule="nonzero" fill="rgb(0%, 0%, 0%)" fill-opacity="1" stroke-width="0.708661" stroke-linecap="round" stroke-linejoin="round" stroke="rgb(0%, 0%, 0%)" stroke-opacity="1" stroke-miterlimit="10" d="M 411.148438 188.011719 C 411.148438 190.617188 407.238281 190.617188 407.238281 188.011719 C 407.238281 185.402344 411.148438 185.402344 411.148438 188.011719 "/>
<path fill-rule="nonzero" fill="rgb(0%, 0%, 0%)" fill-opacity="1" stroke-width="0.708661" stroke-linecap="round" stroke-linejoin="round" stroke="rgb(0%, 0%, 0%)" stroke-opacity="1" stroke-miterlimit="10" d="M 117.746094 100.828125 C 117.746094 103.4375 113.835938 103.4375 113.835938 100.828125 C 113.835938 98.222656 117.746094 98.222656 117.746094 100.828125 "/>
<path fill-rule="nonzero" fill="rgb(0%, 0%, 0%)" fill-opacity="1" stroke-width="0.708661" stroke-linecap="round" stroke-linejoin="round" stroke="rgb(0%, 0%, 0%)" stroke-opacity="1" stroke-miterlimit="10" d="M 135.578125 132.1875 C 135.578125 134.792969 131.667969 134.792969 131.667969 132.1875 C 131.667969 129.578125 135.578125 129.578125 135.578125 132.1875 "/>
<path fill-rule="nonzero" fill="rgb(0%, 0%, 0%)" fill-opacity="1" stroke-width="0.708661" stroke-linecap="round" stroke-linejoin="round" stroke="rgb(0%, 0%, 0%)" stroke-opacity="1" stroke-miterlimit="10" d="M 118.910156 174.59375 C 118.910156 177.199219 115 177.199219 115 174.59375 C 115 171.988281 118.910156 171.988281 118.910156 174.59375 "/>
<path fill-rule="nonzero" fill="rgb(0%, 0%, 0%)" fill-opacity="1" stroke-width="0.708661" stroke-linecap="round" stroke-linejoin="round" stroke="rgb(0%, 0%, 0%)" stroke-opacity="1" stroke-miterlimit="10" d="M 121.640625 154.652344 C 121.640625 157.257812 117.730469 157.257812 117.730469 154.652344 C 117.730469 152.046875 121.640625 152.046875 121.640625 154.652344 "/>
<path fill-rule="nonzero" fill="rgb(0%, 0%, 0%)" fill-opacity="1" stroke-width="0.708661" stroke-linecap="round" stroke-linejoin="round" stroke="rgb(0%, 0%, 0%)" stroke-opacity="1" stroke-miterlimit="10" d="M 135.984375 217.683594 C 135.984375 220.289062 132.074219 220.289062 132.074219 217.683594 C 132.074219 215.078125 135.984375 215.078125 135.984375 217.683594 "/>
<path fill-rule="nonzero" fill="rgb(0%, 0%, 0%)" fill-opacity="1" stroke-width="0.708661" stroke-linecap="round" stroke-linejoin="round" stroke="rgb(0%, 0%, 0%)" stroke-opacity="1" stroke-miterlimit="10" d="M 133.609375 153.25 C 133.609375 155.855469 129.699219 155.855469 129.699219 153.25 C 129.699219 150.644531 133.609375 150.644531 133.609375 153.25 "/>
<path fill-rule="nonzero" fill="rgb(0%, 0%, 0%)" fill-opacity="1" stroke-width="0.708661" stroke-linecap="round" stroke-linejoin="round" stroke="rgb(0%, 0%, 0%)" stroke-opacity="1" stroke-miterlimit="10" d="M 125.605469 156.132812 C 125.605469 158.738281 121.695312 158.738281 121.695312 156.132812 C 121.695312 153.527344 125.605469 153.527344 125.605469 156.132812 "/>
<path fill-rule="nonzero" fill="rgb(0%, 0%, 0%)" fill-opacity="1" stroke-width="0.708661" stroke-linecap="round" stroke-linejoin="round" stroke="rgb(0%, 0%, 0%)" stroke-opacity="1" stroke-miterlimit="10" d="M 130.613281 206.269531 C 130.613281 208.878906 126.703125 208.878906 126.703125 206.269531 C 126.703125 203.664062 130.613281 203.664062 130.613281 206.269531 "/>
<path fill-rule="nonzero" fill="rgb(0%, 0%, 0%)" fill-opacity="1" stroke-width="0.708661" stroke-linecap="round" stroke-linejoin="round" stroke="rgb(0%, 0%, 0%)" stroke-opacity="1" stroke-miterlimit="10" d="M 122.777344 156.613281 C 122.777344 159.21875 118.867188 159.21875 118.867188 156.613281 C 118.867188 154.007812 122.777344 154.007812 122.777344 156.613281 "/>
<path fill-rule="nonzero" fill="rgb(0%, 0%, 0%)" fill-opacity="1" stroke-width="0.708661" stroke-linecap="round" stroke-linejoin="round" stroke="rgb(0%, 0%, 0%)" stroke-opacity="1" stroke-miterlimit="10" d="M 138.007812 93.019531 C 138.007812 95.625 134.097656 95.625 134.097656 93.019531 C 134.097656 90.414062 138.007812 90.414062 138.007812 93.019531 "/>
<path fill-rule="nonzero" fill="rgb(0%, 0%, 0%)" fill-opacity="1" stroke-width="0.708661" stroke-linecap="round" stroke-linejoin="round" stroke="rgb(0%, 0%, 0%)" stroke-opacity="1" stroke-miterlimit="10" d="M 115.296875 196.78125 C 115.296875 199.386719 111.386719 199.386719 111.386719 196.78125 C 111.386719 194.175781 115.296875 194.175781 115.296875 196.78125 "/>
<path fill-rule="nonzero" fill="rgb(0%, 0%, 0%)" fill-opacity="1" stroke-width="0.708661" stroke-linecap="round" stroke-linejoin="round" stroke="rgb(0%, 0%, 0%)" stroke-opacity="1" stroke-miterlimit="10" d="M 131.414062 172.113281 C 131.414062 174.71875 127.503906 174.71875 127.503906 172.113281 C 127.503906 169.503906 131.414062 169.503906 131.414062 172.113281 "/>
<path fill-rule="nonzero" fill="rgb(0%, 0%, 0%)" fill-opacity="1" stroke-width="0.708661" stroke-linecap="round" stroke-linejoin="round" stroke="rgb(0%, 0%, 0%)" stroke-opacity="1" stroke-miterlimit="10" d="M 113.425781 115.328125 C 113.425781 117.933594 109.515625 117.933594 109.515625 115.328125 C 109.515625 112.71875 113.425781 112.71875 113.425781 115.328125 "/>
<path fill-rule="nonzero" fill="rgb(0%, 0%, 0%)" fill-opacity="1" stroke-width="0.708661" stroke-linecap="round" stroke-linejoin="round" stroke="rgb(0%, 0%, 0%)" stroke-opacity="1" stroke-miterlimit="10" d="M 124.0625 109.921875 C 124.0625 112.527344 120.152344 112.527344 120.152344 109.921875 C 120.152344 107.3125 124.0625 107.3125 124.0625 109.921875 "/>
<path fill-rule="nonzero" fill="rgb(0%, 0%, 0%)" fill-opacity="1" stroke-width="0.708661" stroke-linecap="round" stroke-linejoin="round" stroke="rgb(0%, 0%, 0%)" stroke-opacity="1" stroke-miterlimit="10" d="M 120.855469 156.453125 C 120.855469 159.058594 116.945312 159.058594 116.945312 156.453125 C 116.945312 153.847656 120.855469 153.847656 120.855469 156.453125 "/>
<path fill-rule="nonzero" fill="rgb(0%, 0%, 0%)" fill-opacity="1" stroke-width="0.708661" stroke-linecap="round" stroke-linejoin="round" stroke="rgb(0%, 0%, 0%)" stroke-opacity="1" stroke-miterlimit="10" d="M 135.054688 139.996094 C 135.054688 142.601562 131.144531 142.601562 131.144531 139.996094 C 131.144531 137.386719 135.054688 137.386719 135.054688 139.996094 "/>
<path fill-rule="nonzero" fill="rgb(0%, 0%, 0%)" fill-opacity="1" stroke-width="0.708661" stroke-linecap="round" stroke-linejoin="round" stroke="rgb(0%, 0%, 0%)" stroke-opacity="1" stroke-miterlimit="10" d="M 129.179688 147.363281 C 129.179688 149.96875 125.269531 149.96875 125.269531 147.363281 C 125.269531 144.757812 129.179688 144.757812 129.179688 147.363281 "/>
<path fill-rule="nonzero" fill="rgb(0%, 0%, 0%)" fill-opacity="1" stroke-width="0.708661" stroke-linecap="round" stroke-linejoin="round" stroke="rgb(0%, 0%, 0%)" stroke-opacity="1" stroke-miterlimit="10" d="M 122.039062 129.742188 C 122.039062 132.347656 118.128906 132.347656 118.128906 129.742188 C 118.128906 127.136719 122.039062 127.136719 122.039062 129.742188 "/>
<path fill-rule="nonzero" fill="rgb(0%, 0%, 0%)" fill-opacity="1" stroke-width="0.708661" stroke-linecap="round" stroke-linejoin="round" stroke="rgb(0%, 0%, 0%)" stroke-opacity="1" stroke-miterlimit="10" d="M 115.273438 164.984375 C 115.273438 167.589844 111.363281 167.589844 111.363281 164.984375 C 111.363281 162.378906 115.273438 162.378906 115.273438 164.984375 "/>
<path fill-rule="nonzero" fill="rgb(0%, 0%, 0%)" fill-opacity="1" stroke-width="0.708661" stroke-linecap="round" stroke-linejoin="round" stroke="rgb(0%, 0%, 0%)" stroke-opacity="1" stroke-miterlimit="10" d="M 130.644531 160.179688 C 130.644531 162.785156 126.734375 162.785156 126.734375 160.179688 C 126.734375 157.570312 130.644531 157.570312 130.644531 160.179688 "/>
<path fill-rule="nonzero" fill="rgb(0%, 0%, 0%)" fill-opacity="1" stroke-width="0.708661" stroke-linecap="round" stroke-linejoin="round" stroke="rgb(0%, 0%, 0%)" stroke-opacity="1" stroke-miterlimit="10" d="M 124.277344 171.070312 C 124.277344 173.675781 120.367188 173.675781 120.367188 171.070312 C 120.367188 168.464844 124.277344 168.464844 124.277344 171.070312 "/>
<path fill-rule="nonzero" fill="rgb(0%, 0%, 0%)" fill-opacity="1" stroke-width="0.708661" stroke-linecap="round" stroke-linejoin="round" stroke="rgb(0%, 0%, 0%)" stroke-opacity="1" stroke-miterlimit="10" d="M 117.078125 185.285156 C 117.078125 187.894531 113.167969 187.894531 113.167969 185.285156 C 113.167969 182.679688 117.078125 182.679688 117.078125 185.285156 "/>
<path fill-rule="nonzero" fill="rgb(0%, 0%, 0%)" fill-opacity="1" stroke-width="0.708661" stroke-linecap="round" stroke-linejoin="round" stroke="rgb(0%, 0%, 0%)" stroke-opacity="1" stroke-miterlimit="10" d="M 133.261719 132.707031 C 133.261719 135.3125 129.355469 135.3125 129.355469 132.707031 C 129.355469 130.101562 133.261719 130.101562 133.261719 132.707031 "/>
<path fill-rule="nonzero" fill="rgb(0%, 0%, 0%)" fill-opacity="1" stroke-width="0.708661" stroke-linecap="round" stroke-linejoin="round" stroke="rgb(0%, 0%, 0%)" stroke-opacity="1" stroke-miterlimit="10" d="M 119.917969 193.015625 C 119.917969 195.621094 116.007812 195.621094 116.007812 193.015625 C 116.007812 190.410156 119.917969 190.410156 119.917969 193.015625 "/>
<path fill-rule="nonzero" fill="rgb(0%, 0%, 0%)" fill-opacity="1" stroke-width="0.708661" stroke-linecap="round" stroke-linejoin="round" stroke="rgb(0%, 0%, 0%)" stroke-opacity="1" stroke-miterlimit="10" d="M 123.238281 171.992188 C 123.238281 174.597656 119.328125 174.597656 119.328125 171.992188 C 119.328125 169.386719 123.238281 169.386719 123.238281 171.992188 "/>
<path fill-rule="nonzero" fill="rgb(0%, 0%, 0%)" fill-opacity="1" stroke-width="0.708661" stroke-linecap="round" stroke-linejoin="round" stroke="rgb(0%, 0%, 0%)" stroke-opacity="1" stroke-miterlimit="10" d="M 116.667969 221.6875 C 116.667969 224.296875 112.757812 224.296875 112.757812 221.6875 C 112.757812 219.082031 116.667969 219.082031 116.667969 221.6875 "/>
<path fill-rule="nonzero" fill="rgb(0%, 0%, 0%)" fill-opacity="1" stroke-width="0.708661" stroke-linecap="round" stroke-linejoin="round" stroke="rgb(0%, 0%, 0%)" stroke-opacity="1" stroke-miterlimit="10" d="M 134.539062 125.578125 C 134.539062 128.183594 130.632812 128.183594 130.632812 125.578125 C 130.632812 122.972656 134.539062 122.972656 134.539062 125.578125 "/>
<path fill-rule="nonzero" fill="rgb(0%, 0%, 0%)" fill-opacity="1" stroke-width="0.708661" stroke-linecap="round" stroke-linejoin="round" stroke="rgb(0%, 0%, 0%)" stroke-opacity="1" stroke-miterlimit="10" d="M 137.527344 155.132812 C 137.527344 157.738281 133.617188 157.738281 133.617188 155.132812 C 133.617188 152.527344 137.527344 152.527344 137.527344 155.132812 "/>
<path fill-rule="nonzero" fill="rgb(0%, 0%, 0%)" fill-opacity="1" stroke-width="0.708661" stroke-linecap="round" stroke-linejoin="round" stroke="rgb(0%, 0%, 0%)" stroke-opacity="1" stroke-miterlimit="10" d="M 126.5625 137.753906 C 126.5625 140.359375 122.652344 140.359375 122.652344 137.753906 C 122.652344 135.144531 126.5625 135.144531 126.5625 137.753906 "/>
<path fill-rule="nonzero" fill="rgb(0%, 0%, 0%)" fill-opacity="1" stroke-width="0.708661" stroke-linecap="round" stroke-linejoin="round" stroke="rgb(0%, 0%, 0%)" stroke-opacity="1" stroke-miterlimit="10" d="M 122.941406 159.378906 C 122.941406 161.984375 119.03125 161.984375 119.03125 159.378906 C 119.03125 156.769531 122.941406 156.769531 122.941406 159.378906 "/>
<path fill="none" stroke-width="1.066978" stroke-linecap="butt" stroke-linejoin="round" stroke="rgb(0%, 0%, 0%)" stroke-opacity="1" stroke-miterlimit="10" d="M 100.3125 150.527344 L 143.753906 150.527344 "/>
<path fill="none" stroke-width="1.066978" stroke-linecap="butt" stroke-linejoin="round" stroke="rgb(0%, 0%, 0%)" stroke-opacity="1" stroke-miterlimit="10" d="M 122.03125 150.527344 L 122.03125 162.253906 "/>
<path fill="none" stroke-width="1.066978" stroke-linecap="butt" stroke-linejoin="round" stroke="rgb(0%, 0%, 0%)" stroke-opacity="1" stroke-miterlimit="10" d="M 100.3125 162.253906 L 143.753906 162.253906 "/>
<path fill="none" stroke-width="1.066978" stroke-linecap="butt" stroke-linejoin="round" stroke="rgb(0%, 0%, 0%)" stroke-opacity="1" stroke-miterlimit="10" d="M 245.113281 123.546875 L 288.554688 123.546875 "/>
<path fill="none" stroke-width="1.066978" stroke-linecap="butt" stroke-linejoin="round" stroke="rgb(0%, 0%, 0%)" stroke-opacity="1" stroke-miterlimit="10" d="M 266.835938 123.546875 L 266.835938 135.613281 "/>
<path fill="none" stroke-width="1.066978" stroke-linecap="butt" stroke-linejoin="round" stroke="rgb(0%, 0%, 0%)" stroke-opacity="1" stroke-miterlimit="10" d="M 245.113281 135.613281 L 288.554688 135.613281 "/>
<path fill="none" stroke-width="1.066978" stroke-linecap="butt" stroke-linejoin="round" stroke="rgb(0%, 0%, 0%)" stroke-opacity="1" stroke-miterlimit="10" d="M 389.917969 141.261719 L 433.359375 141.261719 "/>
<path fill="none" stroke-width="1.066978" stroke-linecap="butt" stroke-linejoin="round" stroke="rgb(0%, 0%, 0%)" stroke-opacity="1" stroke-miterlimit="10" d="M 411.640625 141.261719 L 411.640625 152.742188 "/>
<path fill="none" stroke-width="1.066978" stroke-linecap="butt" stroke-linejoin="round" stroke="rgb(0%, 0%, 0%)" stroke-opacity="1" stroke-miterlimit="10" d="M 389.917969 152.742188 L 433.359375 152.742188 "/>
<path fill="none" stroke-width="1.066978" stroke-linecap="butt" stroke-linejoin="round" stroke="rgb(0%, 0%, 0%)" stroke-opacity="1" stroke-miterlimit="10" d="M 107.550781 156.390625 L 136.511719 156.390625 "/>
<path fill="none" stroke-width="1.066978" stroke-linecap="butt" stroke-linejoin="round" stroke="rgb(0%, 0%, 0%)" stroke-opacity="1" stroke-miterlimit="10" d="M 122.03125 156.390625 L 122.03125 156.390625 "/>
<path fill="none" stroke-width="1.066978" stroke-linecap="butt" stroke-linejoin="round" stroke="rgb(0%, 0%, 0%)" stroke-opacity="1" stroke-miterlimit="10" d="M 107.550781 156.390625 L 136.511719 156.390625 "/>
<path fill="none" stroke-width="1.066978" stroke-linecap="butt" stroke-linejoin="round" stroke="rgb(0%, 0%, 0%)" stroke-opacity="1" stroke-miterlimit="10" d="M 252.355469 129.582031 L 281.316406 129.582031 "/>
<path fill="none" stroke-width="1.066978" stroke-linecap="butt" stroke-linejoin="round" stroke="rgb(0%, 0%, 0%)" stroke-opacity="1" stroke-miterlimit="10" d="M 266.835938 129.582031 L 266.835938 129.582031 "/>
<path fill="none" stroke-width="1.066978" stroke-linecap="butt" stroke-linejoin="round" stroke="rgb(0%, 0%, 0%)" stroke-opacity="1" stroke-miterlimit="10" d="M 252.355469 129.582031 L 281.316406 129.582031 "/>
<path fill="none" stroke-width="1.066978" stroke-linecap="butt" stroke-linejoin="round" stroke="rgb(0%, 0%, 0%)" stroke-opacity="1" stroke-miterlimit="10" d="M 397.160156 147 L 426.117188 147 "/>
<path fill="none" stroke-width="1.066978" stroke-linecap="butt" stroke-linejoin="round" stroke="rgb(0%, 0%, 0%)" stroke-opacity="1" stroke-miterlimit="10" d="M 411.640625 147 L 411.640625 147 "/>
<path fill="none" stroke-width="1.066978" stroke-linecap="butt" stroke-linejoin="round" stroke="rgb(0%, 0%, 0%)" stroke-opacity="1" stroke-miterlimit="10" d="M 397.160156 147 L 426.117188 147 "/>
<g fill="rgb(30.196078%, 30.196078%, 30.196078%)" fill-opacity="1">
<use xlink:href="#glyph-0-0" x="25.21875" y="328.762695"/>
</g>
<g fill="rgb(30.196078%, 30.196078%, 30.196078%)" fill-opacity="1">
<use xlink:href="#glyph-0-1" x="20.21875" y="248.672852"/>
<use xlink:href="#glyph-0-0" x="25.21875" y="248.672852"/>
</g>
<g fill="rgb(30.196078%, 30.196078%, 30.196078%)" fill-opacity="1">
<use xlink:href="#glyph-0-2" x="20.21875" y="168.579102"/>
<use xlink:href="#glyph-0-0" x="25.21875" y="168.579102"/>
</g>
<g fill="rgb(30.196078%, 30.196078%, 30.196078%)" fill-opacity="1">
<use xlink:href="#glyph-0-3" x="20.21875" y="88.485352"/>
<use xlink:href="#glyph-0-0" x="25.21875" y="88.485352"/>
</g>
<g fill="rgb(30.196078%, 30.196078%, 30.196078%)" fill-opacity="1">
<use xlink:href="#glyph-0-4" x="20.21875" y="8.395508"/>
<use xlink:href="#glyph-0-0" x="25.21875" y="8.395508"/>
</g>
<path fill="none" stroke-width="1.066978" stroke-linecap="butt" stroke-linejoin="round" stroke="rgb(20%, 20%, 20%)" stroke-opacity="1" stroke-miterlimit="10" d="M 32.410156 325.847656 L 35.152344 325.847656 "/>
<path fill="none" stroke-width="1.066978" stroke-linecap="butt" stroke-linejoin="round" stroke="rgb(20%, 20%, 20%)" stroke-opacity="1" stroke-miterlimit="10" d="M 32.410156 245.757812 L 35.152344 245.757812 "/>
<path fill="none" stroke-width="1.066978" stroke-linecap="butt" stroke-linejoin="round" stroke="rgb(20%, 20%, 20%)" stroke-opacity="1" stroke-miterlimit="10" d="M 32.410156 165.664062 L 35.152344 165.664062 "/>
<path fill="none" stroke-width="1.066978" stroke-linecap="butt" stroke-linejoin="round" stroke="rgb(20%, 20%, 20%)" stroke-opacity="1" stroke-miterlimit="10" d="M 32.410156 85.570312 L 35.152344 85.570312 "/>
<path fill="none" stroke-width="1.066978" stroke-linecap="butt" stroke-linejoin="round" stroke="rgb(20%, 20%, 20%)" stroke-opacity="1" stroke-miterlimit="10" d="M 32.410156 5.480469 L 35.152344 5.480469 "/>
<path fill="none" stroke-width="1.066978" stroke-linecap="butt" stroke-linejoin="round" stroke="rgb(20%, 20%, 20%)" stroke-opacity="1" stroke-miterlimit="10" d="M 122.03125 328.589844 L 122.03125 325.847656 "/>
<path fill="none" stroke-width="1.066978" stroke-linecap="butt" stroke-linejoin="round" stroke="rgb(20%, 20%, 20%)" stroke-opacity="1" stroke-miterlimit="10" d="M 266.835938 328.589844 L 266.835938 325.847656 "/>
<path fill="none" stroke-width="1.066978" stroke-linecap="butt" stroke-linejoin="round" stroke="rgb(20%, 20%, 20%)" stroke-opacity="1" stroke-miterlimit="10" d="M 411.640625 328.589844 L 411.640625 325.847656 "/>
<g fill="rgb(30.196078%, 30.196078%, 30.196078%)" fill-opacity="1">
<use xlink:href="#glyph-0-5" x="87.03125" y="337.196289"/>
<use xlink:href="#glyph-0-6" x="93.03125" y="337.196289"/>
<use xlink:href="#glyph-0-7" x="95.03125" y="337.196289"/>
<use xlink:href="#glyph-0-8" x="100.03125" y="337.196289"/>
<use xlink:href="#glyph-0-8" x="105.03125" y="337.196289"/>
<use xlink:href="#glyph-0-9" x="110.03125" y="337.196289"/>
<use xlink:href="#glyph-0-10" x="115.03125" y="337.196289"/>
<use xlink:href="#glyph-0-11" x="118.03125" y="337.196289"/>
<use xlink:href="#glyph-0-12" x="123.03125" y="337.196289"/>
<use xlink:href="#glyph-0-13" x="128.03125" y="337.196289"/>
<use xlink:href="#glyph-0-9" x="132.03125" y="337.196289"/>
<use xlink:href="#glyph-0-14" x="137.03125" y="337.196289"/>
<use xlink:href="#glyph-0-15" x="139.03125" y="337.196289"/>
<use xlink:href="#glyph-0-9" x="145.03125" y="337.196289"/>
<use xlink:href="#glyph-0-7" x="150.03125" y="337.196289"/>
<use xlink:href="#glyph-0-6" x="155.03125" y="337.196289"/>
</g>
<g fill="rgb(30.196078%, 30.196078%, 30.196078%)" fill-opacity="1">
<use xlink:href="#glyph-0-16" x="240.835938" y="337.196289"/>
<use xlink:href="#glyph-0-7" x="246.835938" y="337.196289"/>
<use xlink:href="#glyph-0-10" x="251.835938" y="337.196289"/>
<use xlink:href="#glyph-0-17" x="254.835938" y="337.196289"/>
<use xlink:href="#glyph-0-12" x="259.835938" y="337.196289"/>
<use xlink:href="#glyph-0-18" x="264.835938" y="337.196289"/>
<use xlink:href="#glyph-0-10" x="269.835938" y="337.196289"/>
<use xlink:href="#glyph-0-14" x="272.835938" y="337.196289"/>
<use xlink:href="#glyph-0-15" x="274.835938" y="337.196289"/>
<use xlink:href="#glyph-0-9" x="280.835938" y="337.196289"/>
<use xlink:href="#glyph-0-7" x="285.835938" y="337.196289"/>
<use xlink:href="#glyph-0-6" x="290.835938" y="337.196289"/>
</g>
<g fill="rgb(30.196078%, 30.196078%, 30.196078%)" fill-opacity="1">
<use xlink:href="#glyph-0-19" x="385.640625" y="337.196289"/>
<use xlink:href="#glyph-0-9" x="393.640625" y="337.196289"/>
<use xlink:href="#glyph-0-8" x="398.640625" y="337.196289"/>
<use xlink:href="#glyph-0-8" x="403.640625" y="337.196289"/>
<use xlink:href="#glyph-0-9" x="408.640625" y="337.196289"/>
<use xlink:href="#glyph-0-6" x="413.640625" y="337.196289"/>
<use xlink:href="#glyph-0-6" x="415.640625" y="337.196289"/>
<use xlink:href="#glyph-0-14" x="417.640625" y="337.196289"/>
<use xlink:href="#glyph-0-15" x="419.640625" y="337.196289"/>
<use xlink:href="#glyph-0-9" x="425.640625" y="337.196289"/>
<use xlink:href="#glyph-0-7" x="430.640625" y="337.196289"/>
<use xlink:href="#glyph-0-6" x="435.640625" y="337.196289"/>
</g>
<g fill="rgb(0%, 0%, 0%)" fill-opacity="1">
<use xlink:href="#glyph-1-0" x="247.335938" y="350.538086"/>
<use xlink:href="#glyph-1-1" x="254.335938" y="350.538086"/>
<use xlink:href="#glyph-1-2" x="260.335938" y="350.538086"/>
<use xlink:href="#glyph-1-3" x="266.335938" y="350.538086"/>
<use xlink:href="#glyph-1-4" x="272.335938" y="350.538086"/>
<use xlink:href="#glyph-1-2" x="274.335938" y="350.538086"/>
<use xlink:href="#glyph-1-5" x="280.335938" y="350.538086"/>
</g>
<g fill="rgb(0%, 0%, 0%)" fill-opacity="1">
<use xlink:href="#glyph-2-0" x="13.499023" y="205.164062"/>
<use xlink:href="#glyph-2-1" x="13.499023" y="196.164062"/>
<use xlink:href="#glyph-2-2" x="13.499023" y="191.164062"/>
<use xlink:href="#glyph-2-3" x="13.499023" y="185.164062"/>
<use xlink:href="#glyph-2-4" x="13.499023" y="179.164062"/>
<use xlink:href="#glyph-2-2" x="13.499023" y="177.164062"/>
<use xlink:href="#glyph-2-5" x="13.499023" y="171.164062"/>
<use xlink:href="#glyph-2-6" x="13.499023" y="165.164062"/>
<use xlink:href="#glyph-2-7" x="13.499023" y="163.164062"/>
<use xlink:href="#glyph-2-8" x="13.499023" y="157.164062"/>
<use xlink:href="#glyph-2-9" x="13.499023" y="154.164062"/>
<use xlink:href="#glyph-2-3" x="13.499023" y="150.164062"/>
<use xlink:href="#glyph-2-10" x="13.499023" y="144.164062"/>
<use xlink:href="#glyph-2-11" x="13.499023" y="141.164062"/>
<use xlink:href="#glyph-2-3" x="13.499023" y="136.164062"/>
<use xlink:href="#glyph-2-12" x="13.499023" y="130.164062"/>
</g>
</svg>
