<?xml version="1.0" encoding="UTF-8"?>
<svg xmlns="http://www.w3.org/2000/svg" xmlns:xlink="http://www.w3.org/1999/xlink" width="504pt" height="360pt" viewBox="0 0 504 360">
<defs>
<g>
<g id="glyph-0-0">
<path d="M 2.421875 -6.359375 C 1.84375 -6.359375 1.3125 -6.09375 0.984375 -5.671875 C 0.578125 -5.109375 0.375 -4.25 0.375 -3.078125 C 0.375 -0.9375 1.078125 0.203125 2.421875 0.203125 C 3.734375 0.203125 4.453125 -0.9375 4.453125 -3.03125 C 4.453125 -4.25 4.265625 -5.078125 3.859375 -5.671875 C 3.53125 -6.109375 3.015625 -6.359375 2.421875 -6.359375 Z M 2.421875 -5.671875 C 3.25 -5.671875 3.671875 -4.828125 3.671875 -3.09375 C 3.671875 -1.28125 3.265625 -0.4375 2.40625 -0.4375 C 1.578125 -0.4375 1.171875 -1.3125 1.171875 -3.0625 C 1.171875 -4.828125 1.578125 -5.671875 2.421875 -5.671875 Z M 2.421875 -5.671875 "/>
</g>
<g id="glyph-0-1">
<path d="M 4.453125 -0.765625 L 1.171875 -0.765625 C 1.25 -1.296875 1.53125 -1.625 2.296875 -2.09375 L 3.171875 -2.59375 C 4.046875 -3.0625 4.5 -3.71875 4.5 -4.5 C 4.5 -5.03125 4.28125 -5.53125 3.921875 -5.875 C 3.546875 -6.203125 3.09375 -6.359375 2.5 -6.359375 C 1.703125 -6.359375 1.125 -6.078125 0.78125 -5.53125 C 0.546875 -5.203125 0.453125 -4.796875 0.4375 -4.15625 L 1.21875 -4.15625 C 1.234375 -4.59375 1.296875 -4.84375 1.40625 -5.0625 C 1.59375 -5.4375 2 -5.6875 2.46875 -5.6875 C 3.171875 -5.6875 3.703125 -5.171875 3.703125 -4.484375 C 3.703125 -3.96875 3.40625 -3.53125 2.859375 -3.21875 L 2.046875 -2.75 C 0.75 -2 0.375 -1.40625 0.296875 -0.015625 L 4.453125 -0.015625 Z M 4.453125 -0.765625 "/>
</g>
<g id="glyph-0-2">
<path d="M 2.875 -1.546875 L 2.875 0 L 3.65625 0 L 3.65625 -1.546875 L 4.578125 -1.546875 L 4.578125 -2.234375 L 3.65625 -2.234375 L 3.65625 -6.359375 L 3.078125 -6.359375 L 0.25 -2.359375 L 0.25 -1.546875 Z M 2.875 -2.234375 L 0.921875 -2.234375 L 2.875 -5.046875 Z M 2.875 -2.234375 "/>
</g>
<g id="glyph-0-3">
<path d="M 4.375 -4.703125 C 4.234375 -5.75 3.5625 -6.359375 2.609375 -6.359375 C 1.921875 -6.359375 1.3125 -6.03125 0.9375 -5.453125 C 0.546875 -4.828125 0.375 -4.0625 0.375 -2.90625 C 0.375 -1.828125 0.53125 -1.15625 0.90625 -0.59375 C 1.234375 -0.078125 1.78125 0.203125 2.46875 0.203125 C 3.65625 0.203125 4.515625 -0.6875 4.515625 -1.921875 C 4.515625 -3.09375 3.71875 -3.921875 2.609375 -3.921875 C 1.984375 -3.921875 1.5 -3.6875 1.171875 -3.234375 C 1.171875 -4.796875 1.671875 -5.671875 2.5625 -5.671875 C 3.109375 -5.671875 3.484375 -5.328125 3.609375 -4.703125 Z M 2.5 -3.234375 C 3.25 -3.234375 3.71875 -2.703125 3.71875 -1.859375 C 3.71875 -1.0625 3.1875 -0.484375 2.484375 -0.484375 C 1.765625 -0.484375 1.21875 -1.09375 1.21875 -1.90625 C 1.21875 -2.6875 1.734375 -3.234375 2.5 -3.234375 Z M 2.5 -3.234375 "/>
</g>
<g id="glyph-0-4">
<path d="M 3.4375 -3.359375 C 4.09375 -3.75 4.296875 -4.0625 4.296875 -4.65625 C 4.296875 -5.671875 3.53125 -6.359375 2.421875 -6.359375 C 1.3125 -6.359375 0.546875 -5.671875 0.546875 -4.671875 C 0.546875 -4.0625 0.75 -3.75 1.390625 -3.359375 C 0.671875 -2.984375 0.328125 -2.46875 0.328125 -1.765625 C 0.328125 -0.609375 1.171875 0.203125 2.421875 0.203125 C 3.65625 0.203125 4.515625 -0.609375 4.515625 -1.765625 C 4.515625 -2.46875 4.15625 -2.984375 3.4375 -3.359375 Z M 2.421875 -5.671875 C 3.078125 -5.671875 3.5 -5.28125 3.5 -4.640625 C 3.5 -4.046875 3.0625 -3.65625 2.421875 -3.65625 C 1.765625 -3.65625 1.34375 -4.046875 1.34375 -4.65625 C 1.34375 -5.28125 1.765625 -5.671875 2.421875 -5.671875 Z M 2.421875 -3 C 3.1875 -3 3.71875 -2.484375 3.71875 -1.75 C 3.71875 -0.984375 3.203125 -0.484375 2.40625 -0.484375 C 1.640625 -0.484375 1.125 -1 1.125 -1.734375 C 1.125 -2.5 1.640625 -3 2.421875 -3 Z M 2.421875 -3 "/>
</g>
<g id="glyph-0-5">
<path d="M 0.6875 0 L 3.59375 0 C 4.203125 0 4.640625 -0.171875 4.984375 -0.53125 C 5.296875 -0.875 5.484375 -1.328125 5.484375 -1.828125 C 5.484375 -2.609375 5.125 -3.0625 4.3125 -3.390625 C 4.90625 -3.65625 5.203125 -4.125 5.203125 -4.78125 C 5.203125 -5.265625 5.015625 -5.671875 4.6875 -5.96875 C 4.34375 -6.265625 3.921875 -6.40625 3.296875 -6.40625 L 0.6875 -6.40625 Z M 1.515625 -3.65625 L 1.515625 -5.6875 L 3.09375 -5.6875 C 3.546875 -5.6875 3.8125 -5.625 4.03125 -5.46875 C 4.25 -5.28125 4.375 -5.015625 4.375 -4.671875 C 4.375 -4.3125 4.25 -4.0625 4.03125 -3.875 C 3.8125 -3.71875 3.546875 -3.65625 3.09375 -3.65625 Z M 1.515625 -0.71875 L 1.515625 -2.921875 L 3.515625 -2.921875 C 4.234375 -2.921875 4.65625 -2.515625 4.65625 -1.828125 C 4.65625 -1.140625 4.234375 -0.71875 3.515625 -0.71875 Z M 1.515625 -0.71875 "/>
</g>
<g id="glyph-0-6">
<path d="M 1.34375 -6.40625 L 0.59375 -6.40625 L 0.59375 0 L 1.34375 0 Z M 1.34375 -6.40625 "/>
</g>
<g id="glyph-0-7">
<path d="M 4.703125 -0.4375 C 4.625 -0.40625 4.59375 -0.40625 4.546875 -0.40625 C 4.296875 -0.40625 4.15625 -0.546875 4.15625 -0.78125 L 4.15625 -3.484375 C 4.15625 -4.296875 3.546875 -4.734375 2.421875 -4.734375 C 1.734375 -4.734375 1.203125 -4.546875 0.890625 -4.203125 C 0.671875 -3.96875 0.59375 -3.703125 0.578125 -3.25 L 1.3125 -3.25 C 1.375 -3.8125 1.703125 -4.0625 2.390625 -4.0625 C 3.0625 -4.0625 3.421875 -3.8125 3.421875 -3.375 L 3.421875 -3.1875 C 3.40625 -2.875 3.25 -2.75 2.65625 -2.671875 C 1.625 -2.546875 1.453125 -2.5 1.171875 -2.390625 C 0.640625 -2.15625 0.375 -1.765625 0.375 -1.15625 C 0.375 -0.328125 0.953125 0.203125 1.875 0.203125 C 2.46875 0.203125 2.921875 0 3.453125 -0.46875 C 3.5 0 3.734375 0.203125 4.203125 0.203125 C 4.359375 0.203125 4.453125 0.1875 4.703125 0.125 Z M 3.421875 -1.453125 C 3.421875 -1.203125 3.359375 -1.0625 3.125 -0.859375 C 2.828125 -0.578125 2.46875 -0.4375 2.046875 -0.4375 C 1.46875 -0.4375 1.140625 -0.71875 1.140625 -1.171875 C 1.140625 -1.65625 1.453125 -1.90625 2.25 -2.015625 C 3.03125 -2.125 3.171875 -2.15625 3.421875 -2.28125 Z M 3.421875 -1.453125 "/>
</g>
<g id="glyph-0-8">
<path d="M 4.359375 -6.40625 L 3.625 -6.40625 L 3.625 -4.03125 C 3.3125 -4.5 2.828125 -4.734375 2.203125 -4.734375 C 1.015625 -4.734375 0.234375 -3.78125 0.234375 -2.3125 C 0.234375 -0.75 0.984375 0.203125 2.234375 0.203125 C 2.875 0.203125 3.3125 -0.03125 3.703125 -0.609375 L 3.703125 0 L 4.359375 0 Z M 2.328125 -4.0625 C 3.125 -4.0625 3.625 -3.359375 3.625 -2.25 C 3.625 -1.1875 3.109375 -0.484375 2.34375 -0.484375 C 1.53125 -0.484375 1 -1.203125 1 -2.265625 C 1 -3.34375 1.53125 -4.0625 2.328125 -4.0625 Z M 2.328125 -4.0625 "/>
</g>
<g id="glyph-0-9">
<path d="M 4.515625 -2.0625 C 4.515625 -2.765625 4.453125 -3.1875 4.328125 -3.53125 C 4.03125 -4.28125 3.328125 -4.734375 2.46875 -4.734375 C 1.171875 -4.734375 0.359375 -3.765625 0.359375 -2.25 C 0.359375 -0.71875 1.140625 0.203125 2.453125 0.203125 C 3.5 0.203125 4.234375 -0.390625 4.421875 -1.40625 L 3.671875 -1.40625 C 3.46875 -0.796875 3.0625 -0.46875 2.46875 -0.46875 C 2 -0.46875 1.609375 -0.6875 1.359375 -1.078125 C 1.1875 -1.34375 1.125 -1.59375 1.125 -2.0625 Z M 1.140625 -2.65625 C 1.203125 -3.515625 1.71875 -4.0625 2.453125 -4.0625 C 3.203125 -4.0625 3.71875 -3.484375 3.71875 -2.65625 Z M 1.140625 -2.65625 "/>
</g>
<g id="glyph-0-10">
<path d="M 0.609375 -4.609375 L 0.609375 0 L 1.34375 0 L 1.34375 -2.390625 C 1.359375 -3.5 1.8125 -4 2.828125 -3.96875 L 2.828125 -4.71875 C 2.703125 -4.734375 2.625 -4.734375 2.546875 -4.734375 C 2.0625 -4.734375 1.703125 -4.453125 1.28125 -3.78125 L 1.28125 -4.609375 Z M 0.609375 -4.609375 "/>
</g>
<g id="glyph-0-11">
<path d="M 0.609375 -4.609375 L 0.609375 0 L 1.359375 0 L 1.359375 -2.546875 C 1.359375 -3.484375 1.84375 -4.09375 2.609375 -4.09375 C 3.1875 -4.09375 3.546875 -3.75 3.546875 -3.1875 L 3.546875 0 L 4.28125 0 L 4.28125 -3.484375 C 4.28125 -4.25 3.71875 -4.734375 2.828125 -4.734375 C 2.140625 -4.734375 1.703125 -4.484375 1.296875 -3.828125 L 1.296875 -4.609375 Z M 0.609375 -4.609375 "/>
</g>
<g id="glyph-0-12">
<path d="M 2.390625 -4.734375 C 1.09375 -4.734375 0.3125 -3.8125 0.3125 -2.265625 C 0.3125 -0.71875 1.09375 0.203125 2.40625 0.203125 C 3.703125 0.203125 4.484375 -0.71875 4.484375 -2.234375 C 4.484375 -3.828125 3.734375 -4.734375 2.390625 -4.734375 Z M 2.40625 -4.0625 C 3.234375 -4.0625 3.71875 -3.390625 3.71875 -2.25 C 3.71875 -1.15625 3.203125 -0.46875 2.40625 -0.46875 C 1.578125 -0.46875 1.078125 -1.15625 1.078125 -2.265625 C 1.078125 -3.390625 1.578125 -4.0625 2.40625 -4.0625 Z M 2.40625 -4.0625 "/>
</g>
<g id="glyph-0-13">
<path d="M 3.859375 -3.328125 C 3.84375 -4.234375 3.25 -4.734375 2.1875 -4.734375 C 1.109375 -4.734375 0.40625 -4.1875 0.40625 -3.328125 C 0.40625 -2.609375 0.78125 -2.265625 1.875 -2 L 2.5625 -1.84375 C 3.0625 -1.71875 3.265625 -1.53125 3.265625 -1.203125 C 3.265625 -0.765625 2.84375 -0.46875 2.203125 -0.46875 C 1.796875 -0.46875 1.46875 -0.59375 1.28125 -0.78125 C 1.171875 -0.921875 1.125 -1.046875 1.078125 -1.375 L 0.296875 -1.375 C 0.328125 -0.3125 0.9375 0.203125 2.140625 0.203125 C 3.296875 0.203125 4.03125 -0.375 4.03125 -1.265625 C 4.03125 -1.9375 3.65625 -2.328125 2.734375 -2.546875 L 2.03125 -2.703125 C 1.4375 -2.84375 1.171875 -3.046875 1.171875 -3.375 C 1.171875 -3.796875 1.5625 -4.0625 2.15625 -4.0625 C 2.75 -4.0625 3.0625 -3.8125 3.078125 -3.328125 Z M 3.859375 -3.328125 "/>
</g>
<g id="glyph-0-14">
</g>
<g id="glyph-0-15">
<path d="M 5.25 -4.53125 C 5.25 -4.96875 5.21875 -5.09375 5.078125 -5.390625 C 4.71875 -6.125 3.96875 -6.515625 2.890625 -6.515625 C 1.484375 -6.515625 0.609375 -5.796875 0.609375 -4.640625 C 0.609375 -3.859375 1.03125 -3.359375 1.875 -3.140625 L 3.46875 -2.71875 C 4.28125 -2.5 4.640625 -2.1875 4.640625 -1.6875 C 4.640625 -1.34375 4.453125 -0.984375 4.1875 -0.796875 C 3.9375 -0.609375 3.53125 -0.515625 3.015625 -0.515625 C 2.3125 -0.515625 1.84375 -0.6875 1.53125 -1.0625 C 1.296875 -1.34375 1.1875 -1.640625 1.203125 -2.046875 L 0.421875 -2.046875 C 0.4375 -1.453125 0.546875 -1.0625 0.796875 -0.71875 C 1.234375 -0.109375 1.984375 0.203125 2.953125 0.203125 C 3.71875 0.203125 4.34375 0.03125 4.765625 -0.296875 C 5.1875 -0.640625 5.46875 -1.203125 5.46875 -1.765625 C 5.46875 -2.546875 4.96875 -3.125 4.09375 -3.375 L 2.484375 -3.796875 C 1.71875 -4.015625 1.4375 -4.25 1.4375 -4.75 C 1.4375 -5.40625 2 -5.828125 2.875 -5.828125 C 3.890625 -5.828125 4.453125 -5.375 4.46875 -4.53125 Z M 5.25 -4.53125 "/>
</g>
<g id="glyph-0-16">
<path d="M 4.84375 -2.921875 L 4.84375 0 L 5.671875 0 L 5.671875 -6.40625 L 4.84375 -6.40625 L 4.84375 -3.640625 L 1.546875 -3.640625 L 1.546875 -6.40625 L 0.734375 -6.40625 L 0.734375 0 L 1.546875 0 L 1.546875 -2.921875 Z M 4.84375 -2.921875 "/>
</g>
<g id="glyph-0-17">
<path d="M 0.46875 -6.40625 L 0.46875 0 L 1.140625 0 L 1.140625 -0.59375 C 1.484375 -0.046875 1.953125 0.203125 2.59375 0.203125 C 3.8125 0.203125 4.59375 -0.796875 4.59375 -2.328125 C 4.59375 -3.8125 3.859375 -4.734375 2.625 -4.734375 C 2 -4.734375 1.546875 -4.5 1.203125 -3.984375 L 1.203125 -6.40625 Z M 2.484375 -4.0625 C 3.3125 -4.0625 3.828125 -3.34375 3.828125 -2.25 C 3.828125 -1.203125 3.296875 -0.484375 2.484375 -0.484375 C 1.703125 -0.484375 1.203125 -1.1875 1.203125 -2.265625 C 1.203125 -3.359375 1.703125 -4.0625 2.484375 -4.0625 Z M 2.484375 -4.0625 "/>
</g>
<g id="glyph-0-18">
<path d="M 4.234375 0 L 4.234375 -4.609375 L 3.515625 -4.609375 L 3.515625 -2 C 3.515625 -1.0625 3.015625 -0.4375 2.25 -0.4375 C 1.671875 -0.4375 1.296875 -0.796875 1.296875 -1.34375 L 1.296875 -4.609375 L 0.578125 -4.609375 L 0.578125 -1.0625 C 0.578125 -0.296875 1.140625 0.203125 2.046875 0.203125 C 2.71875 0.203125 3.15625 -0.03125 3.578125 -0.640625 L 3.578125 0 Z M 4.234375 0 "/>
</g>
<g id="glyph-0-19">
<path d="M 6.546875 0 L 8.171875 -6.40625 L 7.25 -6.40625 L 6.078125 -1.203125 L 4.625 -6.40625 L 3.734375 -6.40625 L 2.3125 -1.203125 L 1.109375 -6.40625 L 0.1875 -6.40625 L 1.84375 0 L 2.734375 0 L 4.171875 -5.265625 L 5.640625 0 Z M 6.546875 0 "/>
</g>
<g id="glyph-1-0">
<path d="M 6.5625 -5.671875 C 6.5625 -6.21875 6.515625 -6.375 6.34375 -6.75 C 5.90625 -7.671875 4.96875 -8.15625 3.625 -8.15625 C 1.859375 -8.15625 0.765625 -7.25 0.765625 -5.796875 C 0.765625 -4.8125 1.28125 -4.203125 2.34375 -3.921875 L 4.328125 -3.40625 C 5.359375 -3.140625 5.8125 -2.734375 5.8125 -2.09375 C 5.8125 -1.671875 5.578125 -1.234375 5.234375 -0.984375 C 4.921875 -0.765625 4.40625 -0.65625 3.765625 -0.65625 C 2.875 -0.65625 2.296875 -0.859375 1.90625 -1.3125 C 1.609375 -1.671875 1.484375 -2.0625 1.5 -2.546875 L 0.53125 -2.546875 C 0.53125 -1.8125 0.6875 -1.328125 1 -0.890625 C 1.546875 -0.125 2.46875 0.25 3.703125 0.25 C 4.65625 0.25 5.4375 0.03125 5.953125 -0.359375 C 6.484375 -0.796875 6.828125 -1.5 6.828125 -2.203125 C 6.828125 -3.1875 6.21875 -3.921875 5.125 -4.21875 L 3.109375 -4.75 C 2.140625 -5.015625 1.796875 -5.328125 1.796875 -5.9375 C 1.796875 -6.75 2.515625 -7.296875 3.59375 -7.296875 C 4.859375 -7.296875 5.578125 -6.71875 5.59375 -5.671875 Z M 6.5625 -5.671875 "/>
</g>
<g id="glyph-1-1">
<path d="M 0.59375 2.390625 L 1.515625 2.390625 L 1.515625 -0.609375 C 2 -0.015625 2.546875 0.25 3.28125 0.25 C 4.78125 0.25 5.75 -0.953125 5.75 -2.78125 C 5.75 -4.71875 4.8125 -5.921875 3.28125 -5.921875 C 2.5 -5.921875 1.875 -5.578125 1.4375 -4.890625 L 1.4375 -5.765625 L 0.59375 -5.765625 Z M 3.125 -5.078125 C 4.140625 -5.078125 4.796875 -4.1875 4.796875 -2.8125 C 4.796875 -1.5 4.125 -0.609375 3.125 -0.609375 C 2.140625 -0.609375 1.515625 -1.484375 1.515625 -2.84375 C 1.515625 -4.1875 2.140625 -5.078125 3.125 -5.078125 Z M 3.125 -5.078125 "/>
</g>
<g id="glyph-1-2">
<path d="M 5.640625 -2.578125 C 5.640625 -3.453125 5.578125 -3.984375 5.40625 -4.40625 C 5.03125 -5.359375 4.15625 -5.921875 3.078125 -5.921875 C 1.46875 -5.921875 0.4375 -4.703125 0.4375 -2.8125 C 0.4375 -0.90625 1.4375 0.25 3.0625 0.25 C 4.375 0.25 5.296875 -0.5 5.515625 -1.75 L 4.59375 -1.75 C 4.34375 -0.984375 3.828125 -0.59375 3.09375 -0.59375 C 2.515625 -0.59375 2.015625 -0.859375 1.703125 -1.34375 C 1.484375 -1.671875 1.40625 -2 1.390625 -2.578125 Z M 1.421875 -3.328125 C 1.5 -4.390625 2.140625 -5.078125 3.0625 -5.078125 C 4 -5.078125 4.65625 -4.359375 4.65625 -3.328125 Z M 1.421875 -3.328125 "/>
</g>
<g id="glyph-1-3">
<path d="M 5.1875 -3.828125 C 5.140625 -4.390625 5.015625 -4.75 4.796875 -5.078125 C 4.40625 -5.609375 3.703125 -5.921875 2.90625 -5.921875 C 1.34375 -5.921875 0.34375 -4.703125 0.34375 -2.78125 C 0.34375 -0.921875 1.328125 0.25 2.890625 0.25 C 4.265625 0.25 5.140625 -0.578125 5.25 -1.984375 L 4.328125 -1.984375 C 4.171875 -1.0625 3.703125 -0.59375 2.921875 -0.59375 C 1.90625 -0.59375 1.296875 -1.421875 1.296875 -2.78125 C 1.296875 -4.21875 1.890625 -5.078125 2.890625 -5.078125 C 3.65625 -5.078125 4.140625 -4.625 4.25 -3.828125 Z M 5.1875 -3.828125 "/>
</g>
<g id="glyph-1-4">
<path d="M 1.65625 -5.765625 L 0.734375 -5.765625 L 0.734375 0 L 1.65625 0 Z M 1.65625 -8.015625 L 0.71875 -8.015625 L 0.71875 -6.859375 L 1.65625 -6.859375 Z M 1.65625 -8.015625 "/>
</g>
<g id="glyph-1-5">
<path d="M 4.8125 -4.15625 C 4.8125 -5.296875 4.0625 -5.921875 2.734375 -5.921875 C 1.390625 -5.921875 0.515625 -5.234375 0.515625 -4.171875 C 0.515625 -3.265625 0.984375 -2.84375 2.34375 -2.515625 L 3.203125 -2.296875 C 3.84375 -2.140625 4.09375 -1.90625 4.09375 -1.5 C 4.09375 -0.953125 3.546875 -0.59375 2.75 -0.59375 C 2.25 -0.59375 1.84375 -0.734375 1.609375 -0.984375 C 1.46875 -1.140625 1.390625 -1.3125 1.34375 -1.71875 L 0.375 -1.71875 C 0.421875 -0.390625 1.171875 0.25 2.671875 0.25 C 4.125 0.25 5.046875 -0.46875 5.046875 -1.578125 C 5.046875 -2.4375 4.5625 -2.90625 3.421875 -3.171875 L 2.546875 -3.390625 C 1.796875 -3.5625 1.46875 -3.8125 1.46875 -4.21875 C 1.46875 -4.75 1.953125 -5.078125 2.6875 -5.078125 C 3.4375 -5.078125 3.828125 -4.765625 3.84375 -4.15625 Z M 4.8125 -4.15625 "/>
</g>
<g id="glyph-2-0">
<path d="M 0 -5.140625 L -6.71875 -7.40625 L 0 -7.40625 L 0 -8.375 L -8.015625 -8.375 L -8.015625 -6.953125 L -1.03125 -4.625 L -8.015625 -2.25 L -8.015625 -0.828125 L 0 -0.828125 L 0 -1.796875 L -6.71875 -1.796875 L 0 -4.0625 Z M 0 -5.140625 "/>
</g>
<g id="glyph-2-1">
<path d="M -5.765625 -4.265625 L -1.28125 -2.671875 L -5.765625 -1.203125 L -5.765625 -0.21875 L 0.015625 -2.171875 L 0.9375 -1.8125 C 1.34375 -1.65625 1.5 -1.46875 1.5 -1.078125 C 1.5 -0.921875 1.46875 -0.796875 1.4375 -0.59375 L 2.25 -0.59375 C 2.359375 -0.78125 2.390625 -0.96875 2.390625 -1.203125 C 2.390625 -1.5 2.296875 -1.828125 2.125 -2.0625 C 1.90625 -2.359375 1.671875 -2.515625 1.203125 -2.6875 L -5.765625 -5.265625 Z M -5.765625 -4.265625 "/>
</g>
<g id="glyph-2-2">
<path d="M -5.921875 -2.984375 C -5.921875 -1.359375 -4.78125 -0.390625 -2.84375 -0.390625 C -0.890625 -0.390625 0.25 -1.359375 0.25 -3 C 0.25 -4.625 -0.90625 -5.609375 -2.796875 -5.609375 C -4.796875 -5.609375 -5.921875 -4.65625 -5.921875 -2.984375 Z M -5.078125 -3 C -5.078125 -4.03125 -4.234375 -4.65625 -2.8125 -4.65625 C -1.4375 -4.65625 -0.59375 -4.015625 -0.59375 -3 C -0.59375 -1.984375 -1.4375 -1.359375 -2.84375 -1.359375 C -4.234375 -1.359375 -5.078125 -1.984375 -5.078125 -3 Z M -5.078125 -3 "/>
</g>
<g id="glyph-2-3">
<path d="M -5.765625 -4.4375 L -4.921875 -4.4375 C -5.625 -3.984375 -5.921875 -3.46875 -5.921875 -2.75 C -5.921875 -1.359375 -4.625 -0.390625 -2.78125 -0.390625 C -1.8125 -0.390625 -1.109375 -0.609375 -0.53125 -1.109375 C -0.015625 -1.546875 0.25 -2.09375 0.25 -2.6875 C 0.25 -3.375 -0.0625 -3.875 -0.78125 -4.359375 L -0.484375 -4.359375 C 1.0625 -4.359375 1.625 -3.921875 1.625 -2.78125 C 1.625 -2 1.3125 -1.59375 0.65625 -1.5 L 0.65625 -0.578125 C 1.734375 -0.65625 2.390625 -1.5 2.390625 -2.765625 C 2.390625 -3.609375 2.125 -4.3125 1.65625 -4.6875 C 1.125 -5.125 0.40625 -5.296875 -0.953125 -5.296875 L -5.765625 -5.296875 Z M -5.078125 -2.84375 C -5.078125 -3.8125 -4.265625 -4.359375 -2.8125 -4.359375 C -1.40625 -4.359375 -0.59375 -3.796875 -0.59375 -2.84375 C -0.59375 -1.890625 -1.421875 -1.34375 -2.84375 -1.34375 C -4.25 -1.34375 -5.078125 -1.890625 -5.078125 -2.84375 Z M -5.078125 -2.84375 "/>
</g>
<g id="glyph-2-4">
<path d="M -8.015625 -1.671875 L -8.015625 -0.75 L 0 -0.75 L 0 -1.671875 Z M -8.015625 -1.671875 "/>
</g>
<g id="glyph-2-5">
<path d="M -8.015625 -0.59375 L 0 -0.59375 L 0 -1.421875 L -0.734375 -1.421875 C -0.0625 -1.859375 0.25 -2.4375 0.25 -3.25 C 0.25 -4.765625 -0.984375 -5.75 -2.90625 -5.75 C -4.78125 -5.75 -5.921875 -4.8125 -5.921875 -3.28125 C -5.921875 -2.5 -5.625 -1.9375 -4.984375 -1.5 L -8.015625 -1.5 Z M -5.078125 -3.109375 C -5.078125 -4.140625 -4.1875 -4.796875 -2.8125 -4.796875 C -1.5 -4.796875 -0.609375 -4.109375 -0.609375 -3.109375 C -0.609375 -2.140625 -1.484375 -1.5 -2.84375 -1.5 C -4.1875 -1.5 -5.078125 -2.140625 -5.078125 -3.109375 Z M -5.078125 -3.109375 "/>
</g>
<g id="glyph-2-6">
<path d="M -5.765625 -1.65625 L -5.765625 -0.734375 L 0 -0.734375 L 0 -1.65625 Z M -8.015625 -1.65625 L -8.015625 -0.71875 L -6.859375 -0.71875 L -6.859375 -1.65625 Z M -8.015625 -1.65625 "/>
</g>
<g id="glyph-2-7">
<path d="M -5.765625 -0.765625 L 0 -0.765625 L 0 -1.6875 L -3.171875 -1.6875 C -4.359375 -1.6875 -5.125 -2.3125 -5.125 -3.25 C -5.125 -3.984375 -4.6875 -4.4375 -4 -4.4375 L 0 -4.4375 L 0 -5.359375 L -4.359375 -5.359375 C -5.3125 -5.359375 -5.921875 -4.640625 -5.921875 -3.53125 C -5.921875 -2.671875 -5.59375 -2.125 -4.796875 -1.609375 L -5.765625 -1.609375 Z M -5.765625 -0.765625 "/>
</g>
<g id="glyph-2-8">
</g>
<g id="glyph-2-9">
<path d="M -8.015625 -2.59375 C -6.578125 -1.5 -4.578125 -0.796875 -2.84375 -0.796875 C -1.109375 -0.796875 0.890625 -1.5 2.328125 -2.59375 L 2.328125 -3.203125 C 0.765625 -2.234375 -1.09375 -1.6875 -2.84375 -1.6875 C -4.59375 -1.6875 -6.453125 -2.234375 -8.015625 -3.203125 Z M -8.015625 -2.59375 "/>
</g>
<g id="glyph-2-10">
<path d="M -8.015625 -2.515625 L 0.21875 0.09375 L 0.21875 -0.515625 L -8.015625 -3.125 Z M -8.015625 -2.515625 "/>
</g>
<g id="glyph-2-11">
<path d="M -8.015625 -1.546875 L -8.015625 -0.640625 L 0 -0.640625 L 0 -1.546875 L -2.25 -1.546875 L -3.125 -2.4375 L 0 -4.390625 L 0 -5.515625 L -3.765625 -3.171875 L -5.765625 -5.171875 L -5.765625 -4 L -3.328125 -1.546875 Z M -8.015625 -1.546875 "/>
</g>
<g id="glyph-2-12">
<path d="M 2.328125 -1.015625 C 0.890625 -2.125 -1.109375 -2.8125 -2.84375 -2.8125 C -4.578125 -2.8125 -6.578125 -2.125 -8.015625 -1.015625 L -8.015625 -0.421875 C -6.453125 -1.390625 -4.59375 -1.921875 -2.84375 -1.921875 C -1.09375 -1.921875 0.765625 -1.390625 2.328125 -0.421875 Z M 2.328125 -1.015625 "/>
</g>
</g>
<clipPath id="clip-0">
<path clip-rule="nonzero" d="M 35.152344 5.480469 L 498.523438 5.480469 L 498.523438 325.851562 L 35.152344 325.851562 Z M 35.152344 5.480469 "/>
</clipPath>
</defs>
<rect x="-50.4" y="-36" width="604.8" height="432" fill="rgb(100%, 100%, 100%)" fill-opacity="1"/>
<rect x="-50.4" y="-36" width="604.8" height="432" fill="rgb(100%, 100%, 100%)" fill-opacity="1"/>
<path fill="none" stroke-width="1.066978" stroke-linecap="round" stroke-linejoin="round" stroke="rgb(100%, 100%, 100%)" stroke-opacity="1" stroke-miterlimit="10" d="M 0 360 L 504 360 L 504 0 L 0 0 Z M 0 360 "/>
<g clip-path="url(#clip-0)">
<path fill-rule="nonzero" fill="rgb(100%, 100%, 100%)" fill-opacity="1" d="M 35.152344 325.847656 L 498.523438 325.847656 L 498.523438 5.476562 L 35.152344 5.476562 Z M 35.152344 325.847656 "/>
</g>
<path fill-rule="nonzero" fill="rgb(0%, 0%, 0%)" fill-opacity="1" stroke-width="0.708661" stroke-linecap="round" stroke-linejoin="round" stroke="rgb(0%, 0%, 0%)" stroke-opacity="1" stroke-miterlimit="10" d="M 258.480469 126.859375 C 258.480469 129.464844 254.570312 129.464844 254.570312 126.859375 C 254.570312 124.253906 258.480469 124.253906 258.480469 126.859375 "/>
<path fill-rule="nonzero" fill="rgb(0%, 0%, 0%)" fill-opacity="1" stroke-width="0.708661" stroke-linecap="round" stroke-linejoin="round" stroke="rgb(0%, 0%, 0%)" stroke-opacity="1" stroke-miterlimit="10" d="M 272.605469 121.535156 C 272.605469 124.140625 268.695312 124.140625 268.695312 121.535156 C 268.695312 118.925781 272.605469 118.925781 272.605469 121.535156 "/>
<path fill-rule="nonzero" fill="rgb(0%, 0%, 0%)" fill-opacity="1" stroke-width="0.708661" stroke-linecap="round" stroke-linejoin="round" stroke="rgb(0%, 0%, 0%)" stroke-opacity="1" stroke-miterlimit="10" d="M 263.007812 159.378906 C 263.007812 161.984375 259.097656 161.984375 259.097656 159.378906 C 259.097656 156.769531 263.007812 156.769531 263.007812 159.378906 "/>
<path fill-rule="nonzero" fill="rgb(0%, 0%, 0%)" fill-opacity="1" stroke-width="0.708661" stroke-linecap="round" stroke-linejoin="round" stroke="rgb(0%, 0%, 0%)" stroke-opacity="1" stroke-miterlimit="10" d="M 255.167969 143.359375 C 255.167969 145.964844 251.257812 145.964844 251.257812 143.359375 C 251.257812 140.753906 255.167969 140.753906 255.167969 143.359375 "/>
<path fill-rule="nonzero" fill="rgb(0%, 0%, 0%)" fill-opacity="1" stroke-width="0.708661" stroke-linecap="round" stroke-linejoin="round" stroke="rgb(0%, 0%, 0%)" stroke-opacity="1" stroke-miterlimit="10" d="M 276.1875 168.148438 C 276.1875 170.753906 272.277344 170.753906 272.277344 168.148438 C 272.277344 165.539062 276.1875 165.539062 276.1875 168.148438 "/>
<path fill-rule="nonzero" fill="rgb(0%, 0%, 0%)" fill-opacity="1" stroke-width="0.708661" stroke-linecap="round" stroke-linejoin="round" stroke="rgb(0%, 0%, 0%)" stroke-opacity="1" stroke-miterlimit="10" d="M 279.414062 153.410156 C 279.414062 156.015625 275.503906 156.015625 275.503906 153.410156 C 275.503906 150.804688 279.414062 150.804688 279.414062 153.410156 "/>
<path fill-rule="nonzero" fill="rgb(0%, 0%, 0%)" fill-opacity="1" stroke-width="0.708661" stroke-linecap="round" stroke-linejoin="round" stroke="rgb(0%, 0%, 0%)" stroke-opacity="1" stroke-miterlimit="10" d="M 266.558594 102.871094 C 266.558594 105.476562 262.648438 105.476562 262.648438 102.871094 C 262.648438 100.265625 266.558594 100.265625 266.558594 102.871094 "/>
<path fill-rule="nonzero" fill="rgb(0%, 0%, 0%)" fill-opacity="1" stroke-width="0.708661" stroke-linecap="round" stroke-linejoin="round" stroke="rgb(0%, 0%, 0%)" stroke-opacity="1" stroke-miterlimit="10" d="M 277.691406 61.222656 C 277.691406 63.832031 273.78125 63.832031 273.78125 61.222656 C 273.78125 58.617188 277.691406 58.617188 277.691406 61.222656 "/>
<path fill-rule="nonzero" fill="rgb(0%, 0%, 0%)" fill-opacity="1" stroke-width="0.708661" stroke-linecap="round" stroke-linejoin="round" stroke="rgb(0%, 0%, 0%)" stroke-opacity="1" stroke-miterlimit="10" d="M 264.023438 101.550781 C 264.023438 104.15625 260.113281 104.15625 260.113281 101.550781 C 260.113281 98.945312 264.023438 98.945312 264.023438 101.550781 "/>
<path fill-rule="nonzero" fill="rgb(0%, 0%, 0%)" fill-opacity="1" stroke-width="0.708661" stroke-linecap="round" stroke-linejoin="round" stroke="rgb(0%, 0%, 0%)" stroke-opacity="1" stroke-miterlimit="10" d="M 259.425781 137.472656 C 259.425781 140.078125 255.515625 140.078125 255.515625 137.472656 C 255.515625 134.867188 259.425781 134.867188 259.425781 137.472656 "/>
<path fill-rule="nonzero" fill="rgb(0%, 0%, 0%)" fill-opacity="1" stroke-width="0.708661" stroke-linecap="round" stroke-linejoin="round" stroke="rgb(0%, 0%, 0%)" stroke-opacity="1" stroke-miterlimit="10" d="M 261.515625 119.691406 C 261.515625 122.296875 257.605469 122.296875 257.605469 119.691406 C 257.605469 117.085938 261.515625 117.085938 261.515625 119.691406 "/>
<path fill-rule="nonzero" fill="rgb(0%, 0%, 0%)" fill-opacity="1" stroke-width="0.708661" stroke-linecap="round" stroke-linejoin="round" stroke="rgb(0%, 0%, 0%)" stroke-opacity="1" stroke-miterlimit="10" d="M 274.125 122.09375 C 274.125 124.699219 270.214844 124.699219 270.214844 122.09375 C 270.214844 119.488281 274.125 119.488281 274.125 122.09375 "/>
<path fill-rule="nonzero" fill="rgb(0%, 0%, 0%)" fill-opacity="1" stroke-width="0.708661" stroke-linecap="round" stroke-linejoin="round" stroke="rgb(0%, 0%, 0%)" stroke-opacity="1" stroke-miterlimit="10" d="M 268.300781 112.121094 C 268.300781 114.730469 264.390625 114.730469 264.390625 112.121094 C 264.390625 109.515625 268.300781 109.515625 268.300781 112.121094 "/>
<path fill-rule="nonzero" fill="rgb(0%, 0%, 0%)" fill-opacity="1" stroke-width="0.708661" stroke-linecap="round" stroke-linejoin="round" stroke="rgb(0%, 0%, 0%)" stroke-opacity="1" stroke-miterlimit="10" d="M 274.773438 184.605469 C 274.773438 187.210938 270.863281 187.210938 270.863281 184.605469 C 270.863281 182 274.773438 182 274.773438 184.605469 "/>
<path fill-rule="nonzero" fill="rgb(0%, 0%, 0%)" fill-opacity="1" stroke-width="0.708661" stroke-linecap="round" stroke-linejoin="round" stroke="rgb(0%, 0%, 0%)" stroke-opacity="1" stroke-miterlimit="10" d="M 276.246094 144.640625 C 276.246094 147.246094 272.335938 147.246094 272.335938 144.640625 C 272.335938 142.035156 276.246094 142.035156 276.246094 144.640625 "/>
<path fill-rule="nonzero" fill="rgb(0%, 0%, 0%)" fill-opacity="1" stroke-width="0.708661" stroke-linecap="round" stroke-linejoin="round" stroke="rgb(0%, 0%, 0%)" stroke-opacity="1" stroke-miterlimit="10" d="M 272.035156 172.273438 C 272.035156 174.878906 268.125 174.878906 268.125 172.273438 C 268.125 169.664062 272.035156 169.664062 272.035156 172.273438 "/>
<path fill-rule="nonzero" fill="rgb(0%, 0%, 0%)" fill-opacity="1" stroke-width="0.708661" stroke-linecap="round" stroke-linejoin="round" stroke="rgb(0%, 0%, 0%)" stroke-opacity="1" stroke-miterlimit="10" d="M 268.878906 123.734375 C 268.878906 126.34375 264.972656 126.34375 264.972656 123.734375 C 264.972656 121.128906 268.878906 121.128906 268.878906 123.734375 "/>
<path fill-rule="nonzero" fill="rgb(0%, 0%, 0%)" fill-opacity="1" stroke-width="0.708661" stroke-linecap="round" stroke-linejoin="round" stroke="rgb(0%, 0%, 0%)" stroke-opacity="1" stroke-miterlimit="10" d="M 266.117188 128.101562 C 266.117188 130.707031 262.207031 130.707031 262.207031 128.101562 C 262.207031 125.496094 266.117188 125.496094 266.117188 128.101562 "/>
<path fill-rule="nonzero" fill="rgb(0%, 0%, 0%)" fill-opacity="1" stroke-width="0.708661" stroke-linecap="round" stroke-linejoin="round" stroke="rgb(0%, 0%, 0%)" stroke-opacity="1" stroke-miterlimit="10" d="M 260.261719 159.097656 C 260.261719 161.703125 256.351562 161.703125 256.351562 159.097656 C 256.351562 156.492188 260.261719 156.492188 260.261719 159.097656 "/>
<path fill-rule="nonzero" fill="rgb(0%, 0%, 0%)" fill-opacity="1" stroke-width="0.708661" stroke-linecap="round" stroke-linejoin="round" stroke="rgb(0%, 0%, 0%)" stroke-opacity="1" stroke-miterlimit="10" d="M 268.949219 159.738281 C 268.949219 162.34375 265.039062 162.34375 265.039062 159.738281 C 265.039062 157.132812 268.949219 157.132812 268.949219 159.738281 "/>
<path fill-rule="nonzero" fill="rgb(0%, 0%, 0%)" fill-opacity="1" stroke-width="0.708661" stroke-linecap="round" stroke-linejoin="round" stroke="rgb(0%, 0%, 0%)" stroke-opacity="1" stroke-miterlimit="10" d="M 267.828125 142.476562 C 267.828125 145.085938 263.917969 145.085938 263.917969 142.476562 C 263.917969 139.871094 267.828125 139.871094 267.828125 142.476562 "/>
<path fill-rule="nonzero" fill="rgb(0%, 0%, 0%)" fill-opacity="1" stroke-width="0.708661" stroke-linecap="round" stroke-linejoin="round" stroke="rgb(0%, 0%, 0%)" stroke-opacity="1" stroke-miterlimit="10" d="M 281.445312 133.308594 C 281.445312 135.914062 277.535156 135.914062 277.535156 133.308594 C 277.535156 130.699219 281.445312 130.699219 281.445312 133.308594 "/>
<path fill-rule="nonzero" fill="rgb(0%, 0%, 0%)" fill-opacity="1" stroke-width="0.708661" stroke-linecap="round" stroke-linejoin="round" stroke="rgb(0%, 0%, 0%)" stroke-opacity="1" stroke-miterlimit="10" d="M 263.453125 96.425781 C 263.453125 99.03125 259.542969 99.03125 259.542969 96.425781 C 259.542969 93.816406 263.453125 93.816406 263.453125 96.425781 "/>
<path fill-rule="nonzero" fill="rgb(0%, 0%, 0%)" fill-opacity="1" stroke-width="0.708661" stroke-linecap="round" stroke-linejoin="round" stroke="rgb(0%, 0%, 0%)" stroke-opacity="1" stroke-miterlimit="10" d="M 273.277344 80.925781 C 273.277344 83.53125 269.367188 83.53125 269.367188 80.925781 C 269.367188 78.320312 273.277344 78.320312 273.277344 80.925781 "/>
<path fill-rule="nonzero" fill="rgb(0%, 0%, 0%)" fill-opacity="1" stroke-width="0.708661" stroke-linecap="round" stroke-linejoin="round" stroke="rgb(0%, 0%, 0%)" stroke-opacity="1" stroke-miterlimit="10" d="M 254.832031 130.261719 C 254.832031 132.871094 250.921875 132.871094 250.921875 130.261719 C 250.921875 127.65625 254.832031 127.65625 254.832031 130.261719 "/>
<path fill-rule="nonzero" fill="rgb(0%, 0%, 0%)" fill-opacity="1" stroke-width="0.708661" stroke-linecap="round" stroke-linejoin="round" stroke="rgb(0%, 0%, 0%)" stroke-opacity="1" stroke-miterlimit="10" d="M 266.597656 76.722656 C 266.597656 79.328125 262.6875 79.328125 262.6875 76.722656 C 262.6875 74.117188 266.597656 74.117188 266.597656 76.722656 "/>
<path fill-rule="nonzero" fill="rgb(0%, 0%, 0%)" fill-opacity="1" stroke-width="0.708661" stroke-linecap="round" stroke-linejoin="round" stroke="rgb(0%, 0%, 0%)" stroke-opacity="1" stroke-miterlimit="10" d="M 275.84375 173.714844 C 275.84375 176.320312 271.933594 176.320312 271.933594 173.714844 C 271.933594 171.105469 275.84375 171.105469 275.84375 173.714844 "/>
<path fill-rule="nonzero" fill="rgb(0%, 0%, 0%)" fill-opacity="1" stroke-width="0.708661" stroke-linecap="round" stroke-linejoin="round" stroke="rgb(0%, 0%, 0%)" stroke-opacity="1" stroke-miterlimit="10" d="M 282.902344 163.382812 C 282.902344 165.988281 278.992188 165.988281 278.992188 163.382812 C 278.992188 160.773438 282.902344 160.773438 282.902344 163.382812 "/>
<path fill-rule="nonzero" fill="rgb(0%, 0%, 0%)" fill-opacity="1" stroke-width="0.708661" stroke-linecap="round" stroke-linejoin="round" stroke="rgb(0%, 0%, 0%)" stroke-opacity="1" stroke-miterlimit="10" d="M 275.34375 56.5 C 275.34375 59.105469 271.433594 59.105469 271.433594 56.5 C 271.433594 53.890625 275.34375 53.890625 275.34375 56.5 "/>
<path fill-rule="nonzero" fill="rgb(0%, 0%, 0%)" fill-opacity="1" stroke-width="0.708661" stroke-linecap="round" stroke-linejoin="round" stroke="rgb(0%, 0%, 0%)" stroke-opacity="1" stroke-miterlimit="10" d="M 280.890625 131.824219 C 280.890625 134.433594 276.980469 134.433594 276.980469 131.824219 C 276.980469 129.21875 280.890625 129.21875 280.890625 131.824219 "/>
<path fill-rule="nonzero" fill="rgb(0%, 0%, 0%)" fill-opacity="1" stroke-width="0.708661" stroke-linecap="round" stroke-linejoin="round" stroke="rgb(0%, 0%, 0%)" stroke-opacity="1" stroke-miterlimit="10" d="M 419.921875 103.953125 C 419.921875 106.558594 416.011719 106.558594 416.011719 103.953125 C 416.011719 101.347656 419.921875 101.347656 419.921875 103.953125 "/>
<path fill-rule="nonzero" fill="rgb(0%, 0%, 0%)" fill-opacity="1" stroke-width="0.708661" stroke-linecap="round" stroke-linejoin="round" stroke="rgb(0%, 0%, 0%)" stroke-opacity="1" stroke-miterlimit="10" d="M 407.539062 165.34375 C 407.539062 167.949219 403.628906 167.949219 403.628906 165.34375 C 403.628906 162.738281 407.539062 162.738281 407.539062 165.34375 "/>
<path fill-rule="nonzero" fill="rgb(0%, 0%, 0%)" fill-opacity="1" stroke-width="0.708661" stroke-linecap="round" stroke-linejoin="round" stroke="rgb(0%, 0%, 0%)" stroke-opacity="1" stroke-miterlimit="10" d="M 414.484375 140.476562 C 414.484375 143.082031 410.574219 143.082031 410.574219 140.476562 C 410.574219 137.867188 414.484375 137.867188 414.484375 140.476562 "/>
<path fill-rule="nonzero" fill="rgb(0%, 0%, 0%)" fill-opacity="1" stroke-width="0.708661" stroke-linecap="round" stroke-linejoin="round" stroke="rgb(0%, 0%, 0%)" stroke-opacity="1" stroke-miterlimit="10" d="M 419.515625 206.390625 C 419.515625 208.996094 415.605469 208.996094 415.605469 206.390625 C 415.605469 203.785156 419.515625 203.785156 419.515625 206.390625 "/>
<path fill-rule="nonzero" fill="rgb(0%, 0%, 0%)" fill-opacity="1" stroke-width="0.708661" stroke-linecap="round" stroke-linejoin="round" stroke="rgb(0%, 0%, 0%)" stroke-opacity="1" stroke-miterlimit="10" d="M 407.589844 115.605469 C 407.589844 118.214844 403.679688 118.214844 403.679688 115.605469 C 403.679688 113 407.589844 113 407.589844 115.605469 "/>
<path fill-rule="nonzero" fill="rgb(0%, 0%, 0%)" fill-opacity="1" stroke-width="0.708661" stroke-linecap="round" stroke-linejoin="round" stroke="rgb(0%, 0%, 0%)" stroke-opacity="1" stroke-miterlimit="10" d="M 419.023438 176.195312 C 419.023438 178.804688 415.113281 178.804688 415.113281 176.195312 C 415.113281 173.589844 419.023438 173.589844 419.023438 176.195312 "/>
<path fill-rule="nonzero" fill="rgb(0%, 0%, 0%)" fill-opacity="1" stroke-width="0.708661" stroke-linecap="round" stroke-linejoin="round" stroke="rgb(0%, 0%, 0%)" stroke-opacity="1" stroke-miterlimit="10" d="M 411.703125 154.410156 C 411.703125 157.019531 407.792969 157.019531 407.792969 154.410156 C 407.792969 151.804688 411.703125 151.804688 411.703125 154.410156 "/>
<path fill-rule="nonzero" fill="rgb(0%, 0%, 0%)" fill-opacity="1" stroke-width="0.708661" stroke-linecap="round" stroke-linejoin="round" stroke="rgb(0%, 0%, 0%)" stroke-opacity="1" stroke-miterlimit="10" d="M 400.101562 120.210938 C 400.101562 122.816406 396.191406 122.816406 396.191406 120.210938 C 396.191406 117.605469 400.101562 117.605469 400.101562 120.210938 "/>
<path fill-rule="nonzero" fill="rgb(0%, 0%, 0%)" fill-opacity="1" stroke-width="0.708661" stroke-linecap="round" stroke-linejoin="round" stroke="rgb(0%, 0%, 0%)" stroke-opacity="1" stroke-miterlimit="10" d="M 416.8125 131.585938 C 416.8125 134.191406 412.902344 134.191406 412.902344 131.585938 C 412.902344 128.980469 416.8125 128.980469 416.8125 131.585938 "/>
<path fill-rule="nonzero" fill="rgb(0%, 0%, 0%)" fill-opacity="1" stroke-width="0.708661" stroke-linecap="round" stroke-linejoin="round" stroke="rgb(0%, 0%, 0%)" stroke-opacity="1" stroke-miterlimit="10" d="M 422.269531 149.566406 C 422.269531 152.171875 418.363281 152.171875 418.363281 149.566406 C 418.363281 146.960938 422.269531 146.960938 422.269531 149.566406 "/>
<path fill-rule="nonzero" fill="rgb(0%, 0%, 0%)" fill-opacity="1" stroke-width="0.708661" stroke-linecap="round" stroke-linejoin="round" stroke="rgb(0%, 0%, 0%)" stroke-opacity="1" stroke-miterlimit="10" d="M 401.050781 93.582031 C 401.050781 96.1875 397.140625 96.1875 397.140625 93.582031 C 397.140625 90.976562 401.050781 90.976562 401.050781 93.582031 "/>
<path fill-rule="nonzero" fill="rgb(0%, 0%, 0%)" fill-opacity="1" stroke-width="0.708661" stroke-linecap="round" stroke-linejoin="round" stroke="rgb(0%, 0%, 0%)" stroke-opacity="1" stroke-miterlimit="10" d="M 424.550781 143.960938 C 424.550781 146.566406 420.640625 146.566406 420.640625 143.960938 C 420.640625 141.351562 424.550781 141.351562 424.550781 143.960938 "/>
<path fill-rule="nonzero" fill="rgb(0%, 0%, 0%)" fill-opacity="1" stroke-width="0.708661" stroke-linecap="round" stroke-linejoin="round" stroke="rgb(0%, 0%, 0%)" stroke-opacity="1" stroke-miterlimit="10" d="M 412.113281 177.238281 C 412.113281 179.84375 408.203125 179.84375 408.203125 177.238281 C 408.203125 174.632812 412.113281 174.632812 412.113281 177.238281 "/>
<path fill-rule="nonzero" fill="rgb(0%, 0%, 0%)" fill-opacity="1" stroke-width="0.708661" stroke-linecap="round" stroke-linejoin="round" stroke="rgb(0%, 0%, 0%)" stroke-opacity="1" stroke-miterlimit="10" d="M 410.96875 168.585938 C 410.96875 171.195312 407.058594 171.195312 407.058594 168.585938 C 407.058594 165.980469 410.96875 165.980469 410.96875 168.585938 "/>
<path fill-rule="nonzero" fill="rgb(0%, 0%, 0%)" fill-opacity="1" stroke-width="0.708661" stroke-linecap="round" stroke-linejoin="round" stroke="rgb(0%, 0%, 0%)" stroke-opacity="1" stroke-miterlimit="10" d="M 401 145.039062 C 401 147.648438 397.089844 147.648438 397.089844 145.039062 C 397.089844 142.433594 401 142.433594 401 145.039062 "/>
<path fill-rule="nonzero" fill="rgb(0%, 0%, 0%)" fill-opacity="1" stroke-width="0.708661" stroke-linecap="round" stroke-linejoin="round" stroke="rgb(0%, 0%, 0%)" stroke-opacity="1" stroke-miterlimit="10" d="M 418.773438 121.054688 C 418.773438 123.660156 414.863281 123.660156 414.863281 121.054688 C 414.863281 118.445312 418.773438 118.445312 418.773438 121.054688 "/>
<path fill-rule="nonzero" fill="rgb(0%, 0%, 0%)" fill-opacity="1" stroke-width="0.708661" stroke-linecap="round" stroke-linejoin="round" stroke="rgb(0%, 0%, 0%)" stroke-opacity="1" stroke-miterlimit="10" d="M 413.355469 173.152344 C 413.355469 175.757812 409.445312 175.757812 409.445312 173.152344 C 409.445312 170.546875 413.355469 170.546875 413.355469 173.152344 "/>
<path fill-rule="nonzero" fill="rgb(0%, 0%, 0%)" fill-opacity="1" stroke-width="0.708661" stroke-linecap="round" stroke-linejoin="round" stroke="rgb(0%, 0%, 0%)" stroke-opacity="1" stroke-miterlimit="10" d="M 411.761719 179.761719 C 411.761719 182.367188 407.851562 182.367188 407.851562 179.761719 C 407.851562 177.152344 411.761719 177.152344 411.761719 179.761719 "/>
<path fill-rule="nonzero" fill="rgb(0%, 0%, 0%)" fill-opacity="1" stroke-width="0.708661" stroke-linecap="round" stroke-linejoin="round" stroke="rgb(0%, 0%, 0%)" stroke-opacity="1" stroke-miterlimit="10" d="M 412.964844 127.941406 C 412.964844 130.546875 409.054688 130.546875 409.054688 127.941406 C 409.054688 125.335938 412.964844 125.335938 412.964844 127.941406 "/>
<path fill-rule="nonzero" fill="rgb(0%, 0%, 0%)" fill-opacity="1" stroke-width="0.708661" stroke-linecap="round" stroke-linejoin="round" stroke="rgb(0%, 0%, 0%)" stroke-opacity="1" stroke-miterlimit="10" d="M 401.15625 77.761719 C 401.15625 80.371094 397.246094 80.371094 397.246094 77.761719 C 397.246094 75.15625 401.15625 75.15625 401.15625 77.761719 "/>
<path fill-rule="nonzero" fill="rgb(0%, 0%, 0%)" fill-opacity="1" stroke-width="0.708661" stroke-linecap="round" stroke-linejoin="round" stroke="rgb(0%, 0%, 0%)" stroke-opacity="1" stroke-miterlimit="10" d="M 401.230469 142.679688 C 401.230469 145.285156 397.320312 145.285156 397.320312 142.679688 C 397.320312 140.070312 401.230469 140.070312 401.230469 142.679688 "/>
<path fill-rule="nonzero" fill="rgb(0%, 0%, 0%)" fill-opacity="1" stroke-width="0.708661" stroke-linecap="round" stroke-linejoin="round" stroke="rgb(0%, 0%, 0%)" stroke-opacity="1" stroke-miterlimit="10" d="M 407.515625 97.707031 C 407.515625 100.3125 403.605469 100.3125 403.605469 97.707031 C 403.605469 95.097656 407.515625 95.097656 407.515625 97.707031 "/>
<path fill-rule="nonzero" fill="rgb(0%, 0%, 0%)" fill-opacity="1" stroke-width="0.708661" stroke-linecap="round" stroke-linejoin="round" stroke="rgb(0%, 0%, 0%)" stroke-opacity="1" stroke-miterlimit="10" d="M 405.410156 155.050781 C 405.410156 157.660156 401.5 157.660156 401.5 155.050781 C 401.5 152.445312 405.410156 152.445312 405.410156 155.050781 "/>
<path fill-rule="nonzero" fill="rgb(0%, 0%, 0%)" fill-opacity="1" stroke-width="0.708661" stroke-linecap="round" stroke-linejoin="round" stroke="rgb(0%, 0%, 0%)" stroke-opacity="1" stroke-miterlimit="10" d="M 425.796875 165.542969 C 425.796875 168.152344 421.886719 168.152344 421.886719 165.542969 C 421.886719 162.9375 425.796875 162.9375 425.796875 165.542969 "/>
<path fill-rule="nonzero" fill="rgb(0%, 0%, 0%)" fill-opacity="1" stroke-width="0.708661" stroke-linecap="round" stroke-linejoin="round" stroke="rgb(0%, 0%, 0%)" stroke-opacity="1" stroke-miterlimit="10" d="M 418.441406 198.023438 C 418.441406 200.628906 414.53125 200.628906 414.53125 198.023438 C 414.53125 195.414062 418.441406 195.414062 418.441406 198.023438 "/>
<path fill-rule="nonzero" fill="rgb(0%, 0%, 0%)" fill-opacity="1" stroke-width="0.708661" stroke-linecap="round" stroke-linejoin="round" stroke="rgb(0%, 0%, 0%)" stroke-opacity="1" stroke-miterlimit="10" d="M 410.722656 154.691406 C 410.722656 157.296875 406.8125 157.296875 406.8125 154.691406 C 406.8125 152.085938 410.722656 152.085938 410.722656 154.691406 "/>
<path fill-rule="nonzero" fill="rgb(0%, 0%, 0%)" fill-opacity="1" stroke-width="0.708661" stroke-linecap="round" stroke-linejoin="round" stroke="rgb(0%, 0%, 0%)" stroke-opacity="1" stroke-miterlimit="10" d="M 424.324219 141.554688 C 424.324219 144.164062 420.414062 144.164062 420.414062 141.554688 C 420.414062 138.949219 424.324219 138.949219 424.324219 141.554688 "/>
<path fill-rule="nonzero" fill="rgb(0%, 0%, 0%)" fill-opacity="1" stroke-width="0.708661" stroke-linecap="round" stroke-linejoin="round" stroke="rgb(0%, 0%, 0%)" stroke-opacity="1" stroke-miterlimit="10" d="M 403.589844 169.589844 C 403.589844 172.195312 399.679688 172.195312 399.679688 169.589844 C 399.679688 166.984375 403.589844 166.984375 403.589844 169.589844 "/>
<path fill-rule="nonzero" fill="rgb(0%, 0%, 0%)" fill-opacity="1" stroke-width="0.708661" stroke-linecap="round" stroke-linejoin="round" stroke="rgb(0%, 0%, 0%)" stroke-opacity="1" stroke-miterlimit="10" d="M 420.566406 125.378906 C 420.566406 127.984375 416.65625 127.984375 416.65625 125.378906 C 416.65625 122.769531 420.566406 122.769531 420.566406 125.378906 "/>
<path fill-rule="nonzero" fill="rgb(0%, 0%, 0%)" fill-opacity="1" stroke-width="0.708661" stroke-linecap="round" stroke-linejoin="round" stroke="rgb(0%, 0%, 0%)" stroke-opacity="1" stroke-miterlimit="10" d="M 414.871094 188.011719 C 414.871094 190.617188 410.960938 190.617188 410.960938 188.011719 C 410.960938 185.402344 414.871094 185.402344 414.871094 188.011719 "/>
<path fill-rule="nonzero" fill="rgb(0%, 0%, 0%)" fill-opacity="1" stroke-width="0.708661" stroke-linecap="round" stroke-linejoin="round" stroke="rgb(0%, 0%, 0%)" stroke-opacity="1" stroke-miterlimit="10" d="M 121.710938 100.828125 C 121.710938 103.4375 117.800781 103.4375 117.800781 100.828125 C 117.800781 98.222656 121.710938 98.222656 121.710938 100.828125 "/>
<path fill-rule="nonzero" fill="rgb(0%, 0%, 0%)" fill-opacity="1" stroke-width="0.708661" stroke-linecap="round" stroke-linejoin="round" stroke="rgb(0%, 0%, 0%)" stroke-opacity="1" stroke-miterlimit="10" d="M 137.101562 132.1875 C 137.101562 134.792969 133.191406 134.792969 133.191406 132.1875 C 133.191406 129.578125 137.101562 129.578125 137.101562 132.1875 "/>
<path fill-rule="nonzero" fill="rgb(0%, 0%, 0%)" fill-opacity="1" stroke-width="0.708661" stroke-linecap="round" stroke-linejoin="round" stroke="rgb(0%, 0%, 0%)" stroke-opacity="1" stroke-miterlimit="10" d="M 110.363281 174.59375 C 110.363281 177.199219 106.453125 177.199219 106.453125 174.59375 C 106.453125 171.988281 110.363281 171.988281 110.363281 174.59375 "/>
<path fill-rule="nonzero" fill="rgb(0%, 0%, 0%)" fill-opacity="1" stroke-width="0.708661" stroke-linecap="round" stroke-linejoin="round" stroke="rgb(0%, 0%, 0%)" stroke-opacity="1" stroke-miterlimit="10" d="M 120.851562 154.652344 C 120.851562 157.257812 116.945312 157.257812 116.945312 154.652344 C 116.945312 152.046875 120.851562 152.046875 120.851562 154.652344 "/>
<path fill-rule="nonzero" fill="rgb(0%, 0%, 0%)" fill-opacity="1" stroke-width="0.708661" stroke-linecap="round" stroke-linejoin="round" stroke="rgb(0%, 0%, 0%)" stroke-opacity="1" stroke-miterlimit="10" d="M 119.886719 217.683594 C 119.886719 220.289062 115.980469 220.289062 115.980469 217.683594 C 115.980469 215.078125 119.886719 215.078125 119.886719 217.683594 "/>
<path fill-rule="nonzero" fill="rgb(0%, 0%, 0%)" fill-opacity="1" stroke-width="0.708661" stroke-linecap="round" stroke-linejoin="round" stroke="rgb(0%, 0%, 0%)" stroke-opacity="1" stroke-miterlimit="10" d="M 121.011719 153.25 C 121.011719 155.855469 117.101562 155.855469 117.101562 153.25 C 117.101562 150.644531 121.011719 150.644531 121.011719 153.25 "/>
<path fill-rule="nonzero" fill="rgb(0%, 0%, 0%)" fill-opacity="1" stroke-width="0.708661" stroke-linecap="round" stroke-linejoin="round" stroke="rgb(0%, 0%, 0%)" stroke-opacity="1" stroke-miterlimit="10" d="M 111.019531 156.132812 C 111.019531 158.738281 107.113281 158.738281 107.113281 156.132812 C 107.113281 153.527344 111.019531 153.527344 111.019531 156.132812 "/>
<path fill-rule="nonzero" fill="rgb(0%, 0%, 0%)" fill-opacity="1" stroke-width="0.708661" stroke-linecap="round" stroke-linejoin="round" stroke="rgb(0%, 0%, 0%)" stroke-opacity="1" stroke-miterlimit="10" d="M 129.828125 206.269531 C 129.828125 208.878906 125.917969 208.878906 125.917969 206.269531 C 125.917969 203.664062 129.828125 203.664062 129.828125 206.269531 "/>
<path fill-rule="nonzero" fill="rgb(0%, 0%, 0%)" fill-opacity="1" stroke-width="0.708661" stroke-linecap="round" stroke-linejoin="round" stroke="rgb(0%, 0%, 0%)" stroke-opacity="1" stroke-miterlimit="10" d="M 114.203125 156.613281 C 114.203125 159.21875 110.292969 159.21875 110.292969 156.613281 C 110.292969 154.007812 114.203125 154.007812 114.203125 156.613281 "/>
<path fill-rule="nonzero" fill="rgb(0%, 0%, 0%)" fill-opacity="1" stroke-width="0.708661" stroke-linecap="round" stroke-linejoin="round" stroke="rgb(0%, 0%, 0%)" stroke-opacity="1" stroke-miterlimit="10" d="M 124.984375 93.019531 C 124.984375 95.625 121.078125 95.625 121.078125 93.019531 C 121.078125 90.414062 124.984375 90.414062 124.984375 93.019531 "/>
<path fill-rule="nonzero" fill="rgb(0%, 0%, 0%)" fill-opacity="1" stroke-width="0.708661" stroke-linecap="round" stroke-linejoin="round" stroke="rgb(0%, 0%, 0%)" stroke-opacity="1" stroke-miterlimit="10" d="M 130.417969 196.78125 C 130.417969 199.386719 126.507812 199.386719 126.507812 196.78125 C 126.507812 194.175781 130.417969 194.175781 130.417969 196.78125 "/>
<path fill-rule="nonzero" fill="rgb(0%, 0%, 0%)" fill-opacity="1" stroke-width="0.708661" stroke-linecap="round" stroke-linejoin="round" stroke="rgb(0%, 0%, 0%)" stroke-opacity="1" stroke-miterlimit="10" d="M 118.535156 172.113281 C 118.535156 174.71875 114.625 174.71875 114.625 172.113281 C 114.625 169.503906 118.535156 169.503906 118.535156 172.113281 "/>
<path fill-rule="nonzero" fill="rgb(0%, 0%, 0%)" fill-opacity="1" stroke-width="0.708661" stroke-linecap="round" stroke-linejoin="round" stroke="rgb(0%, 0%, 0%)" stroke-opacity="1" stroke-miterlimit="10" d="M 127.351562 115.328125 C 127.351562 117.933594 123.441406 117.933594 123.441406 115.328125 C 123.441406 112.71875 127.351562 112.71875 127.351562 115.328125 "/>
<path fill-rule="nonzero" fill="rgb(0%, 0%, 0%)" fill-opacity="1" stroke-width="0.708661" stroke-linecap="round" stroke-linejoin="round" stroke="rgb(0%, 0%, 0%)" stroke-opacity="1" stroke-miterlimit="10" d="M 122.328125 109.921875 C 122.328125 112.527344 118.417969 112.527344 118.417969 109.921875 C 118.417969 107.3125 122.328125 107.3125 122.328125 109.921875 "/>
<path fill-rule="nonzero" fill="rgb(0%, 0%, 0%)" fill-opacity="1" stroke-width="0.708661" stroke-linecap="round" stroke-linejoin="round" stroke="rgb(0%, 0%, 0%)" stroke-opacity="1" stroke-miterlimit="10" d="M 128.875 156.453125 C 128.875 159.058594 124.964844 159.058594 124.964844 156.453125 C 124.964844 153.847656 128.875 153.847656 128.875 156.453125 "/>
<path fill-rule="nonzero" fill="rgb(0%, 0%, 0%)" fill-opacity="1" stroke-width="0.708661" stroke-linecap="round" stroke-linejoin="round" stroke="rgb(0%, 0%, 0%)" stroke-opacity="1" stroke-miterlimit="10" d="M 118.125 139.996094 C 118.125 142.601562 114.214844 142.601562 114.214844 139.996094 C 114.214844 137.386719 118.125 137.386719 118.125 139.996094 "/>
<path fill-rule="nonzero" fill="rgb(0%, 0%, 0%)" fill-opacity="1" stroke-width="0.708661" stroke-linecap="round" stroke-linejoin="round" stroke="rgb(0%, 0%, 0%)" stroke-opacity="1" stroke-miterlimit="10" d="M 136.925781 147.363281 C 136.925781 149.96875 133.015625 149.96875 133.015625 147.363281 C 133.015625 144.757812 136.925781 144.757812 136.925781 147.363281 "/>
<path fill-rule="nonzero" fill="rgb(0%, 0%, 0%)" fill-opacity="1" stroke-width="0.708661" stroke-linecap="round" stroke-linejoin="round" stroke="rgb(0%, 0%, 0%)" stroke-opacity="1" stroke-miterlimit="10" d="M 130.597656 129.742188 C 130.597656 132.347656 126.6875 132.347656 126.6875 129.742188 C 126.6875 127.136719 130.597656 127.136719 130.597656 129.742188 "/>
<path fill-rule="nonzero" fill="rgb(0%, 0%, 0%)" fill-opacity="1" stroke-width="0.708661" stroke-linecap="round" stroke-linejoin="round" stroke="rgb(0%, 0%, 0%)" stroke-opacity="1" stroke-miterlimit="10" d="M 132.273438 164.984375 C 132.273438 167.589844 128.363281 167.589844 128.363281 164.984375 C 128.363281 162.378906 132.273438 162.378906 132.273438 164.984375 "/>
<path fill-rule="nonzero" fill="rgb(0%, 0%, 0%)" fill-opacity="1" stroke-width="0.708661" stroke-linecap="round" stroke-linejoin="round" stroke="rgb(0%, 0%, 0%)" stroke-opacity="1" stroke-miterlimit="10" d="M 131.8125 160.179688 C 131.8125 162.785156 127.902344 162.785156 127.902344 160.179688 C 127.902344 157.570312 131.8125 157.570312 131.8125 160.179688 "/>
<path fill-rule="nonzero" fill="rgb(0%, 0%, 0%)" fill-opacity="1" stroke-width="0.708661" stroke-linecap="round" stroke-linejoin="round" stroke="rgb(0%, 0%, 0%)" stroke-opacity="1" stroke-miterlimit="10" d="M 119.191406 171.070312 C 119.191406 173.675781 115.28125 173.675781 115.28125 171.070312 C 115.28125 168.464844 119.191406 168.464844 119.191406 171.070312 "/>
<path fill-rule="nonzero" fill="rgb(0%, 0%, 0%)" fill-opacity="1" stroke-width="0.708661" stroke-linecap="round" stroke-linejoin="round" stroke="rgb(0%, 0%, 0%)" stroke-opacity="1" stroke-miterlimit="10" d="M 130.347656 185.285156 C 130.347656 187.894531 126.4375 187.894531 126.4375 185.285156 C 126.4375 182.679688 130.347656 182.679688 130.347656 185.285156 "/>
<path fill-rule="nonzero" fill="rgb(0%, 0%, 0%)" fill-opacity="1" stroke-width="0.708661" stroke-linecap="round" stroke-linejoin="round" stroke="rgb(0%, 0%, 0%)" stroke-opacity="1" stroke-miterlimit="10" d="M 117.625 132.707031 C 117.625 135.3125 113.714844 135.3125 113.714844 132.707031 C 113.714844 130.101562 117.625 130.101562 117.625 132.707031 "/>
<path fill-rule="nonzero" fill="rgb(0%, 0%, 0%)" fill-opacity="1" stroke-width="0.708661" stroke-linecap="round" stroke-linejoin="round" stroke="rgb(0%, 0%, 0%)" stroke-opacity="1" stroke-miterlimit="10" d="M 111.625 193.015625 C 111.625 195.621094 107.714844 195.621094 107.714844 193.015625 C 107.714844 190.410156 111.625 190.410156 111.625 193.015625 "/>
<path fill-rule="nonzero" fill="rgb(0%, 0%, 0%)" fill-opacity="1" stroke-width="0.708661" stroke-linecap="round" stroke-linejoin="round" stroke="rgb(0%, 0%, 0%)" stroke-opacity="1" stroke-miterlimit="10" d="M 136.605469 171.992188 C 136.605469 174.597656 132.695312 174.597656 132.695312 171.992188 C 132.695312 169.386719 136.605469 169.386719 136.605469 171.992188 "/>
<path fill-rule="nonzero" fill="rgb(0%, 0%, 0%)" fill-opacity="1" stroke-width="0.708661" stroke-linecap="round" stroke-linejoin="round" stroke="rgb(0%, 0%, 0%)" stroke-opacity="1" stroke-miterlimit="10" d="M 132.601562 221.6875 C 132.601562 224.296875 128.691406 224.296875 128.691406 221.6875 C 128.691406 219.082031 132.601562 219.082031 132.601562 221.6875 "/>
<path fill-rule="nonzero" fill="rgb(0%, 0%, 0%)" fill-opacity="1" stroke-width="0.708661" stroke-linecap="round" stroke-linejoin="round" stroke="rgb(0%, 0%, 0%)" stroke-opacity="1" stroke-miterlimit="10" d="M 110.117188 125.578125 C 110.117188 128.183594 106.210938 128.183594 106.210938 125.578125 C 106.210938 122.972656 110.117188 122.972656 110.117188 125.578125 "/>
<path fill-rule="nonzero" fill="rgb(0%, 0%, 0%)" fill-opacity="1" stroke-width="0.708661" stroke-linecap="round" stroke-linejoin="round" stroke="rgb(0%, 0%, 0%)" stroke-opacity="1" stroke-miterlimit="10" d="M 134.203125 155.132812 C 134.203125 157.738281 130.292969 157.738281 130.292969 155.132812 C 130.292969 152.527344 134.203125 152.527344 134.203125 155.132812 "/>
<path fill-rule="nonzero" fill="rgb(0%, 0%, 0%)" fill-opacity="1" stroke-width="0.708661" stroke-linecap="round" stroke-linejoin="round" stroke="rgb(0%, 0%, 0%)" stroke-opacity="1" stroke-miterlimit="10" d="M 123.042969 137.753906 C 123.042969 140.359375 119.136719 140.359375 119.136719 137.753906 C 119.136719 135.144531 123.042969 135.144531 123.042969 137.753906 "/>
<path fill-rule="nonzero" fill="rgb(0%, 0%, 0%)" fill-opacity="1" stroke-width="0.708661" stroke-linecap="round" stroke-linejoin="round" stroke="rgb(0%, 0%, 0%)" stroke-opacity="1" stroke-miterlimit="10" d="M 116.976562 159.378906 C 116.976562 161.984375 113.066406 161.984375 113.066406 159.378906 C 113.066406 156.769531 116.976562 156.769531 116.976562 159.378906 "/>
<path fill="none" stroke-width="1.066978" stroke-linecap="butt" stroke-linejoin="round" stroke="rgb(0%, 0%, 0%)" stroke-opacity="1" stroke-miterlimit="10" d="M 100.3125 150.527344 L 143.753906 150.527344 "/>
<path fill="none" stroke-width="1.066978" stroke-linecap="butt" stroke-linejoin="round" stroke="rgb(0%, 0%, 0%)" stroke-opacity="1" stroke-miterlimit="10" d="M 122.03125 150.527344 L 122.03125 162.253906 "/>
<path fill="none" stroke-width="1.066978" stroke-linecap="butt" stroke-linejoin="round" stroke="rgb(0%, 0%, 0%)" stroke-opacity="1" stroke-miterlimit="10" d="M 100.3125 162.253906 L 143.753906 162.253906 "/>
<path fill="none" stroke-width="1.066978" stroke-linecap="butt" stroke-linejoin="round" stroke="rgb(0%, 0%, 0%)" stroke-opacity="1" stroke-miterlimit="10" d="M 245.113281 123.546875 L 288.554688 123.546875 "/>
<path fill="none" stroke-width="1.066978" stroke-linecap="butt" stroke-linejoin="round" stroke="rgb(0%, 0%, 0%)" stroke-opacity="1" stroke-miterlimit="10" d="M 266.835938 123.546875 L 266.835938 135.613281 "/>
<path fill="none" stroke-width="1.066978" stroke-linecap="butt" stroke-linejoin="round" stroke="rgb(0%, 0%, 0%)" stroke-opacity="1" stroke-miterlimit="10" d="M 245.113281 135.613281 L 288.554688 135.613281 "/>
<path fill="none" stroke-width="1.066978" stroke-linecap="butt" stroke-linejoin="round" stroke="rgb(0%, 0%, 0%)" stroke-opacity="1" stroke-miterlimit="10" d="M 389.917969 141.261719 L 433.359375 141.261719 "/>
<path fill="none" stroke-width="1.066978" stroke-linecap="butt" stroke-linejoin="round" stroke="rgb(0%, 0%, 0%)" stroke-opacity="1" stroke-miterlimit="10" d="M 411.640625 141.261719 L 411.640625 152.742188 "/>
<path fill="none" stroke-width="1.066978" stroke-linecap="butt" stroke-linejoin="round" stroke="rgb(0%, 0%, 0%)" stroke-opacity="1" stroke-miterlimit="10" d="M 389.917969 152.742188 L 433.359375 152.742188 "/>
<path fill="none" stroke-width="1.066978" stroke-linecap="butt" stroke-linejoin="round" stroke="rgb(0%, 0%, 0%)" stroke-opacity="1" stroke-miterlimit="10" d="M 107.550781 156.390625 L 136.511719 156.390625 "/>
<path fill="none" stroke-width="1.066978" stroke-linecap="butt" stroke-linejoin="round" stroke="rgb(0%, 0%, 0%)" stroke-opacity="1" stroke-miterlimit="10" d="M 122.03125 156.390625 L 122.03125 156.390625 "/>
<path fill="none" stroke-width="1.066978" stroke-linecap="butt" stroke-linejoin="round" stroke="rgb(0%, 0%, 0%)" stroke-opacity="1" stroke-miterlimit="10" d="M 107.550781 156.390625 L 136.511719 156.390625 "/>
<path fill="none" stroke-width="1.066978" stroke-linecap="butt" stroke-linejoin="round" stroke="rgb(0%, 0%, 0%)" stroke-opacity="1" stroke-miterlimit="10" d="M 252.355469 129.582031 L 281.316406 129.582031 "/>
<path fill="none" stroke-width="1.066978" stroke-linecap="butt" stroke-linejoin="round" stroke="rgb(0%, 0%, 0%)" stroke-opacity="1" stroke-miterlimit="10" d="M 266.835938 129.582031 L 266.835938 129.582031 "/>
<path fill="none" stroke-width="1.066978" stroke-linecap="butt" stroke-linejoin="round" stroke="rgb(0%, 0%, 0%)" stroke-opacity="1" stroke-miterlimit="10" d="M 252.355469 129.582031 L 281.316406 129.582031 "/>
<path fill="none" stroke-width="1.066978" stroke-linecap="butt" stroke-linejoin="round" stroke="rgb(0%, 0%, 0%)" stroke-opacity="1" stroke-miterlimit="10" d="M 397.160156 147 L 426.117188 147 "/>
<path fill="none" stroke-width="1.066978" stroke-linecap="butt" stroke-linejoin="round" stroke="rgb(0%, 0%, 0%)" stroke-opacity="1" stroke-miterlimit="10" d="M 411.640625 147 L 411.640625 147 "/>
<path fill="none" stroke-width="1.066978" stroke-linecap="butt" stroke-linejoin="round" stroke="rgb(0%, 0%, 0%)" stroke-opacity="1" stroke-miterlimit="10" d="M 397.160156 147 L 426.117188 147 "/>
<path fill="none" stroke-width="1.066978" stroke-linecap="square" stroke-linejoin="round" stroke="rgb(0%, 0%, 0%)" stroke-opacity="1" stroke-miterlimit="10" d="M 35.152344 325.847656 L 35.152344 5.480469 "/>
<g fill="rgb(0%, 0%, 0%)" fill-opacity="1">
<use xlink:href="#glyph-0-0" x="25.21875" y="328.762695"/>
</g>
<g fill="rgb(0%, 0%, 0%)" fill-opacity="1">
<use xlink:href="#glyph-0-1" x="20.21875" y="248.672852"/>
<use xlink:href="#glyph-0-0" x="25.21875" y="248.672852"/>
</g>
<g fill="rgb(0%, 0%, 0%)" fill-opacity="1">
<use xlink:href="#glyph-0-2" x="20.21875" y="168.579102"/>
<use xlink:href="#glyph-0-0" x="25.21875" y="168.579102"/>
</g>
<g fill="rgb(0%, 0%, 0%)" fill-opacity="1">
<use xlink:href="#glyph-0-3" x="20.21875" y="88.485352"/>
<use xlink:href="#glyph-0-0" x="25.21875" y="88.485352"/>
</g>
<g fill="rgb(0%, 0%, 0%)" fill-opacity="1">
<use xlink:href="#glyph-0-4" x="20.21875" y="8.395508"/>
<use xlink:href="#glyph-0-0" x="25.21875" y="8.395508"/>
</g>
<path fill="none" stroke-width="1.066978" stroke-linecap="butt" stroke-linejoin="round" stroke="rgb(0%, 0%, 0%)" stroke-opacity="1" stroke-miterlimit="10" d="M 32.410156 325.847656 L 35.152344 325.847656 "/>
<path fill="none" stroke-width="1.066978" stroke-linecap="butt" stroke-linejoin="round" stroke="rgb(0%, 0%, 0%)" stroke-opacity="1" stroke-miterlimit="10" d="M 32.410156 245.757812 L 35.152344 245.757812 "/>
<path fill="none" stroke-width="1.066978" stroke-linecap="butt" stroke-linejoin="round" stroke="rgb(0%, 0%, 0%)" stroke-opacity="1" stroke-miterlimit="10" d="M 32.410156 165.664062 L 35.152344 165.664062 "/>
<path fill="none" stroke-width="1.066978" stroke-linecap="butt" stroke-linejoin="round" stroke="rgb(0%, 0%, 0%)" stroke-opacity="1" stroke-miterlimit="10" d="M 32.410156 85.570312 L 35.152344 85.570312 "/>
<path fill="none" stroke-width="1.066978" stroke-linecap="butt" stroke-linejoin="round" stroke="rgb(0%, 0%, 0%)" stroke-opacity="1" stroke-miterlimit="10" d="M 32.410156 5.480469 L 35.152344 5.480469 "/>
<path fill="none" stroke-width="1.066978" stroke-linecap="square" stroke-linejoin="round" stroke="rgb(0%, 0%, 0%)" stroke-opacity="1" stroke-miterlimit="10" d="M 35.152344 325.847656 L 498.519531 325.847656 "/>
<path fill="none" stroke-width="1.066978" stroke-linecap="butt" stroke-linejoin="round" stroke="rgb(0%, 0%, 0%)" stroke-opacity="1" stroke-miterlimit="10" d="M 122.03125 328.589844 L 122.03125 325.847656 "/>
<path fill="none" stroke-width="1.066978" stroke-linecap="butt" stroke-linejoin="round" stroke="rgb(0%, 0%, 0%)" stroke-opacity="1" stroke-miterlimit="10" d="M 266.835938 328.589844 L 266.835938 325.847656 "/>
<path fill="none" stroke-width="1.066978" stroke-linecap="butt" stroke-linejoin="round" stroke="rgb(0%, 0%, 0%)" stroke-opacity="1" stroke-miterlimit="10" d="M 411.640625 328.589844 L 411.640625 325.847656 "/>
<g fill="rgb(0%, 0%, 0%)" fill-opacity="1">
<use xlink:href="#glyph-0-5" x="87.03125" y="337.196289"/>
<use xlink:href="#glyph-0-6" x="93.03125" y="337.196289"/>
<use xlink:href="#glyph-0-7" x="95.03125" y="337.196289"/>
<use xlink:href="#glyph-0-8" x="100.03125" y="337.196289"/>
<use xlink:href="#glyph-0-8" x="105.03125" y="337.196289"/>
<use xlink:href="#glyph-0-9" x="110.03125" y="337.196289"/>
<use xlink:href="#glyph-0-10" x="115.03125" y="337.196289"/>
<use xlink:href="#glyph-0-11" x="118.03125" y="337.196289"/>
<use xlink:href="#glyph-0-12" x="123.03125" y="337.196289"/>
<use xlink:href="#glyph-0-13" x="128.03125" y="337.196289"/>
<use xlink:href="#glyph-0-9" x="132.03125" y="337.196289"/>
<use xlink:href="#glyph-0-14" x="137.03125" y="337.196289"/>
<use xlink:href="#glyph-0-15" x="139.03125" y="337.196289"/>
<use xlink:href="#glyph-0-9" x="145.03125" y="337.196289"/>
<use xlink:href="#glyph-0-7" x="150.03125" y="337.196289"/>
<use xlink:href="#glyph-0-6" x="155.03125" y="337.196289"/>
</g>
<g fill="rgb(0%, 0%, 0%)" fill-opacity="1">
<use xlink:href="#glyph-0-16" x="240.835938" y="337.196289"/>
<use xlink:href="#glyph-0-7" x="246.835938" y="337.196289"/>
<use xlink:href="#glyph-0-10" x="251.835938" y="337.196289"/>
<use xlink:href="#glyph-0-17" x="254.835938" y="337.196289"/>
<use xlink:href="#glyph-0-12" x="259.835938" y="337.196289"/>
<use xlink:href="#glyph-0-18" x="264.835938" y="337.196289"/>
<use xlink:href="#glyph-0-10" x="269.835938" y="337.196289"/>
<use xlink:href="#glyph-0-14" x="272.835938" y="337.196289"/>
<use xlink:href="#glyph-0-15" x="274.835938" y="337.196289"/>
<use xlink:href="#glyph-0-9" x="280.835938" y="337.196289"/>
<use xlink:href="#glyph-0-7" x="285.835938" y="337.196289"/>
<use xlink:href="#glyph-0-6" x="290.835938" y="337.196289"/>
</g>
<g fill="rgb(0%, 0%, 0%)" fill-opacity="1">
<use xlink:href="#glyph-0-19" x="385.640625" y="337.196289"/>
<use xlink:href="#glyph-0-9" x="393.640625" y="337.196289"/>
<use xlink:href="#glyph-0-8" x="398.640625" y="337.196289"/>
<use xlink:href="#glyph-0-8" x="403.640625" y="337.196289"/>
<use xlink:href="#glyph-0-9" x="408.640625" y="337.196289"/>
<use xlink:href="#glyph-0-6" x="413.640625" y="337.196289"/>
<use xlink:href="#glyph-0-6" x="415.640625" y="337.196289"/>
<use xlink:href="#glyph-0-14" x="417.640625" y="337.196289"/>
<use xlink:href="#glyph-0-15" x="419.640625" y="337.196289"/>
<use xlink:href="#glyph-0-9" x="425.640625" y="337.196289"/>
<use xlink:href="#glyph-0-7" x="430.640625" y="337.196289"/>
<use xlink:href="#glyph-0-6" x="435.640625" y="337.196289"/>
</g>
<g fill="rgb(0%, 0%, 0%)" fill-opacity="1">
<use xlink:href="#glyph-1-0" x="247.335938" y="350.538086"/>
<use xlink:href="#glyph-1-1" x="254.335938" y="350.538086"/>
<use xlink:href="#glyph-1-2" x="260.335938" y="350.538086"/>
<use xlink:href="#glyph-1-3" x="266.335938" y="350.538086"/>
<use xlink:href="#glyph-1-4" x="272.335938" y="350.538086"/>
<use xlink:href="#glyph-1-2" x="274.335938" y="350.538086"/>
<use xlink:href="#glyph-1-5" x="280.335938" y="350.538086"/>
</g>
<g fill="rgb(0%, 0%, 0%)" fill-opacity="1">
<use xlink:href="#glyph-2-0" x="13.499023" y="205.164062"/>
<use xlink:href="#glyph-2-1" x="13.499023" y="196.164062"/>
<use xlink:href="#glyph-2-2" x="13.499023" y="191.164062"/>
<use xlink:href="#glyph-2-3" x="13.499023" y="185.164062"/>
<use xlink:href="#glyph-2-4" x="13.499023" y="179.164062"/>
<use xlink:href="#glyph-2-2" x="13.499023" y="177.164062"/>
<use xlink:href="#glyph-2-5" x="13.499023" y="171.164062"/>
<use xlink:href="#glyph-2-6" x="13.499023" y="165.164062"/>
<use xlink:href="#glyph-2-7" x="13.499023" y="163.164062"/>
<use xlink:href="#glyph-2-8" x="13.499023" y="157.164062"/>
<use xlink:href="#glyph-2-9" x="13.499023" y="154.164062"/>
<use xlink:href="#glyph-2-3" x="13.499023" y="150.164062"/>
<use xlink:href="#glyph-2-10" x="13.499023" y="144.164062"/>
<use xlink:href="#glyph-2-11" x="13.499023" y="141.164062"/>
<use xlink:href="#glyph-2-3" x="13.499023" y="136.164062"/>
<use xlink:href="#glyph-2-12" x="13.499023" y="130.164062"/>
</g>
</svg>
